<?xml version="1.0" encoding="utf-8"?>
<!-- Generator: Adobe Illustrator 24.1.2, SVG Export Plug-In . SVG Version: 6.00 Build 0)  -->
<svg version="1.1" id="Capa_1" xmlns="http://www.w3.org/2000/svg" xmlns:xlink="http://www.w3.org/1999/xlink" x="0px" y="0px"
	 viewBox="0 0 900 900" style="enable-background:new 0 0 900 900;" xml:space="preserve">
<style type="text/css">
	.st0{fill:#FFFFFF;}
	.st1{opacity:0.59;fill:#FFFFFF;}
	.st2{opacity:0.38;fill:#FFFFFF;}
</style>
<g>
	<g>
		<g>
			<path class="st0" d="M176.98,319.34l-62.86-54.08c-6.36-6.38-16.84-5.85-22.52,1.15l-25.04,30.86c-2.17,2.67-3.36,6-3.39,9.45
				l-0.26,37.21c-0.06,8.72,7.22,15.69,15.93,15.25l82.14,2.32c6.06-0.31,11.35-4.2,13.46-9.89l6.03-16.32
				C182.5,329.76,181.15,323.53,176.98,319.34z M173.85,332.86l-6.03,16.32c-1.13,3.05-3.96,5.13-7.21,5.3l-82.14-2.32
				c-2.26,0.11-4.4-0.68-6.03-2.25c-1.63-1.56-2.52-3.67-2.51-5.93l0.26-37.21c0.01-0.94,0.18-1.87,0.5-2.76
				c0.31-0.84,0.75-1.61,1.31-2.3l25.04-30.86c1.47-1.81,3.56-2.88,5.9-2.99c2.33-0.12,4.52,0.73,6.17,2.38l62.86,54.08
				C174.22,326.54,174.95,329.9,173.85,332.86z"/>
		</g>
		<g>
			<path class="st0" d="M132.95,331.04c-0.39,1.06-1.24,1.93-2.38,2.32l-22.35,7.6c-2.02,0.69-4.22-0.39-4.91-2.42
				c-0.69-2.02,0.39-4.22,2.42-4.91l18.69-6.36l-10.55-31.12c-0.69-2.02,0.4-4.22,2.42-4.91s4.22,0.4,4.91,2.42l11.79,34.78
				C133.28,329.34,133.24,330.24,132.95,331.04z"/>
		</g>
	</g>
	<ellipse class="st0" cx="241.51" cy="450" rx="13.32" ry="13.22"/>
	<ellipse class="st0" cx="559.05" cy="242.72" rx="13.32" ry="13.22"/>
	<ellipse class="st0" cx="450" cy="635.04" rx="9.45" ry="9.38"/>
	<ellipse class="st1" cx="560.7" cy="611.72" rx="9.45" ry="9.38"/>
	<ellipse class="st1" cx="450" cy="599.3" rx="9.45" ry="9.38"/>
	<ellipse class="st1" cx="547.13" cy="599.3" rx="6.56" ry="6.51"/>
	<ellipse class="st1" cx="561.95" cy="582.55" rx="4.92" ry="4.89"/>
	<ellipse class="st0" cx="614.38" cy="409.94" rx="11.41" ry="11.33"/>
	<ellipse class="st0" cx="301.12" cy="450" rx="11.41" ry="11.33"/>
	<ellipse class="st0" cx="284.24" cy="557.06" rx="11.41" ry="11.33"/>
	<ellipse class="st0" cx="309.14" cy="562.9" rx="9.81" ry="9.74"/>
	<ellipse class="st0" cx="310.75" cy="592.26" rx="11.41" ry="11.33"/>
	<ellipse class="st0" cx="559.05" cy="318.44" rx="7.34" ry="7.29"/>
	<ellipse class="st2" cx="590.39" cy="351.8" rx="7.34" ry="7.29"/>
	<ellipse class="st2" cx="419.78" cy="353.29" rx="5.85" ry="5.81"/>
	<ellipse class="st2" cx="384.09" cy="242.72" rx="5.85" ry="5.81"/>
	<ellipse class="st2" cx="322.16" cy="301.29" rx="5.85" ry="5.81"/>
	<ellipse class="st2" cx="450" cy="351.8" rx="5.85" ry="5.81"/>
	<ellipse class="st2" cx="303.03" cy="283.82" rx="5.85" ry="5.81"/>
	<ellipse class="st0" cx="331.07" cy="291.11" rx="7.34" ry="7.29"/>
	<ellipse class="st0" cx="621.72" cy="565.92" rx="7.34" ry="7.29"/>
	<g>
		<ellipse class="st0" cx="280.81" cy="347.97" rx="3.86" ry="3.83"/>
		<ellipse class="st0" cx="306.89" cy="340.97" rx="3.86" ry="3.83"/>
		<ellipse class="st0" cx="306.89" cy="358.13" rx="3.86" ry="3.83"/>
		<ellipse class="st0" cx="284.24" cy="365.79" rx="3.86" ry="3.83"/>
		<ellipse class="st0" cx="261.59" cy="365.79" rx="3.86" ry="3.83"/>
		<ellipse class="st0" cx="283.28" cy="388.71" rx="3.86" ry="3.83"/>
		<ellipse class="st0" cx="280.38" cy="409.02" rx="3.86" ry="3.83"/>
		<ellipse class="st0" cx="261.59" cy="384.88" rx="3.86" ry="3.83"/>
		<ellipse class="st0" cx="301.12" cy="411.41" rx="3.86" ry="3.83"/>
		<path class="st0" d="M284.93,365.55l21.96-7.41V340.3l-26.36,7.14L284.93,365.55h-23.34v19.22l21.14,3.84
			c0,0-4.39,20.32-3.57,20.32s21.69,2.47,21.69,2.47"/>
	</g>
	<g>
		<path class="st0" d="M450,0C201.47,0,0,201.47,0,450s201.47,450,450,450s450-201.47,450-450S698.53,0,450,0z M460.21,880.67v1.01
			h-20.42v-1.01c-111.39-2.59-212.33-47.46-287.39-119.2l-0.83,0.83l-14.44-14.44l0.84-0.84c-71.41-74.99-116.06-175.7-118.64-286.8
			h-0.01v-0.42c-0.07-3.26-0.12-6.52-0.12-9.8s0.04-6.54,0.12-9.8v-0.42h0.01c2.59-111.19,47.3-211.96,118.8-286.98l-0.29-0.29
			l14.44-14.44l0.29,0.29C227.61,66.73,328.48,21.92,439.79,19.33v-2.15h20.42v2.15c111.11,2.58,211.81,47.23,286.81,118.64
			l1.41-1.41l14.44,14.44l-1.39,1.39c71.73,75.05,116.6,175.99,119.2,287.39h0.01v0.41c0.07,3.26,0.12,6.52,0.12,9.8
			s-0.04,6.54-0.12,9.8v0.41h-0.01C875.32,690.02,690.02,875.32,460.21,880.67z"/>
		<path class="st0" d="M19.21,450c0,3.27,0.04,6.54,0.12,9.8V440.2C19.25,443.46,19.21,446.73,19.21,450z"/>
		<path class="st0" d="M19.21,450c0,3.27,0.04,6.54,0.12,9.8V440.2C19.25,443.46,19.21,446.73,19.21,450z"/>
		<path class="st0" d="M880.79,450c0-3.28-0.04-6.54-0.12-9.8v19.6C880.75,456.54,880.79,453.28,880.79,450z"/>
		<path class="st0" d="M880.79,450c0-3.28-0.04-6.54-0.12-9.8v19.6C880.75,456.54,880.79,453.28,880.79,450z"/>
		<path class="st0" d="M19.32,460.21L19.32,460.21c0-0.14,0-0.28,0-0.42V460.21z"/>
		<path class="st0" d="M19.32,439.79v0.42C19.33,440.07,19.33,439.93,19.32,439.79L19.32,439.79z"/>
		<path class="st0" d="M173.94,450c0-3.42,0.08-6.82,0.21-10.21l-154.81,0c0,0.14,0,0.28-0.01,0.42v19.59c0,0.14,0,0.28,0.01,0.42
			l154.81,0C174.02,456.82,173.94,453.42,173.94,450z"/>
		<path class="st0" d="M460.21,19.33v-2.15h-20.42v2.15c3.39-0.08,6.8-0.12,10.21-0.12C453.41,19.21,456.82,19.25,460.21,19.33z"/>
		<path class="st0" d="M450,173.94C450,173.94,450,173.94,450,173.94c3.42,0,6.82,0.08,10.21,0.21l0-154.81
			c-3.39-0.08-6.8-0.12-10.21-0.12c-3.41,0-6.82,0.04-10.21,0.12l0,154.81C443.18,174.02,446.58,173.94,450,173.94z"/>
		<path class="st0" d="M880.68,439.79L880.68,439.79c0,0.14,0,0.28,0,0.41V439.79z"/>
		<path class="st0" d="M880.68,459.8c0,0.14,0,0.28-0.01,0.41h0.01V459.8z"/>
		<path class="st0" d="M880.68,440.2c0-0.14,0-0.28-0.01-0.41l-154.81,0c0.12,3.39,0.21,6.8,0.21,10.21c0,3.42-0.08,6.82-0.21,10.21
			l154.81,0c0-0.14,0-0.28,0.01-0.41V440.2z"/>
		<path class="st0" d="M439.79,880.67v1.01h20.42v-1.01c-3.39,0.08-6.8,0.12-10.21,0.12C446.59,880.79,443.18,880.75,439.79,880.67z
			"/>
		<path class="st0" d="M450,726.06c-3.41,0-6.82-0.08-10.21-0.21l0,154.81c3.39,0.08,6.8,0.12,10.21,0.12
			c3.41,0,6.82-0.04,10.21-0.12l0-154.81C456.82,725.98,453.42,726.06,450,726.06z"/>
		<path class="st0" d="M152.57,138.37l-0.29-0.29l-14.44,14.44l0.29,0.29C142.83,147.88,147.65,143.07,152.57,138.37z"/>
		<path class="st0" d="M254.79,254.79c2.38-2.38,4.8-4.68,7.24-6.96L152.57,138.37c-4.92,4.7-9.74,9.52-14.44,14.45l109.47,109.47
			C249.96,259.75,252.34,257.25,254.79,254.79z"/>
		<path class="st0" d="M761.47,152.4l1.39-1.39l-14.44-14.44l-1.41,1.41C751.95,142.67,756.77,147.48,761.47,152.4z"/>
		<path class="st0" d="M645.21,254.79c2.32,2.32,4.58,4.68,6.8,7.07L761.47,152.4c-4.7-4.92-9.52-9.73-14.45-14.43L637.55,247.44
			C640.13,249.85,642.7,252.28,645.21,254.79z"/>
		<path class="st0" d="M637.72,652.4l109.19,109.19l14.44-14.44L652.17,637.96c-2.28,2.45-4.59,4.87-6.96,7.24
			C642.75,647.66,640.25,650.05,637.72,652.4z"/>
		<path class="st0" d="M137.97,747.02l-0.84,0.84l14.44,14.44l0.83-0.83C147.48,756.77,142.67,751.95,137.97,747.02z"/>
		<path class="st0" d="M254.79,645.21c-2.51-2.51-4.95-5.07-7.35-7.66L137.97,747.02c4.7,4.93,9.51,9.75,14.43,14.45l109.46-109.46
			C259.48,649.78,257.11,647.53,254.79,645.21z"/>
		<path class="st0" d="M646.07,267.8l-14.44-14.44l5.91-5.91c-48.69-45.16-110.95-70.9-177.33-73.3v8.21h-20.42v-8.21
			c-66.56,2.41-129,28.29-177.75,73.69l7.04,7.04l-14.44,14.44l-7.03-7.03c-45.26,48.71-71.06,111.05-73.46,177.51h10.35v20.42
			h-10.35c2.4,66.38,28.14,128.65,73.3,177.33l6.48-6.48l14.44,14.44l-6.5,6.5c48.77,45.5,111.28,71.44,177.92,73.85v-9.35h20.42
			v9.35c66.46-2.4,128.79-28.2,177.51-73.46l-7.6-7.6l14.44-14.44l7.61,7.61c45.4-48.75,71.28-111.18,73.69-177.75h-10.35v-20.42
			h10.35c-2.41-66.65-28.35-129.15-73.85-177.92L646.07,267.8z M631.06,631.06c-48.36,48.36-112.67,75-181.06,75
			c-68.4,0-132.7-26.63-181.06-75c-48.36-48.36-75-112.67-75-181.06c0-68.4,26.64-132.7,75-181.06s112.67-75,181.06-75
			c68.4,0,132.7,26.64,181.06,75c48.36,48.36,75,112.67,75,181.06C706.06,518.4,679.43,582.7,631.06,631.06z"/>
		<path class="st0" d="M184.49,439.79h-10.35c-0.12,3.39-0.21,6.8-0.21,10.21c0,3.42,0.08,6.82,0.21,10.21h10.35V439.79z"/>
		<path class="st0" d="M460.21,182.35v-8.21c-3.39-0.12-6.8-0.21-10.21-0.21c0,0,0,0,0,0c-3.41,0-6.82,0.08-10.21,0.21v8.21H460.21z
			"/>
		<path class="st0" d="M715.51,460.21h10.35c0.12-3.39,0.21-6.8,0.21-10.21c0-3.42-0.08-6.82-0.21-10.21h-10.35V460.21z"/>
		<path class="st0" d="M439.79,716.51v9.35c3.39,0.12,6.8,0.21,10.21,0.21c3.42,0,6.82-0.08,10.21-0.21v-9.35H439.79z"/>
		<path class="st0" d="M269.08,254.87l-7.04-7.04c-2.45,2.28-4.87,4.59-7.24,6.96c-2.45,2.45-4.84,4.96-7.19,7.49l7.03,7.03
			L269.08,254.87z"/>
		<path class="st0" d="M646.07,267.8l5.93-5.93c-2.23-2.39-4.48-4.75-6.8-7.07c-2.51-2.51-5.07-4.95-7.66-7.35l-5.91,5.91
			L646.07,267.8z"/>
		<path class="st0" d="M630.12,644.8l7.6,7.6c2.53-2.35,5.03-4.73,7.49-7.19c2.38-2.38,4.68-4.8,6.96-7.24l-7.61-7.61L630.12,644.8z
			"/>
		<path class="st0" d="M253.93,631.06l-6.48,6.48c2.4,2.59,4.84,5.15,7.35,7.66c2.32,2.32,4.68,4.58,7.07,6.8l6.5-6.5L253.93,631.06
			z"/>
	</g>
	<g>
		<path class="st0" d="M766.73,246.89c3.14,0,6.14,1.83,7.47,4.9l44.19,102c1.79,4.12-0.11,8.91-4.23,10.7l-23.66,10.25
			c-1.05,0.46-2.15,0.67-3.23,0.67c-3.14,0-6.14-1.83-7.47-4.9l-44.19-102c-1.79-4.12,0.11-8.91,4.23-10.7l23.66-10.25
			C764.55,247.11,765.65,246.89,766.73,246.89 M757.41,271.73c-0.08,0-0.17-0.01-0.26-0.02l-8.35-1.48
			c-0.09-0.02-0.17-0.02-0.26-0.02c-0.68,0-1.29,0.48-1.43,1.17l-0.05,0.25c-0.16,0.77,0.32,1.52,1.09,1.71l8.16,1.98
			c0.94,0.23,1.4,1.29,0.93,2.14l-4.14,7.3c-0.39,0.68-0.16,1.55,0.5,1.96l0.22,0.14c0.24,0.15,0.5,0.22,0.77,0.22
			c0.48,0,0.94-0.23,1.22-0.66l4.64-7.1c0.28-0.43,0.75-0.66,1.22-0.66c0.36,0,0.71,0.13,1,0.4l5.32,4.99c0.28,0.26,0.64,0.4,1,0.4
			c0.35,0,0.71-0.13,0.99-0.39l0.06-0.05c0.59-0.54,0.63-1.45,0.1-2.04l-4.65-5.22c-0.64-0.72-0.42-1.86,0.45-2.28l7.03-3.41
			c0.7-0.34,1.01-1.18,0.7-1.89l-0.06-0.13c-0.24-0.55-0.77-0.88-1.34-0.88c-0.17,0-0.35,0.03-0.52,0.1l-7.29,2.8
			c-0.17,0.07-0.35,0.1-0.52,0.1c-0.73,0-1.38-0.55-1.45-1.33l-0.63-6.96c-0.07-0.76-0.7-1.33-1.45-1.33c-0.04,0-0.07,0-0.11,0
			l-0.08,0.01c-0.76,0.06-1.35,0.69-1.35,1.46l0.01,7.3C758.87,271.08,758.2,271.73,757.41,271.73 M768.17,296.56
			c-0.08,0-0.17-0.01-0.26-0.02l-8.35-1.48c-0.09-0.02-0.17-0.02-0.26-0.02c-0.68,0-1.29,0.48-1.43,1.17l-0.05,0.25
			c-0.16,0.77,0.32,1.52,1.09,1.71l8.16,1.98c0.94,0.23,1.4,1.29,0.93,2.14l-4.14,7.3c-0.39,0.68-0.16,1.55,0.5,1.96l0.22,0.14
			c0.24,0.15,0.5,0.22,0.77,0.22c0.48,0,0.94-0.23,1.22-0.66l4.64-7.1c0.28-0.43,0.75-0.66,1.22-0.66c0.36,0,0.71,0.13,1,0.4
			l5.32,4.99c0.28,0.26,0.64,0.4,1,0.4c0.35,0,0.71-0.13,0.99-0.39l0.06-0.05c0.59-0.54,0.63-1.45,0.1-2.04l-4.65-5.22
			c-0.64-0.72-0.42-1.86,0.45-2.28l7.03-3.41c0.7-0.34,1.01-1.18,0.7-1.89l-0.06-0.13c-0.24-0.55-0.77-0.88-1.34-0.88
			c-0.17,0-0.35,0.03-0.52,0.1l-7.29,2.8c-0.17,0.07-0.35,0.1-0.52,0.1c-0.73,0-1.38-0.55-1.45-1.33l-0.63-6.96
			c-0.07-0.76-0.7-1.33-1.45-1.33c-0.04,0-0.07,0-0.11,0l-0.08,0.01c-0.76,0.06-1.35,0.69-1.35,1.46l0.01,7.3
			C769.63,295.92,768.96,296.56,768.17,296.56 M778.93,321.39c-0.08,0-0.17-0.01-0.26-0.02l-8.35-1.48
			c-0.09-0.02-0.17-0.02-0.26-0.02c-0.68,0-1.29,0.48-1.43,1.17l-0.05,0.25c-0.16,0.77,0.32,1.52,1.09,1.71l8.16,1.98
			c0.94,0.23,1.4,1.29,0.93,2.14l-4.14,7.3c-0.39,0.68-0.16,1.55,0.5,1.96l0.22,0.14c0.24,0.15,0.5,0.22,0.77,0.22
			c0.48,0,0.94-0.23,1.22-0.66l4.64-7.1c0.28-0.43,0.75-0.66,1.22-0.66c0.36,0,0.71,0.13,1,0.4l5.32,4.99c0.28,0.26,0.64,0.4,1,0.4
			c0.35,0,0.71-0.13,0.99-0.39l0.06-0.05c0.59-0.54,0.63-1.45,0.1-2.04l-4.65-5.22c-0.64-0.72-0.42-1.86,0.45-2.28l7.03-3.41
			c0.7-0.34,1.01-1.18,0.7-1.89l-0.06-0.13c-0.24-0.55-0.77-0.88-1.34-0.88c-0.17,0-0.35,0.03-0.52,0.1l-7.29,2.8
			c-0.17,0.07-0.35,0.1-0.52,0.1c-0.73,0-1.38-0.55-1.45-1.33l-0.63-6.96c-0.07-0.76-0.7-1.33-1.45-1.33c-0.04,0-0.07,0-0.11,0
			l-0.08,0.01c-0.76,0.06-1.35,0.69-1.35,1.46l0.01,7.3C780.38,320.75,779.72,321.39,778.93,321.39 M789.69,346.22
			c-0.08,0-0.17-0.01-0.26-0.02l-8.35-1.48c-0.09-0.02-0.17-0.02-0.26-0.02c-0.68,0-1.29,0.48-1.43,1.17l-0.05,0.25
			c-0.16,0.77,0.32,1.52,1.09,1.71l8.16,1.98c0.94,0.23,1.4,1.29,0.93,2.14l-4.14,7.3c-0.39,0.68-0.16,1.55,0.5,1.96l0.22,0.14
			c0.24,0.15,0.5,0.22,0.77,0.22c0.48,0,0.94-0.23,1.22-0.66l4.64-7.1c0.28-0.43,0.75-0.66,1.22-0.66c0.36,0,0.71,0.13,1,0.4
			l5.32,4.99c0.28,0.26,0.64,0.4,1,0.4c0.35,0,0.71-0.13,0.99-0.39l0.06-0.05c0.59-0.54,0.63-1.45,0.1-2.04l-4.65-5.22
			c-0.64-0.72-0.42-1.86,0.45-2.28l7.03-3.41c0.7-0.34,1.01-1.18,0.7-1.89l-0.06-0.13c-0.24-0.55-0.77-0.88-1.34-0.88
			c-0.17,0-0.35,0.03-0.52,0.1l-7.29,2.8c-0.17,0.07-0.35,0.1-0.52,0.1c-0.73,0-1.38-0.55-1.45-1.33l-0.63-6.96
			c-0.07-0.76-0.7-1.33-1.45-1.33c-0.04,0-0.07,0-0.11,0l-0.08,0.01c-0.76,0.06-1.35,0.69-1.35,1.46l0.01,7.3
			C791.14,345.58,790.47,346.22,789.69,346.22 M766.73,239.89c-2.08,0-4.1,0.42-6.01,1.25l-23.66,10.25
			c-3.71,1.61-6.57,4.56-8.06,8.32c-1.49,3.76-1.42,7.87,0.19,11.58l44.19,102c2.4,5.54,7.85,9.12,13.89,9.12
			c2.08,0,4.1-0.42,6.01-1.25l23.66-10.25c7.66-3.32,11.19-12.25,7.87-19.91l-44.19-102C778.22,243.47,772.77,239.89,766.73,239.89
			L766.73,239.89z"/>
		<path class="st0" d="M762.67,279.04l5.32,4.99c0.56,0.52,1.42,0.53,1.99,0.01l0.06-0.05c0.59-0.54,0.63-1.45,0.1-2.04l-4.65-5.22
			c-0.64-0.72-0.42-1.86,0.45-2.28l7.03-3.41c0.7-0.34,1.01-1.18,0.7-1.89l-0.06-0.13c-0.31-0.72-1.13-1.06-1.86-0.78l-7.29,2.8
			c-0.9,0.35-1.89-0.27-1.98-1.23l-0.63-6.96c-0.07-0.79-0.77-1.38-1.56-1.32l-0.08,0.01c-0.76,0.06-1.35,0.69-1.35,1.46l0.01,7.3
			c0,0.91-0.82,1.6-1.71,1.44l-8.35-1.48c-0.78-0.14-1.53,0.37-1.68,1.15l-0.05,0.25c-0.16,0.77,0.32,1.52,1.09,1.71l8.16,1.98
			c0.94,0.23,1.4,1.29,0.93,2.14l-4.14,7.3c-0.39,0.68-0.16,1.55,0.5,1.96l0.22,0.14c0.67,0.42,1.56,0.22,1.99-0.44l4.64-7.1
			C760.94,278.54,762,278.41,762.67,279.04z"/>
		<path class="st0" d="M773.43,303.87l5.32,4.99c0.56,0.52,1.42,0.53,1.99,0.01l0.06-0.05c0.59-0.54,0.63-1.45,0.1-2.04l-4.65-5.22
			c-0.64-0.72-0.42-1.86,0.45-2.28l7.03-3.41c0.7-0.34,1.01-1.18,0.7-1.89l-0.06-0.13c-0.31-0.72-1.13-1.06-1.86-0.78l-7.29,2.8
			c-0.9,0.35-1.89-0.27-1.98-1.23l-0.63-6.96c-0.07-0.79-0.77-1.38-1.56-1.32l-0.08,0.01c-0.76,0.06-1.35,0.69-1.35,1.46l0.01,7.3
			c0,0.91-0.82,1.6-1.71,1.44l-8.35-1.48c-0.78-0.14-1.53,0.37-1.68,1.15l-0.05,0.25c-0.16,0.77,0.32,1.52,1.09,1.71l8.16,1.98
			c0.94,0.23,1.4,1.29,0.93,2.14l-4.14,7.3c-0.39,0.68-0.16,1.55,0.5,1.96l0.22,0.14c0.67,0.42,1.56,0.22,1.99-0.44l4.64-7.1
			C771.7,303.37,772.76,303.25,773.43,303.87z"/>
		<path class="st0" d="M784.18,328.7l5.32,4.99c0.56,0.52,1.42,0.53,1.99,0.01l0.06-0.05c0.59-0.54,0.63-1.45,0.1-2.04l-4.65-5.22
			c-0.64-0.72-0.42-1.86,0.45-2.28l7.03-3.41c0.7-0.34,1.01-1.18,0.7-1.89l-0.06-0.13c-0.31-0.72-1.13-1.06-1.86-0.78l-7.29,2.8
			c-0.9,0.35-1.89-0.27-1.98-1.23l-0.63-6.96c-0.07-0.79-0.77-1.38-1.56-1.32l-0.08,0.01c-0.76,0.06-1.35,0.69-1.35,1.46l0.01,7.3
			c0,0.91-0.82,1.6-1.71,1.44l-8.35-1.48c-0.78-0.14-1.53,0.37-1.68,1.15l-0.05,0.25c-0.16,0.77,0.32,1.52,1.09,1.71l8.16,1.98
			c0.94,0.23,1.4,1.29,0.93,2.14l-4.14,7.3c-0.39,0.68-0.16,1.55,0.5,1.96l0.22,0.14c0.67,0.42,1.56,0.22,1.99-0.44l4.64-7.1
			C782.46,328.2,783.52,328.08,784.18,328.7z"/>
		<path class="st0" d="M805.89,343.5c-0.31-0.72-1.13-1.06-1.86-0.78l-7.29,2.8c-0.9,0.35-1.89-0.27-1.98-1.23l-0.63-6.96
			c-0.07-0.79-0.77-1.38-1.56-1.32l-0.08,0.01c-0.76,0.06-1.35,0.69-1.35,1.46l0.01,7.3c0,0.91-0.82,1.6-1.71,1.44l-8.35-1.48
			c-0.78-0.14-1.53,0.37-1.68,1.15l-0.05,0.25c-0.16,0.77,0.32,1.52,1.09,1.71l8.16,1.98c0.94,0.23,1.4,1.29,0.93,2.14l-4.14,7.3
			c-0.39,0.68-0.16,1.55,0.5,1.96l0.22,0.14c0.67,0.42,1.56,0.22,1.99-0.44l4.64-7.1c0.5-0.76,1.56-0.89,2.22-0.27l5.32,4.99
			c0.56,0.52,1.42,0.53,1.99,0.01l0.06-0.05c0.59-0.54,0.63-1.45,0.1-2.04l-4.65-5.22c-0.64-0.72-0.42-1.86,0.45-2.28l7.03-3.41
			c0.7-0.34,1.01-1.18,0.7-1.89L805.89,343.5z"/>
	</g>
	<g>
		<path class="st0" d="M508.2,407.51H391.8c-14.92,0-27.02,12.1-27.02,27.02v83.08c0,14.92,12.1,27.02,27.02,27.02h116.4
			c14.92,0,27.02-12.1,27.02-27.02v-83.08C535.22,419.61,523.12,407.51,508.2,407.51z M481.59,466.89h-14.93l-5.35,16.84h15.11
			l-2.38,7.71h-15.24l-6.73,20.87h-7.11l6.69-20.87h-13.02l-6.69,20.87h-7.15l6.73-20.87h-14.66l2.43-7.71h14.66l5.44-16.84h-14.93
			l2.52-7.76h14.93l6.65-20.92h7.2L449,459.13h12.98l6.78-20.92h7.11l-6.7,20.92h14.93L481.59,466.89z"/>
		<path class="st0" d="M390.41,402.38h25.63c0-56.39,33.32-52.54,33.32-52.54c41.01,0,34.6,52.54,34.6,52.54h25.63
			c0-87.14-60.23-78.17-60.23-78.17C384,324.21,390.41,402.38,390.41,402.38z"/>
		<g>
			<path class="st0" d="M391.06,382.99c-1.33,11.14-0.65,19.39-0.65,19.39h25.63c0-2.11,0.05-4.13,0.14-6.07h-25.21
				C390.97,396.31,390.53,390.93,391.06,382.99z"/>
			<path class="st0" d="M416.6,396.31c0-2.92,0.09-5.67,0.26-8.27c-0.32,2.58-0.55,5.34-0.68,8.27H416.6z"/>
		</g>
	</g>
	<g>
		<path class="st0" d="M382.02,135.67c1.14,3.07,2.29,6.15,3.43,9.22c0.94,2.53,0.46,3.58-2.09,4.53
			c-16.05,5.97-32.11,11.95-48.16,17.92c-16.01,5.96-32.03,11.92-48.04,17.87c-2.69,1-3.71,0.53-4.71-2.16
			c-8.09-21.73-16.17-43.46-24.26-65.19c-0.51-1.37-0.62-2.32-0.26-3.05c0.23-0.9,1.03-1.5,2.57-2.06
			c11.01-4.02,22.02-8.03,33.02-12.07c0.83-0.31,1.51-0.28,2.31,0.1c3.68,1.76,7.41,3.42,11.08,5.2c1.26,0.61,2.38,0.64,3.69,0.16
			l-0.23,0.08c0.01-0.01,0.03-0.01,0.04-0.01c16.61-6.21,33.22-12.39,49.85-18.55c0.71-0.26,1.5-0.48,2.24-0.43
			c1.32,0.09,1.93,1.06,2.36,2.23c1.7,4.59,3.41,9.17,5.11,13.75l3.51-1.23c0.58-0.2,1.17-0.35,1.78-0.44
			c-1.72-4.63-3.45-9.27-5.17-13.9c-1.91-5.14-6.32-7.13-11.48-5.22c-16.21,6.03-32.42,12.06-48.63,18.11
			c-0.83,0.31-1.49,0.32-2.3-0.07c-3.69-1.74-7.43-3.37-11.1-5.13c-1.35-0.65-2.56-0.66-3.94-0.14
			c-11.45,4.3-22.92,8.55-34.39,12.82c-5.19,1.93-7.24,6.39-5.32,11.57c8.14,21.89,16.28,43.77,24.43,65.66
			c1.91,5.12,6.38,7.17,11.48,5.27c16.09-5.98,32.18-11.97,48.27-17.96c16.09-5.99,32.18-11.97,48.27-17.96
			c5.24-1.95,7.26-6.32,5.32-11.55c-1.18-3.17-2.36-6.33-3.53-9.49c-0.65,0.42-1.35,0.79-2.11,1.06L382.02,135.67z"/>
		<path class="st0" d="M327.38,127.53c-1.23-3.38-4.97-5.12-8.35-3.88c-3.38,1.23-5.12,4.97-3.88,8.35
			c0.79,2.17,2.62,3.66,4.72,4.12l1.15,18.28l8.16-2.98l8.16-2.98l-10.9-14.72C327.74,132.02,328.17,129.7,327.38,127.53z"/>
		<path class="st0" d="M381.83,118.71c0.15,0,0.3-0.03,0.44-0.08c0.69-0.25,1.06-1.01,0.81-1.71c-0.19-0.54-0.7-0.89-1.27-0.89
			c-0.15,0-0.3,0.03-0.44,0.08c-0.23,0.08-0.42,0.22-0.56,0.39c0.27,0.72,0.54,1.45,0.81,2.17
			C381.69,118.69,381.76,118.71,381.83,118.71z"/>
		<path class="st0" d="M391.74,125.82c0.2-2.87,0.12-7.2-1.43-11.53c-1.55-4.33-4.2-7.68-6.16-9.74c-1.92-2.01-4.61-3.15-7.39-3.14
			c-0.51,0-1.02,0.05-1.52,0.13c0.18,0.48,0.36,0.96,0.54,1.44c0.33-0.04,0.66-0.07,0.99-0.07c2.37-0.01,4.67,0.96,6.3,2.67
			c1.86,1.95,4.38,5.13,5.83,9.21c1.46,4.09,1.54,8.2,1.35,10.92c-0.18,2.61-1.55,4.94-3.63,6.4c0.18,0.48,0.36,0.95,0.53,1.43
			C389.77,131.85,391.52,129.02,391.74,125.82z"/>
		<path class="st0" d="M369.96,103.22c0.17,0.47,0.35,0.94,0.52,1.41l3.48-1.22c0.59-0.21,1.2-0.34,1.81-0.42
			c-0.18-0.48-0.36-0.96-0.54-1.44c-0.6,0.1-1.2,0.24-1.78,0.44L369.96,103.22z"/>
		<path class="st0" d="M380.56,117.82c0.17,0.47,0.58,0.78,1.06,0.86c-0.27-0.72-0.54-1.45-0.81-2.17
			C380.51,116.86,380.4,117.36,380.56,117.82z"/>
		<path class="st0" d="M384.55,133.19l-3.04,1.07c0.17,0.47,0.35,0.94,0.52,1.41l3.02-1.06c0.76-0.27,1.45-0.64,2.11-1.06
			c-0.18-0.48-0.36-0.95-0.53-1.43C385.99,132.56,385.3,132.93,384.55,133.19z"/>
		<path class="st0" d="M374.78,136.13C374.78,136.13,374.78,136.13,374.78,136.13c-2.46,0.02-4.81-1.03-6.47-2.87
			c-0.77-0.86-1.49-1.77-2.15-2.71l-0.67-0.32l-0.54,1.13c-0.04,0.13-0.09,0.26-0.15,0.39c-0.38,0.8-1.05,1.4-1.89,1.69
			c-0.33,0.12-0.7,0.19-1.08,0.19c-0.5,0-0.98-0.1-1.42-0.32l-0.44-0.21l-0.02-0.04l-1.03-0.49l-0.73,1.53
			c-0.54,1.13-1.69,1.86-2.94,1.87c-0.5,0-0.98-0.1-1.43-0.32l-1.53-0.73l-0.73,1.53c-0.54,1.13-1.69,1.86-2.94,1.87
			c-0.5,0-0.98-0.1-1.43-0.32l-7.04-3.35c-1.63-0.78-2.32-2.73-1.55-4.36l3.35-7.04c0.38-0.79,1.04-1.38,1.86-1.68l17.57-6.24
			c-0.01-0.56-0.01-1.12,0-1.67c0.09-3.52,2.39-6.67,5.72-7.84l3.36-1.18c-0.17-0.47-0.35-0.94-0.52-1.41l-3.33,1.17
			c-3.91,1.38-6.61,5.08-6.72,9.22c-0.01,0.22-0.01,0.44-0.01,0.66l-16.56,5.88c-1.2,0.43-2.16,1.3-2.71,2.45l-3.35,7.04
			c-0.55,1.15-0.61,2.45-0.19,3.65c0.43,1.2,1.3,2.16,2.45,2.71l7.04,3.35c0.65,0.31,1.37,0.47,2.08,0.46
			c1.82-0.01,3.5-1.08,4.28-2.72l0.08-0.17l0.17,0.08c0.65,0.31,1.37,0.47,2.08,0.46c1.82-0.01,3.5-1.08,4.28-2.72l0.07-0.15
			l0.15,0.07c0.65,0.31,1.36,0.47,2.08,0.46c0.54,0,1.07-0.1,1.59-0.28c1.07-0.37,1.96-1.1,2.53-2.06c0.4,0.51,0.82,1.01,1.25,1.49
			c1.94,2.16,4.7,3.38,7.59,3.36c1.13-0.01,2.24-0.2,3.3-0.58l3.93-1.38c-0.17-0.47-0.35-0.94-0.52-1.41l-3.91,1.37
			C376.68,135.96,375.74,136.12,374.78,136.13z"/>
		<path class="st0" d="M376.77,104.41c1.93-0.01,3.83,0.76,5.2,2.21c1.76,1.84,4.14,4.84,5.51,8.68c1.37,3.84,1.45,7.73,1.27,10.31
			c-0.14,2.02-1.14,3.83-2.68,5.04c0.18,0.49,0.36,0.98,0.55,1.47c2.08-1.46,3.45-3.79,3.63-6.4c0.19-2.73,0.11-6.84-1.35-10.92
			c-1.46-4.08-3.98-7.26-5.83-9.21c-1.63-1.71-3.93-2.69-6.3-2.67c-0.33,0-0.66,0.03-0.99,0.07c0.18,0.49,0.36,0.98,0.55,1.47
			C376.47,104.44,376.62,104.41,376.77,104.41z"/>
		<path class="st0" d="M384.49,116.43c-0.41-1.17-1.52-1.9-2.69-1.89c-0.31,0-0.62,0.05-0.93,0.16c-0.22,0.08-0.43,0.19-0.62,0.32
			c0.18,0.5,0.37,0.99,0.55,1.49c0.15-0.17,0.34-0.31,0.56-0.39c0.14-0.05,0.29-0.08,0.44-0.08c0.57,0,1.08,0.35,1.27,0.89
			c0.25,0.69-0.12,1.46-0.81,1.71c-0.14,0.05-0.29,0.08-0.44,0.08c-0.07,0-0.14-0.02-0.21-0.03c0.19,0.5,0.37,1,0.56,1.5
			c0.2-0.03,0.4-0.06,0.59-0.13C384.25,119.52,385.02,117.9,384.49,116.43z"/>
		<path class="st0" d="M380.56,117.82c-0.17-0.47-0.05-0.96,0.25-1.31c-0.18-0.5-0.37-0.99-0.55-1.49c-1.06,0.7-1.55,2.05-1.11,3.3
			c0.41,1.17,1.52,1.9,2.69,1.89c0.11,0,0.22-0.02,0.34-0.03c-0.19-0.5-0.37-1-0.56-1.5C381.14,118.6,380.73,118.29,380.56,117.82z"
			/>
		<path class="st0" d="M384.05,131.78l-3.07,1.08c0.17,0.47,0.35,0.94,0.52,1.41l3.04-1.07c0.75-0.26,1.44-0.63,2.07-1.08
			c-0.18-0.49-0.36-0.98-0.55-1.47C385.47,131.12,384.8,131.51,384.05,131.78z"/>
		<path class="st0" d="M370.48,104.62c0.17,0.47,0.35,0.94,0.52,1.41l3.46-1.21c0.61-0.21,1.24-0.32,1.86-0.36
			c-0.18-0.49-0.36-0.98-0.55-1.47c-0.62,0.08-1.22,0.21-1.81,0.42L370.48,104.62z"/>
		<path class="st0" d="M377.1,134.22c-0.76,0.27-1.55,0.4-2.32,0.41c-2,0.01-3.95-0.82-5.34-2.37c-0.82-0.91-1.58-1.88-2.26-2.89
			l-2.39-1.14l-1.23,2.58c-0.03,0.1-0.06,0.19-0.1,0.28c-0.21,0.45-0.59,0.77-1.03,0.91c-0.19,0.07-0.4,0.11-0.6,0.11
			c-0.26,0-0.52-0.05-0.77-0.17l-0.02-0.04l-2.82-1.34l-1.37,2.88c-0.3,0.63-0.93,1.01-1.59,1.01c-0.26,0-0.52-0.05-0.77-0.17
			l-2.88-1.37l-1.37,2.88c-0.3,0.63-0.93,1.01-1.59,1.01c-0.26,0-0.52-0.05-0.77-0.17l-7.04-3.35c-0.88-0.42-1.26-1.48-0.84-2.36
			l3.35-7.04c0.2-0.42,0.56-0.75,1.01-0.91l18.61-6.6c-0.05-0.88-0.06-1.78-0.04-2.68c0.08-2.9,1.97-5.5,4.72-6.46l3.38-1.19
			c-0.17-0.47-0.35-0.94-0.52-1.41l-3.36,1.18c-3.33,1.17-5.63,4.32-5.72,7.84c-0.02,0.56-0.02,1.12,0,1.67l-17.57,6.24
			c-0.82,0.29-1.48,0.89-1.86,1.68l-3.35,7.04c-0.78,1.63-0.08,3.59,1.55,4.36l7.04,3.35c0.45,0.21,0.93,0.32,1.43,0.32
			c1.25-0.01,2.4-0.74,2.94-1.87l0.73-1.53l1.53,0.73c0.45,0.21,0.93,0.32,1.43,0.32c1.25-0.01,2.4-0.74,2.94-1.87l0.73-1.53
			l1.03,0.49l0.02,0.04l0.44,0.21c0.45,0.21,0.93,0.32,1.42,0.32c0.38,0,0.75-0.07,1.08-0.19c0.84-0.29,1.51-0.89,1.89-1.69
			c0.06-0.13,0.11-0.26,0.15-0.39l0.54-1.13l0.67,0.32c0.66,0.94,1.38,1.85,2.15,2.71c1.65,1.84,4.01,2.88,6.46,2.87c0,0,0,0,0,0
			c0.96-0.01,1.9-0.17,2.81-0.49l3.91-1.37c-0.17-0.47-0.35-0.94-0.52-1.41L377.1,134.22z"/>
	</g>
	<g>
		<path class="st0" d="M623.68,729.95c3.23,0,6.28,1.93,7.56,5.11l9.58,23.94c1.67,4.17-0.36,8.91-4.53,10.58l-103.21,41.3
			c-0.99,0.4-2.01,0.58-3.02,0.58c-3.23,0-6.28-1.93-7.56-5.11l-9.58-23.94c-1.67-4.17,0.36-8.91,4.53-10.58l103.21-41.3
			C621.65,730.14,622.67,729.95,623.68,729.95 M623.68,722.95L623.68,722.95c-1.93,0-3.82,0.37-5.62,1.09l-103.21,41.3
			c-7.75,3.1-11.53,11.93-8.43,19.68l9.58,23.94c2.31,5.78,7.83,9.51,14.05,9.51c1.93,0,3.82-0.37,5.62-1.09l103.21-41.3
			c7.75-3.1,11.53-11.93,8.43-19.68l-9.58-23.94C635.42,726.68,629.91,722.95,623.68,722.95L623.68,722.95z"/>
		<g>
			<g>
				<path class="st0" d="M628.78,761.27l-4.7,1.85l-1.42-3.61l-1.95-7.61l2.91-1.14l3.74,6.9L628.78,761.27z M623.91,749.37
					l-4.39,1.73l-1.53-3.88l4.39-1.73L623.91,749.37z"/>
				<path class="st0" d="M620.15,760.18c0.29,0.73,0.4,1.5,0.34,2.29c-0.06,0.79-0.35,1.49-0.87,2.11c-0.52,0.62-1.23,1.1-2.13,1.46
					c-1.33,0.52-2.52,0.55-3.58,0.1c-1.06-0.46-1.84-1.31-2.34-2.58c-0.5-1.27-0.52-2.43-0.05-3.49c0.47-1.06,1.36-1.85,2.69-2.37
					c0.9-0.35,1.75-0.48,2.55-0.39c0.8,0.1,1.49,0.41,2.07,0.95C619.42,758.79,619.85,759.43,620.15,760.18z M617.1,761.35
					c-0.35-0.89-0.75-1.49-1.2-1.78c-0.29-0.19-0.62-0.22-0.98-0.08c-0.36,0.14-0.58,0.38-0.65,0.72c-0.13,0.52-0.02,1.22,0.33,2.12
					c0.35,0.89,0.75,1.48,1.2,1.78c0.28,0.19,0.6,0.21,0.96,0.07c0.36-0.14,0.58-0.38,0.67-0.71
					C617.56,762.95,617.45,762.24,617.1,761.35z M608.33,769.63l-2.28,0.9l2.49-20.53l2.26-0.89L608.33,769.63z M605.35,756.1
					c0.29,0.74,0.41,1.5,0.35,2.29c-0.06,0.78-0.35,1.49-0.87,2.11c-0.52,0.62-1.23,1.11-2.12,1.46c-1.33,0.52-2.53,0.56-3.59,0.1
					c-1.06-0.46-1.84-1.32-2.34-2.58c-0.5-1.26-0.51-2.42-0.05-3.48c0.46-1.06,1.36-1.85,2.7-2.38c0.89-0.35,1.74-0.48,2.55-0.38
					c0.8,0.1,1.49,0.42,2.07,0.95C604.62,754.72,605.06,755.36,605.35,756.1z M602.3,757.28c-0.35-0.89-0.75-1.49-1.2-1.78
					c-0.28-0.19-0.6-0.21-0.96-0.07s-0.58,0.38-0.67,0.71c-0.13,0.52-0.02,1.22,0.33,2.12c0.35,0.89,0.75,1.49,1.2,1.79
					c0.29,0.19,0.61,0.21,0.97,0.07c0.36-0.14,0.58-0.38,0.65-0.72C602.77,758.87,602.66,758.17,602.3,757.28z"/>
				<path class="st0" d="M594.17,766.43c0.84,0.1,1.5,0.31,2,0.64c0.68,0.45,1.17,1.08,1.49,1.88c0.52,1.33,0.33,2.66-0.59,3.99
					c-0.72,1.03-1.88,1.86-3.48,2.49c-2.12,0.83-3.84,1.05-5.17,0.64c-1.33-0.41-2.24-1.23-2.72-2.45
					c-0.28-0.71-0.34-1.46-0.18-2.24c0.12-0.58,0.42-1.21,0.9-1.9c-1.02-0.07-1.87-0.37-2.56-0.88c-0.69-0.51-1.19-1.18-1.52-2
					c-0.31-0.79-0.42-1.6-0.33-2.44c0.09-0.83,0.33-1.54,0.71-2.12c0.38-0.58,0.93-1.12,1.65-1.61c0.72-0.49,1.53-0.91,2.42-1.26
					c1.68-0.66,3.04-0.97,4.08-0.92c1.04,0.05,1.95,0.37,2.71,0.95c0.77,0.59,1.33,1.36,1.71,2.31c0.37,0.93,0.46,1.8,0.28,2.62
					C595.41,764.96,594.94,765.72,594.17,766.43z M590.97,763.41c-0.28-0.7-0.71-1.19-1.31-1.46c-0.6-0.28-1.17-0.31-1.72-0.09
					c-0.53,0.21-0.91,0.62-1.15,1.23c-0.24,0.61-0.23,1.27,0.05,1.96c0.28,0.7,0.71,1.19,1.31,1.47c0.6,0.28,1.17,0.31,1.73,0.09
					c0.55-0.22,0.94-0.62,1.18-1.21C591.29,764.81,591.26,764.14,590.97,763.41z M593.42,770.32c-0.22-0.55-0.56-0.92-1.03-1.12
					c-0.47-0.2-1-0.19-1.57,0.04c-0.5,0.2-0.85,0.53-1.05,0.99c-0.19,0.46-0.19,0.95,0.02,1.48c0.22,0.55,0.56,0.93,1.03,1.13
					c0.47,0.21,0.97,0.21,1.5,0c0.53-0.21,0.9-0.55,1.1-1.02C593.63,771.35,593.63,770.85,593.42,770.32z"/>
				<path class="st0" d="M579.41,772.24c0.84,0.09,1.5,0.31,2,0.64c0.68,0.45,1.17,1.08,1.49,1.88c0.52,1.33,0.33,2.66-0.59,3.99
					c-0.72,1.03-1.88,1.86-3.48,2.49c-2.12,0.83-3.84,1.05-5.17,0.64c-1.33-0.41-2.24-1.23-2.72-2.45
					c-0.28-0.71-0.34-1.46-0.18-2.24c0.12-0.58,0.42-1.21,0.9-1.9c-1.02-0.07-1.87-0.37-2.56-0.88c-0.69-0.51-1.19-1.18-1.52-2
					c-0.31-0.79-0.42-1.6-0.33-2.44s0.33-1.54,0.71-2.12c0.38-0.58,0.93-1.12,1.65-1.61c0.72-0.49,1.53-0.91,2.42-1.26
					c1.68-0.66,3.04-0.97,4.08-0.92c1.04,0.05,1.95,0.37,2.71,0.95c0.76,0.59,1.33,1.36,1.71,2.31c0.37,0.93,0.46,1.8,0.28,2.62
					C580.64,770.77,580.17,771.53,579.41,772.24z M576.21,769.22c-0.28-0.7-0.71-1.19-1.31-1.46c-0.6-0.28-1.17-0.31-1.72-0.09
					c-0.53,0.21-0.91,0.62-1.15,1.23c-0.24,0.61-0.23,1.27,0.05,1.96c0.28,0.7,0.71,1.19,1.31,1.47c0.6,0.28,1.17,0.31,1.73,0.09
					c0.55-0.22,0.94-0.62,1.18-1.21C576.53,770.62,576.5,769.95,576.21,769.22z M578.66,776.13c-0.22-0.55-0.56-0.92-1.03-1.12
					c-0.47-0.2-1-0.19-1.57,0.04c-0.5,0.2-0.85,0.53-1.05,0.99c-0.19,0.46-0.19,0.95,0.02,1.48c0.22,0.55,0.56,0.93,1.03,1.13
					c0.47,0.21,0.97,0.21,1.5,0c0.53-0.21,0.9-0.55,1.1-1.02C578.87,777.17,578.87,776.67,578.66,776.13z"/>
				<path class="st0" d="M557.24,785.45l-2.01-9.07c-0.04-0.18-0.07-0.32-0.11-0.39c-0.05-0.13-0.13-0.22-0.23-0.26
					c-0.1-0.04-0.22-0.04-0.37,0.02c-0.33,0.13-0.65,0.42-0.95,0.88c-0.45,0.68-0.71,1.5-0.79,2.47c-0.08,0.97,0.11,2.04,0.57,3.2
					c0.75,1.9,1.88,3.19,3.41,3.86c1.52,0.67,3.2,0.65,5.04-0.08c1.35-0.53,2.46-1.34,3.32-2.43c0.86-1.09,1.34-2.36,1.46-3.83
					c0.12-1.47-0.12-2.95-0.71-4.44c-0.91-2.32-2.29-3.9-4.13-4.74c-1.84-0.84-3.8-0.86-5.86-0.04c-1.01,0.4-1.91,0.95-2.71,1.66
					c-0.8,0.71-1.5,1.56-2.09,2.57l-2.22,0.87c0.32-0.93,0.66-1.7,1.04-2.31c0.56-0.89,1.28-1.73,2.17-2.5
					c0.89-0.78,1.94-1.4,3.13-1.87c1.66-0.66,3.31-0.86,4.94-0.61c1.63,0.25,3.1,0.94,4.4,2.07c1.31,1.13,2.3,2.56,2.97,4.27
					c0.71,1.8,0.97,3.59,0.77,5.37s-0.78,3.31-1.75,4.6c-0.97,1.29-2.34,2.28-4.1,2.97c-2.27,0.89-4.4,0.9-6.39,0.02
					c-1.99-0.88-3.43-2.46-4.33-4.74c-0.53-1.35-0.74-2.7-0.63-4.04s0.58-2.55,1.39-3.63c0.63-0.83,1.31-1.39,2.04-1.67
					c0.43-0.17,0.83-0.21,1.18-0.11s0.68,0.34,0.98,0.72c0.3-0.66,0.61-1.16,0.93-1.51c0.32-0.35,0.71-0.61,1.17-0.79
					c0.96-0.38,1.94-0.3,2.95,0.22c1.01,0.53,1.8,1.54,2.39,3.03c0.69,1.76,0.88,3.53,0.55,5.31c-0.33,1.77-1.14,2.92-2.46,3.44
					c-0.51,0.2-1.01,0.26-1.5,0.18c-0.49-0.08-1.04-0.34-1.67-0.78l0.29,1.3L557.24,785.45z M561.65,775.55
					c-0.34-0.86-0.78-1.45-1.34-1.78c-0.41-0.24-0.83-0.28-1.26-0.12c-0.46,0.18-0.8,0.54-1.02,1.08c-0.22,0.54-0.24,1.45-0.06,2.73
					c0.18,1.28,0.46,2.39,0.82,3.33c0.28,0.71,0.64,1.18,1.08,1.42c0.44,0.24,0.88,0.28,1.29,0.11c0.47-0.19,0.82-0.53,1.04-1.03
					c0.29-0.67,0.36-1.58,0.2-2.73C562.25,777.43,561.99,776.42,561.65,775.55z"/>
				<path class="st0" d="M550.84,792.26l-2.25,0.88l-2.47-17.95l2.22-0.88L550.84,792.26z"/>
				<path class="st0" d="M531.22,790.27l-3.74,0.59c-0.07-0.71-0.1-1.28-0.08-1.73c0.02-0.45,0.07-0.99,0.17-1.63l-2.1-0.48
					c-0.25-0.05-0.57-0.1-0.96-0.16l1.29-3.66c0.52,0.06,1.08,0.15,1.66,0.27c0.58,0.12,1.1,0.22,1.55,0.29
					c0.57-0.81,1.18-1.47,1.86-2c0.93-0.73,2.08-1.37,3.42-1.9c2.11-0.83,3.85-1.01,5.23-0.54c1.38,0.47,2.31,1.34,2.8,2.59
					c0.35,0.9,0.39,1.87,0.1,2.91c-0.29,1.04-1.01,2.11-2.17,3.21c0.85,0.47,1.49,0.92,1.91,1.35c0.42,0.43,0.73,0.91,0.94,1.45
					c0.44,1.12,0.38,2.22-0.19,3.28c-0.57,1.06-1.73,1.94-3.47,2.63c-1.78,0.7-3.22,0.87-4.33,0.51c-1.11-0.36-1.85-1.03-2.23-1.99
					c-0.21-0.54-0.29-1.11-0.23-1.71c0.06-0.6,0.21-1.12,0.45-1.57c0.24-0.45,0.7-1.17,1.39-2.15c-1.07-0.47-2.16-0.87-3.26-1.2
					C531.19,789.17,531.19,789.72,531.22,790.27z M537.43,786.6c0.44-0.66,0.7-1.19,0.78-1.57c0.08-0.38,0.05-0.74-0.08-1.08
					c-0.21-0.53-0.62-0.9-1.23-1.14c-0.61-0.23-1.29-0.2-2.01,0.08c-0.79,0.31-1.55,0.96-2.29,1.96
					C533.81,785.21,535.42,785.79,537.43,786.6z M537.38,791.06c-0.45,0.53-0.75,1.04-0.92,1.53s-0.19,0.89-0.06,1.22
					c0.13,0.34,0.38,0.57,0.73,0.71c0.35,0.13,0.75,0.11,1.21-0.07c0.45-0.18,0.76-0.45,0.94-0.82c0.18-0.37,0.2-0.73,0.06-1.08
					C539.15,792.09,538.5,791.6,537.38,791.06z"/>
			</g>
		</g>
	</g>
	<g>
		<g>
			<path class="st0" d="M565.67,84.71c-1.07-2.35-3.84-3.39-6.18-2.32c-2.35,1.07-3.38,3.84-2.32,6.18l5.99,13.17
				c0.53,1.17,1.49,2.02,2.61,2.44c1.12,0.42,2.4,0.41,3.57-0.12c2.35-1.07,3.39-3.84,2.32-6.18L565.67,84.71z"/>
			<path class="st0" d="M646.52,115c-1.07-2.35-3.84-3.39-6.18-2.32l-13.17,5.99c-2.35,1.07-3.38,3.84-2.32,6.18
				c0.53,1.17,1.49,2.02,2.61,2.44s2.4,0.41,3.57-0.12l13.17-5.99C646.55,120.11,647.59,117.34,646.52,115z"/>
			<path class="st0" d="M611.34,83.47c-2.42-0.9-5.11,0.32-6.01,2.73l-5.55,14.81c-0.9,2.42,0.32,5.11,2.73,6.01
				s5.11-0.32,6.01-2.73l5.55-14.81C614.98,87.07,613.76,84.38,611.34,83.47z"/>
		</g>
		<g>
			<path class="st0" d="M659.8,162.04c-6.1-14.49-23.46-48.89-54.59-60.55s-66.82,2.86-80.94,9.77c-3.53,1.73-4.84,6.08-2.87,9.47
				c7.31,12.54,26.52,40.72,57.05,52.16c30.53,11.44,63.53,2.82,77.28-1.83C659.46,169.81,661.33,165.66,659.8,162.04z
				 M601.19,107.8c1.73,0.84,3.52,1.59,5.19,2.55c4.06,2.34,7.36,5.53,9.98,9.41c0.28,0.42,0.47,0.74,0.1,1.29
				c-3.21,4.76-6.38,9.56-9.57,14.34c-0.05,0.07-0.12,0.13-0.34,0.37c-1.88-9.33-3.73-18.53-5.57-27.72
				C601.05,107.95,601.12,107.87,601.19,107.8z M584.21,106.85c4.21-0.94,8.44-0.97,12.67-0.11c0.36,0.07,0.87,0.43,0.93,0.73
				c1.3,6.26,2.55,12.53,3.86,19.02c-8.24-5.79-16.28-11.44-24.44-17.18C579.54,108.16,581.83,107.38,584.21,106.85z M602.12,141.05
				c-2.24,5.98-8.9,9.01-14.88,6.77c-5.98-2.24-9.01-8.9-6.77-14.88c2.24-5.98,8.9-9.01,14.88-6.77
				C601.33,128.4,604.36,135.07,602.12,141.05z M563.72,122.31c2.38-4.51,5.76-8.14,10.01-10.96c0.27-0.18,0.84-0.23,1.08-0.06
				c5.2,3.61,10.38,7.25,15.81,11.07c-9.81,1.71-19.35,3.38-28.89,5.04c-0.08-0.07-0.17-0.13-0.25-0.2
				C562.22,125.57,562.88,123.89,563.72,122.31z M560.82,143.67c-0.94-4.11-1.01-8.23-0.24-12.37c0.05-0.29,0.38-0.72,0.63-0.77
				c6.26-1.12,12.53-2.2,18.79-3.29c0.09-0.02,0.19,0,0.52,0c-5.65,8.04-11.22,15.97-16.88,24.01
				C562.32,148.75,561.42,146.27,560.82,143.67z M575.44,163.56c-3.87-2.25-7.11-5.21-9.67-8.89c-0.18-0.26-0.27-0.83-0.12-1.06
				c3.59-5.17,7.22-10.32,10.84-15.46c0.09-0.12,0.21-0.23,0.43-0.47c1.67,9.59,3.32,19.03,5,28.61
				C579.51,165.65,577.42,164.72,575.44,163.56z M588.91,167.58c-1.07-0.06-2.14-0.19-3.19-0.38c-0.28-0.05-0.68-0.41-0.73-0.68
				c-1.04-5.78-2.05-11.58-3.05-17.37c-0.02-0.09,0.02-0.19,0.05-0.42c7.7,5.12,15.33,10.2,23.12,15.38
				C599.88,166.77,594.55,167.92,588.91,167.58z M617.2,152.71c-2.16,3.73-5.1,6.78-8.62,9.28c-0.41,0.29-0.7,0.41-1.2,0.08
				c-4.85-3.26-9.73-6.48-14.59-9.72c-0.08-0.05-0.13-0.14-0.31-0.34c9.22-1.85,18.31-3.68,27.39-5.5c0.1,0.08,0.19,0.17,0.29,0.25
				C619.18,148.74,618.31,150.8,617.2,152.71z M621.07,142.43c-0.02,0.52-0.21,0.86-0.84,0.99c-5.61,1.1-11.21,2.23-16.81,3.35
				c-0.09,0.02-0.19,0.01-0.55,0.02c5.22-7.85,10.35-15.56,15.56-23.39c1.71,3.5,2.8,7.01,2.96,10.7
				C621.52,136.87,621.2,139.65,621.07,142.43z"/>
		</g>
		<circle class="st0" cx="614.88" cy="131.25" r="11.56"/>
	</g>
	<g>
		<g>
			<path class="st0" d="M57.22,547.89c-1.9-3.87-0.3-8.55,3.57-10.46l64.96-31.89c3.87-1.9,8.55-0.3,10.45,3.57l50.87,103.61
				c1.9,3.87,0.3,8.55-3.57,10.45l-64.96,31.89c-3.87,1.9-8.55,0.3-10.45-3.57L57.22,547.89 M53.11,549.91l50.87,103.61
				c3.01,6.13,10.45,8.67,16.59,5.66l64.96-31.89c6.13-3.01,8.67-10.45,5.66-16.59l-50.87-103.61c-3.01-6.13-10.45-8.67-16.59-5.66
				l-64.96,31.89C52.64,536.34,50.1,543.78,53.11,549.91L53.11,549.91z"/>
		</g>
		<g>
			<path class="st0" d="M128.05,605.44"/>
			<path class="st0" d="M94.61,562.38"/>
			<path class="st0" d="M105.41,559.33"/>
			<g>
				<path class="st0" d="M132.26,576.45c0.15,0.3,0.16,0.66,0.01,0.99l-2.94,6.37c-0.27,0.58-0.95,0.83-1.53,0.56
					c-0.58-0.27-0.83-0.95-0.56-1.53l2.46-5.33l-8.87-4.1c-0.58-0.27-0.83-0.95-0.56-1.53s0.95-0.83,1.53-0.56l9.91,4.58
					C131.96,576.03,132.15,576.22,132.26,576.45z"/>
			</g>
		</g>
		<line class="st0" x1="126.05" y1="651.39" x2="68.3" y2="533.75"/>
		<path class="st0" d="M64.64,546.69l-3.6-1.23c-0.47-0.16-0.98,0.09-1.14,0.56c-0.16,0.47,0.09,0.98,0.56,1.14l3.6,1.23l-1.23,3.6
			c-0.16,0.47,0.09,0.98,0.56,1.14c0.47,0.16,0.98-0.09,1.14-0.56l1.23-3.6l3.6,1.23c0.47,0.16,0.98-0.09,1.14-0.56
			c0.08-0.24,0.06-0.48-0.04-0.69c-0.1-0.21-0.28-0.38-0.52-0.46l-3.6-1.23l1.23-3.6c0.08-0.24,0.06-0.48-0.04-0.69
			s-0.28-0.38-0.52-0.46c-0.47-0.16-0.98,0.09-1.14,0.56L64.64,546.69z"/>
		<g>
			<line class="st0" x1="75.66" y1="561.01" x2="72.82" y2="555.23"/>
			<path class="st0" d="M73.7,554.8l2.84,5.78c0.24,0.49,0.04,1.07-0.45,1.31c-0.49,0.24-1.07,0.04-1.31-0.45l-2.84-5.78
				c-0.24-0.49-0.04-1.07,0.45-1.31C72.87,554.11,73.46,554.31,73.7,554.8z"/>
		</g>
		<g>
			<g>
				<path class="st0" d="M126.87,566.73c-0.6-0.12-1.09-0.51-1.36-1.05c-0.07-0.14-0.12-0.3-0.16-0.45l-1.03-4.8
					c-0.81,0.19-1.61,0.46-2.38,0.83l-13.43,6.59c-0.79,0.39-1.21,1.27-1.01,2.13l1.4,5.98c0.71,3.01,1.75,5.93,3.11,8.69
					c1.36,2.76,3.02,5.37,4.98,7.78l3.87,4.77c0.56,0.69,1.51,0.9,2.31,0.51l13.37-6.56c2.83-1.39,4.93-3.94,5.75-6.98l4.1-15.18
					c0.12-0.46,0.07-0.93-0.13-1.33c-0.2-0.41-0.54-0.74-0.99-0.92l-11.68-4.71l-5.07,4.28
					C128.07,566.7,127.47,566.86,126.87,566.73z"/>
				<path class="st0" d="M148.45,566.6c-0.47-0.96-1.27-1.7-2.26-2.1l-10.5-4.23l-2.09,1.76l11.68,4.71
					c0.45,0.18,0.79,0.52,0.99,0.92c0.2,0.4,0.25,0.87,0.13,1.33l-4.1,15.18c-0.82,3.05-2.92,5.59-5.75,6.98l-13.37,6.56
					c-0.79,0.39-1.75,0.18-2.31-0.51l-3.87-4.77c-1.95-2.4-3.62-5.01-4.98-7.78c-1.36-2.76-2.4-5.68-3.11-8.69l-1.4-5.98
					c-0.2-0.86,0.22-1.74,1.01-2.13l13.43-6.59c0.76-0.37,1.56-0.65,2.38-0.83l-0.51-2.36c-1.01,0.23-1.99,0.56-2.93,1.02
					l-13.43,6.59c-1.81,0.89-2.76,2.89-2.3,4.86l1.4,5.98c0.75,3.18,1.85,6.27,3.29,9.21s3.21,5.7,5.27,8.23l3.87,4.77
					c1.27,1.57,3.43,2.04,5.25,1.15l13.37-6.56c3.46-1.7,6.02-4.8,7.02-8.52l4.1-15.18C149.01,568.61,148.91,567.54,148.45,566.6z"
					/>
			</g>
			<path class="st0" d="M126.69,565.1c-0.02-0.05-0.04-0.1-0.05-0.15l-4.01-18.68c-0.11-0.49,0.37-0.91,0.84-0.75l4.79,1.64
				c0.34,0.12,0.71-0.07,0.82-0.4l3.28-9.6c0.12-0.34,0.48-0.52,0.82-0.4l3.18,1.09l0.22,0.07l3.18,1.09
				c0.17,0.06,0.3,0.18,0.37,0.33c0.07,0.15,0.09,0.33,0.03,0.5l-3.28,9.6c-0.06,0.17-0.04,0.35,0.03,0.5
				c0.07,0.15,0.2,0.27,0.37,0.33l4.79,1.64c0.17,0.06,0.3,0.18,0.37,0.33c0.12,0.25,0.08,0.58-0.16,0.78l-14.6,12.33
				C127.36,565.59,126.87,565.47,126.69,565.1 M124.34,566.26c0.45,0.91,1.27,1.55,2.26,1.75c0.99,0.21,2-0.05,2.78-0.7l14.6-12.33
				c1.15-0.97,1.49-2.59,0.82-3.94c-0.38-0.78-1.05-1.37-1.88-1.65l-2.93-1l2.64-7.73c0.28-0.83,0.23-1.71-0.16-2.49
				c-0.38-0.78-1.05-1.37-1.88-1.65l-3.18-1.09l-0.22-0.07l-3.18-1.09c-1.7-0.58-3.56,0.33-4.15,2.03l-2.64,7.73l-2.93-1
				c-1.11-0.38-2.35-0.13-3.22,0.65s-1.27,1.98-1.02,3.13l4.01,18.68C124.14,565.76,124.22,566.02,124.34,566.26L124.34,566.26z"/>
		</g>
	</g>
	<g>
		<path class="st0" d="M761.83,553.72c-10.98-2.29-18.06-13.08-15.77-24.06c2.29-10.98,13.08-18.06,24.06-15.77
			c10.98,2.29,18.06,13.08,15.77,24.06c-0.62,2.97-1.88,5.64-3.58,7.94l1.59,1.57c1.98-2.59,3.43-5.66,4.14-9.06
			c2.53-12.17-5.31-24.13-17.48-26.66s-24.13,5.31-26.66,17.48c-2.53,12.17,5.31,24.13,17.48,26.66c7.23,1.5,14.38-0.65,19.53-5.2
			l-1.58-1.57C774.69,553.15,768.3,555.07,761.83,553.72z"/>
		<path class="st0" d="M780.21,546.89L780.21,546.89L780.21,546.89l1.55-1.56l0.57,0.56c1.7-2.29,2.96-4.96,3.58-7.94
			c2.29-10.98-4.79-21.78-15.77-24.06c-10.98-2.29-21.78,4.79-24.06,15.77c-2.29,10.98,4.79,21.78,15.77,24.06
			c6.47,1.35,12.86-0.57,17.5-4.61l-0.67-0.66L780.21,546.89z M762.28,551.57c-9.81-2.04-16.11-11.65-14.07-21.46
			c2.04-9.81,11.65-16.11,21.46-14.07c9.81,2.04,16.11,11.65,14.07,21.46C781.7,547.31,772.09,553.61,762.28,551.57z"/>
		<path class="st0" d="M816.83,547.44c-9.58-1.99-19.05,0.94-25.79,7.07l0.22,0.22l-3.09,3.13l-0.15-0.15
			c-2.88,3.53-4.98,7.78-5.97,12.55c-0.8,3.84-0.8,7.67-0.13,11.31l1.42-0.56l0.81,2.04l0,0l0,0l0.81,2.04l-1.91,0.76
			c3.28,9.46,11.31,17.02,21.8,19.2c15.88,3.3,31.49-6.93,34.79-22.81C842.94,566.35,832.71,550.74,816.83,547.44z M837.48,581.78
			c-3.06,14.69-17.5,24.16-32.19,21.1c-14.69-3.06-24.16-17.5-21.1-32.19c3.06-14.69,17.5-24.16,32.19-21.1
			C831.07,552.64,840.54,567.09,837.48,581.78z"/>
		<path class="st0" d="M816.38,549.59c-14.69-3.06-29.13,6.41-32.19,21.1c-3.06,14.69,6.41,29.13,21.1,32.19
			c14.69,3.06,29.13-6.41,32.19-21.1C840.54,567.09,831.07,552.64,816.38,549.59z M835.33,581.33
			c-2.81,13.53-16.06,22.21-29.59,19.4c-13.53-2.81-22.21-16.06-19.4-29.59c2.81-13.53,16.06-22.21,29.59-19.4
			S838.14,567.8,835.33,581.33z"/>
		<path class="st0" d="M770.95,602.18c-3.55,17.08-20.34,28.08-37.42,24.53c-17.08-3.55-28.08-20.34-24.53-37.42
			c3.55-17.08,20.34-28.08,37.42-24.53c11.58,2.41,20.37,10.91,23.71,21.46l2.05-0.81c-3.62-11.21-12.98-20.23-25.31-22.8
			c-18.27-3.8-36.22,7.97-40.02,26.23c-3.8,18.27,7.97,36.22,26.23,40.02c18.26,3.8,36.22-7.97,40.02-26.23
			c0.91-4.39,0.92-8.76,0.16-12.92l-2.09,0.83C771.8,594.29,771.77,598.23,770.95,602.18z"/>
		<path class="st0" d="M769.04,586.65l1.09-0.43c-3.35-10.55-12.13-19.05-23.71-21.46c-17.08-3.55-33.86,7.45-37.42,24.53
			c-3.55,17.08,7.45,33.86,24.53,37.42c17.08,3.55,33.86-7.45,37.42-24.53c0.82-3.95,0.86-7.88,0.23-11.64l-0.51,0.2L769.04,586.65z
			 M768.8,601.73c-3.31,15.92-18.9,26.14-34.82,22.82c-15.92-3.31-26.14-18.9-22.82-34.82c3.31-15.92,18.9-26.14,34.82-22.82
			C761.89,570.22,772.11,585.81,768.8,601.73z"/>
		<path class="st0" d="M782.49,549.14c-0.5,0.54-1.03,1.05-1.58,1.53l7.1,7.02c0.46-0.57,0.95-1.12,1.45-1.66L782.49,549.14z"/>
		<path class="st0" d="M789.46,556.04c0.51-0.53,1.03-1.04,1.57-1.54l-7.12-7.05c-0.45,0.59-0.92,1.15-1.42,1.69L789.46,556.04z"/>
		<path class="st0" d="M780.91,547.58l1.58,1.56c0.5-0.54,0.97-1.1,1.42-1.69l-1.59-1.57C781.88,546.48,781.41,547.04,780.91,547.58
			z"/>
		<path class="st0" d="M782.49,549.14l-1.58-1.56c-0.5,0.54-1.03,1.05-1.58,1.53l1.58,1.57
			C781.46,550.19,781.99,549.68,782.49,549.14z"/>
		<path class="st0" d="M781.75,545.32l-1.55,1.56l0.7,0.69c0.5-0.54,0.97-1.1,1.41-1.7L781.75,545.32z"/>
		<path class="st0" d="M778.66,548.45l0.67,0.66c0.55-0.48,1.08-0.99,1.58-1.53l-0.7-0.69L778.66,548.45z"/>
		<path class="st0" d="M791.25,554.72l-0.22-0.22c-0.54,0.49-1.07,1-1.57,1.54l0.25,0.24l-0.25-0.24c-0.5,0.53-0.99,1.09-1.45,1.66
			l0.15,0.15L791.25,554.72z"/>
		<path class="st0" d="M772.8,587.53c0.18,0.72,0.33,1.45,0.47,2.18l9.78-3.87c-0.24-0.69-0.45-1.4-0.64-2.11L772.8,587.53z"/>
		<path class="st0" d="M782.4,583.72c-0.19-0.72-0.35-1.44-0.49-2.17l-9.73,3.85c0.23,0.7,0.44,1.4,0.62,2.12L782.4,583.72z"/>
		<path class="st0" d="M784.14,583.03l-1.74,0.69c0.19,0.71,0.4,1.42,0.64,2.11l1.91-0.76L784.14,583.03z"/>
		<path class="st0" d="M784.14,583.03l-0.81-2.04l-1.42,0.56c0.14,0.73,0.3,1.46,0.49,2.17L784.14,583.03z"/>
		<path class="st0" d="M770.73,588.35l2.07-0.82c-0.18-0.72-0.39-1.42-0.62-2.12l-2.05,0.81
			C770.36,586.92,770.56,587.63,770.73,588.35z"/>
		<path class="st0" d="M770.73,588.35c0.17,0.72,0.32,1.45,0.44,2.19l2.09-0.83c-0.13-0.73-0.28-1.46-0.47-2.18L770.73,588.35z"/>
		<path class="st0" d="M769.04,586.65l1.62,4.09l0.51-0.2c-0.12-0.74-0.27-1.47-0.44-2.19l-0.88,0.35l0.88-0.35
			c-0.17-0.72-0.37-1.43-0.6-2.13L769.04,586.65z"/>
		<path class="st0" d="M818.52,571.6l-12.89-2.68c-1.79-0.37-3.32,1.32-2.76,3.06l4.06,12.8c0.56,1.78,2.85,2.25,4.08,0.85
			l8.83-10.11C821.04,574.14,820.31,571.98,818.52,571.6z"/>
		<path class="st0" d="M751.69,586.86l-18.92-3.94c-1.53-0.32-3.02,0.66-3.34,2.19l-3.94,18.92c-0.32,1.53,0.66,3.02,2.19,3.34
			l18.92,3.94c1.53,0.32,3.02-0.66,3.34-2.19l3.94-18.92C754.2,588.67,753.22,587.17,751.69,586.86z M744.64,598.14
			c-0.57,2.73-3.25,4.49-5.98,3.92c-2.74-0.57-4.49-3.25-3.92-5.98c0.57-2.74,3.25-4.49,5.98-3.92
			C743.45,592.73,745.21,595.41,744.64,598.14z"/>
		
			<ellipse transform="matrix(0.9836 -0.1801 0.1801 0.9836 -83.6149 146.7024)" class="st0" cx="766.1" cy="533.83" rx="5.51" ry="5.51"/>
	</g>
	<g>
		<path class="st0" d="M258.88,755.87c2.58,4,5.57,7.68,8.73,11.04c0.8,0.79,2.01,1.95,3.62,3.37c5.09,4.51,14.21,11.73,27.24,18.81
			c0,0,0,0,0,0l0,0l0,0l0,0h0c13.03,7.08,24.05,10.8,30.61,12.61c2.07,0.57,3.7,0.96,4.8,1.2c4.54,0.82,9.26,1.33,14.01,1.31
			c0.92,0,1.6-1.7,0.85-2.11l-11.65-6.33c0.52-0.47,1.04-0.96,1.54-1.46c-2.49-1.24-6.58-3.12-10.89-5.11
			c-5.77-2.66-11.73-5.4-14.44-6.88c-4.29-2.33-6-5.73-6.12-9.26c-3.03,1.82-6.81,2.24-11.1-0.1c-2.71-1.47-8.26-4.98-13.63-8.37
			c-4.01-2.54-7.82-4.94-10.22-6.36c-0.14,0.7-0.27,1.39-0.38,2.09l-11.65-6.33C259.44,753.61,258.38,755.1,258.88,755.87z"/>
		<path class="st0" d="M295.33,794.86C295.33,794.86,295.33,794.86,295.33,794.86L295.33,794.86L295.33,794.86L295.33,794.86
			C295.33,794.86,295.33,794.86,295.33,794.86c-9.78-5.31-17.33-10.64-22.71-14.91c-2.73-2.17-4.89-4.06-6.5-5.55
			c-4.1,18.68-1.13,37.21,4.06,40.03c6.08,3.3,9.86-0.73,14.08,1.35c4.02,2.4,2.26,7.53,8.34,10.83c5.2,2.82,22.35-4.78,35.79-18.38
			c-2.12-0.54-4.89-1.33-8.19-2.43C313.7,803.61,305.11,800.17,295.33,794.86z"/>
		<path class="st0" d="M301.6,734.41c1.98,1,3.97,2.05,5.92,3.11c0.88,0.48,1.78,0.97,2.65,1.46c3.72,2.09,6.31,5.13,7.69,9.05
			c0.43,1.23,0.71,2.5,0.84,3.8c1.16-0.6,2.38-1.06,3.65-1.36c4.04-0.98,8-0.46,11.78,1.53c0.89,0.47,1.79,0.95,2.67,1.43
			c1.95,1.06,3.91,2.16,5.83,3.28c4.43,2.58,7.92,6.27,10.4,10.97c0.11,0.22,0.22,0.45,0.33,0.67c4.71-19.3-2.02-38.83-17.85-47.44
			c-15.84-8.6-35.89-3.61-49.51,10.84c0.25-0.03,0.5-0.07,0.74-0.09C292.03,731.17,297.03,732.1,301.6,734.41z"/>
		<path class="st0" d="M270.68,755.08c0.51,0.28,1.01,0.56,1.49,0.83c0.16,0.09,0.33,0.19,0.51,0.29
			c5.3,3.07,19.55,12.41,24.34,15.02c7.6,4.13,12.29-2.11,14.02-5.29c0.12-0.22,0.25-0.46,0.39-0.7c-0.13,0.25-0.26,0.48-0.38,0.71
			c-1.73,3.18-4.4,10.51,3.2,14.64c4.8,2.61,20.39,9.47,25.85,12.25c0.19,0.09,0.36,0.19,0.52,0.27c0.49,0.25,0.99,0.52,1.51,0.8
			c2.42,1.31,4.94,2.97,5.74,5.68c2.06-3.66,5.06-8.89,5.91-13.17c1.03-5.2,0.63-10.21-1.25-14.99c-0.37-0.94-0.79-1.87-1.27-2.79
			c-2.25-4.28-5.43-7.73-9.63-10.17c-1.23-0.72-2.48-1.42-3.73-2.12c-0.33-0.18-0.66-0.37-1-0.55c-0.35-0.19-0.7-0.39-1.06-0.58
			c-0.88-0.48-1.76-0.95-2.65-1.42c-3.27-1.72-6.74-2.23-10.37-1.35c-2.34,0.57-4.38,1.68-6.2,3.23c0.32-2.37,0.14-4.69-0.66-6.96
			c-1.24-3.52-3.55-6.16-6.78-7.96c-0.87-0.49-1.75-0.97-2.63-1.45c-0.35-0.19-0.71-0.38-1.07-0.57c-0.33-0.18-0.67-0.36-1-0.54
			c-1.26-0.67-2.53-1.33-3.8-1.97c-4.33-2.19-8.96-2.98-13.77-2.54c-1.04,0.1-2.05,0.25-3.03,0.45c-5.04,1.02-9.46,3.41-13.26,7.11
			c-3.13,3.05-5.88,8.41-7.83,12.13C265.51,752.55,268.26,753.76,270.68,755.08z M323.53,761.3c2.23-1.51,4.66-1.89,7.08-0.68
			c0.98,0.49,1.97,0.98,2.94,1.51c1.4,0.76,2.75,1.59,3.94,2.6c5.09,4.33,6.14,11.11,3.01,17.11c-0.38,0.73-0.78,1.45-1.24,2.3
			c-1.58-1.18-3.23-2.19-4.92-3.1c-0.49-0.26-0.98-0.52-1.47-0.77c-0.49-0.25-1.14-0.6-1.88-1c-3.1-1.69-7.88-4.39-9.98-5.53
			c-2.6-1.41-1.91-5.21-0.83-7.8C320.93,764.14,321.84,762.43,323.53,761.3z M281.68,749.89c3.33-5.9,9.59-8.7,15.99-6.79
			c1.49,0.45,2.93,1.13,4.33,1.89c0.97,0.53,1.92,1.09,2.87,1.65c2.33,1.36,3.33,3.61,3.28,6.3c-0.04,2.03-0.97,3.73-2.07,5.33
			c-1.58,2.31-4.39,4.97-6.99,3.55c-2.1-1.14-6.97-3.67-10.08-5.36c-0.74-0.4-1.38-0.76-1.86-1.03c-0.48-0.28-0.96-0.55-1.45-0.81
			c-1.68-0.91-3.43-1.75-5.28-2.44C280.89,751.34,281.28,750.61,281.68,749.89z"/>
	</g>
</g>
</svg>
