<svg id="ee293888-4fe6-4878-a1bc-8655c3a065c1" data-name="Capa 1" xmlns="http://www.w3.org/2000/svg" viewBox="0 0 14.37 14.5"><defs><style>.f8f4e640-2e32-4895-bab8-224e4545c50c{fill:#fff;}</style></defs><path class="f8f4e640-2e32-4895-bab8-224e4545c50c" d="M13.69,7.06a10.18,10.18,0,0,1-2.15-1,9.87,9.87,0,0,1-1.8-1.42A9.61,9.61,0,0,1,8.49,3.14,9.74,9.74,0,0,1,7.36.77a9.83,9.83,0,0,1-1,2.11A10.45,10.45,0,0,1,5,4.69,10,10,0,0,1,3.11,6.13,10,10,0,0,1,1,7.06,9.13,9.13,0,0,1,3.12,8,9.69,9.69,0,0,1,5,9.5a9.66,9.66,0,0,1,1.29,1.62,9.76,9.76,0,0,1,1,2.22A9.67,9.67,0,0,1,8.5,11a9.94,9.94,0,0,1,1.61-1.87A9.43,9.43,0,0,1,11.94,7.8,9.67,9.67,0,0,1,13.69,7.06Z"/></svg>