<?xml version="1.0" encoding="utf-8"?>
<!-- Generator: Adobe Illustrator 24.1.3, SVG Export Plug-In . SVG Version: 6.00 Build 0)  -->
<svg version="1.1" id="Capa_1" xmlns="http://www.w3.org/2000/svg" xmlns:xlink="http://www.w3.org/1999/xlink" x="0px" y="0px"
	 viewBox="0 0 248 248" style="enable-background:new 0 0 248 248;" xml:space="preserve">
<style type="text/css">
	.st0{fill:#707053;}
	.st1{fill:#ECEDC8;}
	.st2{fill:#FFFFFF;stroke:#000000;stroke-miterlimit:10;}
	.st3{fill:#717FC6;}
	.st4{fill:none;stroke:#FFE200;stroke-width:6;stroke-miterlimit:10;}
	.st5{fill:#FFE200;}
	.st6{opacity:0.3;}
	.st7{opacity:9.000000e-02;}
	.st8{fill:#FFFFFF;}
</style>
<g>
	<g>
		<path class="st0" d="M208.9,228.2H107.4c-3.9,0-7.1-3.2-7.1-7.1V53.8c0-3.9,3.2-7.1,7.1-7.1h101.5c3.9,0,7.1,3.2,7.1,7.1v167.3
			C216,225,212.8,228.2,208.9,228.2z"/>
		<path class="st1" d="M208,227.4H106.5c-3.9,0-7.1-3.2-7.1-7.1V53.8c0-3.9,3.2-7.1,7.1-7.1H208c3.9,0,7.1,3.2,7.1,7.1v166.6
			C215.1,224.2,211.9,227.4,208,227.4z"/>
		<path class="st2" d="M202.7,222h-90.8c-3.9,0-7.1-3.2-7.1-7.1V59.1c0-3.9,3.2-7.1,7.1-7.1h90.8c3.9,0,7.1,3.2,7.1,7.1V215
			C209.7,218.9,206.6,222,202.7,222z"/>
		<path class="st3" d="M202.7,222h-90.8c-3.9,0-7.1-3.2-7.1-7.1V59.1c0-3.9,3.2-7.1,7.1-7.1h90.8c3.9,0,7.1,3.2,7.1,7.1V215
			C209.7,218.9,206.6,222,202.7,222z"/>
		<path class="st1" d="M202.7,222h-90.8c-3.9,0-7.1-3.2-7.1-7.1v-15.6h105V215C209.7,218.9,206.6,222,202.7,222z"/>
		<g>
			<defs>
				<path id="SVGID_1_" d="M202.7,222h-90.8c-3.9,0-7.1-3.2-7.1-7.1V59.1c0-3.9,3.2-7.1,7.1-7.1h90.8c3.9,0,7.1,3.2,7.1,7.1V215
					C209.7,218.9,206.6,222,202.7,222z"/>
			</defs>
			<clipPath id="SVGID_2_">
				<use xlink:href="#SVGID_1_"  style="overflow:visible;"/>
			</clipPath>
		</g>
		<path class="st4" d="M202.7,222h-90.8c-3.9,0-7.1-3.2-7.1-7.1V59.1c0-3.9,3.2-7.1,7.1-7.1h90.8c3.9,0,7.1,3.2,7.1,7.1V215
			C209.7,218.9,206.6,222,202.7,222z"/>
		<g>
			<path class="st5" d="M195.7,138.1c1.4,1.5,1.2,3.8-0.3,5.1c-5.8,4.7-20.1,14.8-36.9,14.8s-31.1-10.1-36.9-14.8
				c-1.6-1.3-1.7-3.6-0.3-5.1c5.6-5.9,20.1-19.3,37.2-19.3S190.1,132.2,195.7,138.1z"/>
			<circle class="st3" cx="158.1" cy="138.4" r="15.7"/>
			<circle class="st6" cx="158.1" cy="138.4" r="5.9"/>
			<path class="st7" d="M195.9,138.4c1.3,1.3,1.1,3.5-0.3,4.6c-5.6,4.6-20.1,15-37.2,15s-31.5-10.4-37.2-15
				c-1.4-1.2-1.6-3.3-0.3-4.6c0,0,0,0,0,0c9.6,5.1,17.2,12.4,37.4,12.4s26.5-7.4,36.4-13.4C195.2,137.6,195.6,138,195.9,138.4z"/>
			<g>
				<path class="st5" d="M136.4,117.9c-0.9-0.9-2.5-0.9-3.4,0c-0.9,0.9-0.9,2.5,0,3.4l5.3,5.3c0.5,0.5,1.1,0.7,1.7,0.7
					c0.6,0,1.2-0.2,1.7-0.7c0.9-0.9,0.9-2.5,0-3.4L136.4,117.9z"/>
				<path class="st5" d="M180.8,117.9c-0.9-0.9-2.5-0.9-3.4,0l-5.3,5.3c-0.9,0.9-0.9,2.5,0,3.4c0.5,0.5,1.1,0.7,1.7,0.7
					s1.2-0.2,1.7-0.7l5.3-5.3C181.7,120.3,181.7,118.8,180.8,117.9z"/>
				<path class="st5" d="M158.1,109c-1.3,0-2.4,1.1-2.4,2.4v8.1c0,1.3,1.1,2.4,2.4,2.4s2.4-1.1,2.4-2.4v-8.1
					C160.5,110.1,159.5,109,158.1,109z"/>
			</g>
			<circle class="st8" cx="169.1" cy="131.3" r="5.9"/>
		</g>
		<path class="st7" d="M208.3,228.2l-101.8-0.3c-3.9,0-7.1-3.7-7.1-7.6c0,0,87.6-26.4,108.6-173.6c4.3,0,8,3.2,8,7.1v166.6
			C216,225.2,214.2,228.2,208.3,228.2z"/>
		<g>
			<path class="st3" d="M119.6,213.7c-0.2,0-0.3,0-0.4,0c-0.4-0.1-0.7-0.2-1.1-0.4c-0.5-0.3-0.9-0.6-1.2-1.1
				c-0.2-0.3-0.3-0.7-0.4-1.1c0-0.2,0-0.4,0-0.7c0-0.2,0-0.3,0-0.4c0-0.3,0.2-1,0.3-1.2c0.2-0.6,0.6-1.1,1-1.5
				c0.3-0.3,0.4-0.4,0.8-0.5c0.4-0.2,0.7-0.3,1.2-0.3l0.3,0c0.5,0,0.8,0.1,1.2,0.3c0.1,0.1,0.5,0.4,0.6,0.6c0.1,0.1,0.3,0.4,0.4,0.8
				c0.1,0.3,0.2,0.6,0.2,0.9c0,0.1,0,0.2,0,0.4c-0.1,0.8-0.2,1.2-0.5,1.6c-0.2,0.2-0.3,0.3-0.5,0.4c-0.2,0.1-0.3,0.1-0.5,0.1
				c-0.4,0-0.7-0.2-0.9-0.5c-0.1-0.1-0.1-0.1-0.1-0.1c0,0,0,0.1-0.1,0.1c-0.2,0.3-0.5,0.5-0.8,0.5c-0.2,0-0.5-0.1-0.6-0.3
				c-0.1-0.1-0.2-0.3-0.3-0.4c0-0.1-0.1-0.3-0.1-0.4c0-0.2,0.1-0.4,0.2-0.7c0.2-0.4,0.4-0.6,0.8-0.7c0.2-0.1,0.4-0.1,0.5-0.1
				c0.3,0,0.5,0.1,0.6,0.3l0.1,0.2c0.1,0.1,0.1,0.2,0.2,0.4c0.1,0.4,0.2,0.5,0.3,0.6c0.1,0.1,0.1,0.1,0.2,0.1c0.1,0,0.1,0,0.2-0.1
				c0.2-0.2,0.3-0.7,0.3-1.1v-0.1c0-0.2-0.1-0.5-0.2-0.7c-0.1-0.2-0.4-0.5-0.6-0.6c-0.1-0.1-0.2-0.1-0.4-0.1l-0.3,0
				c-0.6,0-1,0.1-1.3,0.3c-0.2,0.1-0.2,0.1-0.4,0.3c-0.3,0.3-0.4,0.5-0.6,1c-0.1,0.4-0.2,0.7-0.2,1.1c0,0.3,0,0.5,0.1,0.8
				c0.1,0.1,0.1,0.2,0.3,0.4c0.4,0.4,0.6,0.5,1.2,0.6c0.3,0.1,0.4,0.1,0.6,0.1l0.2,0c0.3,0,0.5-0.1,0.7-0.2c0.2-0.1,0.5-0.2,0.6-0.2
				l0,0c0.1,0,0.3,0.1,0.3,0.1c0.1,0.1,0.1,0.2,0.1,0.3c0,0.3-0.3,0.7-0.9,1c-0.2,0.1-0.3,0.2-0.7,0.2c-0.2,0-0.2,0.1-0.6,0.1H119.6
				z M119.2,210.4c0.1-0.1,0.4-0.6,0.4-0.7v0h0c0,0-0.1,0-0.2,0c-0.3,0.1-0.4,0.3-0.4,0.5C119,210.4,119.1,210.5,119.2,210.4
				C119.1,210.5,119.1,210.5,119.2,210.4z"/>
			<path class="st3" d="M128.2,213.9c-0.7-0.1-1-0.3-1.5-0.8c-0.3-0.3-0.3-0.3-0.4-0.5c-0.1-0.2-0.2-0.4-0.2-0.7l0-0.1
				c0-0.4,0.2-0.7,0.5-0.7l0.1,0c0,0,0.1,0,0.1,0c0.1,0.1,0.1,0.1,0.1,0.3v0.1c0,0.3,0.1,0.5,0.4,0.8c0.3,0.3,0.6,0.4,0.9,0.4l0.1,0
				c0.1,0,0.1,0,0.2-0.1c0.2-0.1,0.3-0.2,0.4-0.2c0-0.1,0.1-0.2,0.1-0.3c0-0.2-0.1-0.5-0.3-0.8c-0.1-0.2-0.4-0.5-0.8-0.9
				c-0.4-0.4-0.9-1-1.1-1.4c-0.5-0.8-0.8-1.7-0.8-2.5c0-0.3,0-0.5,0.1-0.8c0.1-0.5,0.4-1.1,0.8-1.4c0.2-0.2,0.6-0.4,0.8-0.4
				c0.2-0.1,0.5-0.1,0.7-0.1h0.1c0.5,0,0.9,0.3,1.2,0.6c0.2,0.2,0.2,0.3,0.3,0.5c0,0.1,0,0.3,0,0.4c0,0.4-0.1,0.8-0.3,1.2
				c-0.1,0.3-0.3,0.5-0.5,0.7c-0.2,0.2-0.3,0.3-0.5,0.3h0c-0.1,0-0.1,0-0.1-0.1c0,0-0.1-0.1-0.1-0.1c0-0.1,0.1-0.1,0.2-0.3
				c0.3-0.4,0.5-0.8,0.5-1.2l0-0.2c0-0.1,0-0.1,0-0.2c-0.1-0.3-0.1-0.4-0.3-0.5c-0.2-0.1-0.3-0.1-0.5-0.1c-0.1,0-0.3,0-0.4,0.1
				c-0.5,0.2-0.8,0.5-0.8,1.1l0,0.1c0,0.3,0.1,0.6,0.3,1c0.2,0.4,0.4,0.6,0.8,1.2c0.8,0.8,1.2,1.3,1.5,1.7c0.2,0.3,0.3,0.6,0.4,0.9
				c0.1,0.3,0.1,0.5,0.1,0.8c0,0.2,0,0.3-0.1,0.5c-0.1,0.3-0.1,0.4-0.3,0.6c-0.2,0.3-0.4,0.5-0.8,0.6c-0.3,0.1-0.6,0.2-0.9,0.2
				C128.4,213.9,128.3,213.9,128.2,213.9z"/>
			<path class="st3" d="M135.7,213.4c-0.6-0.1-1-0.4-1.3-0.9c-0.2-0.3-0.3-0.8-0.3-1.2c0-0.8,0.4-1.7,1-2.1c0.3-0.2,0.6-0.3,0.9-0.3
				h0c0.4,0,0.6,0.1,0.9,0.4c0.2,0.2,0.3,0.4,0.3,0.7s-0.1,0.6-0.4,0.9c-0.2,0.3-0.7,0.6-1,0.7c-0.2,0.1-0.4,0.1-0.6,0.1
				c0,0-0.1,0-0.1,0l0,0c0,0,0,0,0,0l0,0c0,0.1,0.1,0.2,0.2,0.3c0.1,0.1,0.3,0.3,0.5,0.3c0.1,0,0.3,0.1,0.5,0.1c0.1,0,0.2,0,0.3-0.1
				c0.1,0,0.4-0.2,0.6-0.3c0.4-0.3,0.4-0.3,0.5-0.3c0.1,0,0.2,0,0.2,0.2v0.1c0,0.2-0.1,0.4-0.2,0.6c-0.1,0.2-0.3,0.4-0.5,0.5
				c-0.3,0.2-0.7,0.3-1.1,0.3C136,213.4,135.9,213.4,135.7,213.4z M135.5,210.7c0.2-0.1,0.4-0.3,0.5-0.5c0-0.1,0.1-0.2,0.1-0.2
				c0,0,0-0.1,0-0.1c0-0.1-0.1-0.1-0.2-0.1h0c-0.2,0-0.4,0.2-0.5,0.5c-0.1,0.1-0.2,0.4-0.2,0.5c0,0,0,0,0.1,0
				C135.4,210.7,135.4,210.7,135.5,210.7z"/>
			<path class="st3" d="M142.7,216.1c-0.4-0.1-0.7-0.4-0.7-0.6c0-0.1,0-0.1,0-0.2c0.1-0.1,0.2-0.2,0.3-0.2c0.1,0,0.1,0,0.2,0
				c0.1,0,0.1,0,0.1,0c0.1,0,0.1-0.1,0.2-0.2c0.3-0.4,0.5-1.1,0.5-2.3l0-0.4c0-0.3,0-0.6,0-0.7c0,0-0.1,0-0.1,0.1
				c-0.3,0.3-0.6,0.5-0.9,0.5c-0.4,0-0.7-0.2-0.9-0.6c-0.1-0.2-0.1-0.4-0.1-0.6c0-0.1,0-0.2,0-0.4c0.1-0.3,0.1-0.4,0.3-0.8
				c0.3-0.6,0.8-1.1,1.2-1.3c0.2-0.1,0.4-0.1,0.5-0.1c0.2,0,0.3,0,0.4,0.1c0.1,0.1,0.2,0.2,0.2,0.3c0,0,0,0.1,0.1,0.2
				c0.2,0.2,0.4,1,0.5,1.9c0,0.3,0,0.7,0,1.1c0,0.7,0,1.4-0.1,1.9c-0.1,0.7-0.3,1.2-0.6,1.6c-0.3,0.4-0.7,0.7-1.1,0.7L142.7,216.1z
				 M142.7,210.5c0.2-0.3,0.3-0.6,0.4-0.9c0-0.1,0-0.1,0-0.1c0,0,0,0,0,0h0c0,0,0,0-0.1,0.1c-0.3,0.3-0.5,0.8-0.6,1.2l0,0.1
				C142.6,210.7,142.6,210.7,142.7,210.5z"/>
			<path class="st3" d="M151.1,213.4c-0.2-0.1-0.3-0.3-0.4-0.9c0-0.2-0.1-0.3-0.1-0.3l-0.1,0.2c-0.2,0.5-0.6,0.8-1.1,0.8h-0.1
				c-0.4,0-0.7-0.3-0.9-0.7c-0.2-0.4-0.2-0.7-0.3-1.3l0-0.3c0-0.6,0.1-1.2,0.2-1.6c0.1-0.4,0.2-0.6,0.4-0.7c0.1,0,0.1,0,0.2,0h0
				c0.2,0,0.4,0.2,0.4,0.5c0,0.1,0,0.5,0,1.2c0,1,0,1.1,0.1,1.3c0,0.1,0,0.2,0.1,0.2h0c0,0,0,0,0,0c0.1-0.1,0.3-0.6,0.6-1.1
				c0.6-1.2,0.6-1.3,0.8-1.4c0.1,0,0.1,0,0.2,0l0.1,0c0.2,0,0.4,0.1,0.5,0.3c0.1,0.2,0.1,0.3,0.1,0.8l0,1.1c0,1-0.1,1.6-0.1,1.8
				c-0.1,0.1-0.2,0.2-0.4,0.2C151.3,213.4,151.2,213.4,151.1,213.4z"/>
			<path class="st3" d="M156.7,213.6c-0.1,0-0.1,0-0.2,0c-0.3-0.1-0.4-0.3-0.6-0.6c-0.4-0.7-0.6-2-0.6-3.3l0-0.6
				c0-0.9,0.1-1.6,0.2-2.3c0.1-0.5,0.2-1,0.2-1.2c0-0.1,0-0.2,0.1-0.3c0-0.2,0.2-0.7,0.2-0.8c0.1-0.1,0.2-0.2,0.3-0.2l0,0
				c0.1,0,0.2,0,0.2,0.1c0.1,0.1,0.2,0.4,0.2,0.9l0,0.5c0,0.3,0,0.5,0,0.5c0,0,0,0.5-0.1,1.4c0,0.6-0.1,1.3-0.1,1.7l0,0.2
				c0,0.4,0.1,1.1,0.1,1.2c0,0,0,0,0,0c0,0,0-0.2,0.2-1.1c0.2-1.5,0.2-1.7,0.4-2.4c0.2-0.6,0.4-1.2,0.6-1.8c0.3-0.7,0.7-1,1.2-1
				l0.1,0c0.5,0.1,0.9,0.4,1.1,0.9c0.2,0.5,0.4,1.2,0.5,2c0,0.5,0.1,0.8,0.1,1.1c0,0.2,0,0.4,0,0.6c-0.1,0.8-0.2,1.4-0.5,2.2
				c-0.1,0.3-0.4,0.8-0.6,1c-0.4,0.5-1,0.8-1.5,0.8c-0.3,0-0.5-0.1-0.7-0.2l-0.1-0.1c0,0,0,0.1-0.1,0.1c-0.1,0.2-0.3,0.3-0.4,0.4
				C157,213.6,157,213.6,156.7,213.6L156.7,213.6z M158,212c0.2,0,0.2,0,0.3-0.1c0.4-0.2,0.6-0.4,0.8-1c0.3-0.5,0.4-1,0.5-1.6
				c0-0.2,0-0.6,0-1c0-0.6,0-1.3-0.1-1.7c0-0.3-0.1-0.6-0.2-0.8c0-0.1-0.2-0.2-0.2-0.2h0c-0.1,0-0.1,0.1-0.2,0.2
				c-0.3,0.5-0.6,1.4-0.7,2.6c-0.1,0.5-0.1,0.5-0.1,1.1c-0.1,1.3-0.2,1.6-0.2,2l0,0.5c0,0,0,0,0.1,0L158,212z"/>
			<path class="st3" d="M165,213.6c-0.3-0.1-0.4-0.5-0.5-1.2c-0.1-0.7-0.1-1.4-0.1-1.9c0-0.4,0-0.7,0-0.9c0-0.3,0.1-0.6,0.2-0.7
				c0.1-0.2,0.3-0.3,0.5-0.3l0.1,0c0.2,0,0.3,0.1,0.4,0.3c0.1,0.2,0.1,0.4,0.1,0.8c0,0.2,0,0.6,0,1c0,0.5,0,0.9,0,1.3
				c0,0.2,0,0.5,0,0.7v0.1c0,0.1,0,0.2,0,0.3c0,0.3-0.1,0.4-0.3,0.5c-0.1,0-0.2,0.1-0.2,0.1S165.1,213.6,165,213.6z M164.9,207.9
				c-0.1-0.1-0.2-0.2-0.3-0.3c0-0.1,0-0.1,0-0.2l0-0.2c0-0.3,0.1-0.4,0.2-0.6c0.1-0.1,0.2-0.2,0.4-0.2h0.1c0.1,0,0.1,0,0.2,0.1
				c0.2,0.1,0.3,0.4,0.3,0.7v0.1c0,0.2,0,0.3-0.1,0.5c-0.1,0.2-0.3,0.3-0.5,0.3C165.1,208,165,208,164.9,207.9z"/>
			<path class="st3" d="M170.8,216.1c-0.4-0.1-0.7-0.4-0.7-0.6c0-0.1,0-0.1,0-0.2c0.1-0.1,0.2-0.2,0.3-0.2c0.1,0,0.1,0,0.2,0
				c0.1,0,0.1,0,0.1,0c0.1,0,0.1-0.1,0.2-0.2c0.3-0.4,0.5-1.1,0.5-2.3l0-0.4c0-0.3,0-0.6,0-0.7c0,0-0.1,0-0.1,0.1
				c-0.3,0.3-0.6,0.5-0.9,0.5c-0.4,0-0.7-0.2-0.9-0.6c-0.1-0.2-0.1-0.4-0.1-0.6c0-0.1,0-0.2,0-0.4c0.1-0.3,0.1-0.4,0.3-0.8
				c0.3-0.6,0.8-1.1,1.2-1.3c0.2-0.1,0.4-0.1,0.5-0.1c0.2,0,0.3,0,0.4,0.1c0.1,0.1,0.2,0.2,0.2,0.3c0,0,0,0.1,0.1,0.2
				c0.2,0.2,0.4,1,0.5,1.9c0,0.3,0,0.7,0,1.1c0,0.7,0,1.4-0.1,1.9c-0.1,0.7-0.3,1.2-0.6,1.6c-0.3,0.4-0.7,0.7-1.1,0.7L170.8,216.1z
				 M170.8,210.5c0.2-0.3,0.3-0.6,0.4-0.9c0-0.1,0-0.1,0-0.1c0,0,0,0,0,0h0c0,0,0,0-0.1,0.1c-0.3,0.3-0.5,0.8-0.6,1.2l0,0.1
				C170.7,210.7,170.7,210.7,170.8,210.5z"/>
			<path class="st3" d="M176.8,213.6c-0.3-0.1-0.4-0.5-0.5-1.2c-0.1-0.7-0.1-1.4-0.1-1.9c0-0.4,0-0.7,0-0.9c0-0.3,0.1-0.6,0.2-0.7
				c0.1-0.2,0.3-0.3,0.5-0.3l0.1,0c0.2,0,0.3,0.1,0.4,0.3c0.1,0.2,0.1,0.4,0.1,0.8c0,0.2,0,0.6,0,1c0,0.5,0,0.9,0,1.3
				c0,0.2,0,0.5,0,0.7v0.1c0,0.1,0,0.2,0,0.3c0,0.3-0.1,0.4-0.3,0.5c-0.1,0-0.2,0.1-0.2,0.1S176.9,213.6,176.8,213.6z M176.7,207.9
				c-0.1-0.1-0.2-0.2-0.3-0.3c0-0.1,0-0.1,0-0.2l0-0.2c0-0.3,0.1-0.4,0.2-0.6c0.1-0.1,0.2-0.2,0.4-0.2h0.1c0.1,0,0.1,0,0.2,0.1
				c0.2,0.1,0.3,0.4,0.3,0.7v0.1c0,0.2,0,0.3-0.1,0.5c-0.1,0.2-0.3,0.3-0.5,0.3C176.9,208,176.8,208,176.7,207.9z"/>
			<path class="st3" d="M183.2,213.7c-0.3-0.1-0.6-0.2-0.8-0.5c-0.1-0.2-0.2-0.3-0.3-0.6c-0.2-0.7-0.3-1.2-0.3-2.4l0-0.8
				c-0.5-0.1-0.8-0.2-0.9-0.4c0,0,0-0.1,0-0.1c0-0.1,0-0.2,0.1-0.3c0.1-0.2,0.5-0.3,0.8-0.3c0.1,0,0.1,0,0.1,0c0,0,0.1-0.2,0.1-0.3
				c0.1-0.7,0.3-1.1,0.5-1.3c0.1-0.1,0.2-0.2,0.4-0.2c0.2,0,0.4,0.2,0.5,0.5c0.1,0.2,0.1,0.4,0.1,0.9c0,0.5,0,0.5,0.1,0.5l0.3,0.1
				c0.3,0,0.6,0.2,0.7,0.3c0.1,0.1,0.1,0.2,0.1,0.2c0,0.2-0.1,0.3-0.3,0.4c-0.2,0.1-0.3,0.1-0.5,0.1l-0.3,0c0,0.3,0,0.2,0,0.6
				c0,0.4,0,1.1,0.1,1.4c0.1,0.6,0.1,0.8,0.2,1c0,0.1,0.1,0.1,0.1,0.1c0,0,0,0,0.1-0.1c0.1-0.1,0.2-0.2,0.3-0.5
				c0.1-0.3,0.2-0.4,0.3-0.4c0.1,0,0.2,0.1,0.2,0.3c0,0.1,0,0.2,0,0.3c0,0.3,0,0.6-0.1,0.8c-0.1,0.2-0.2,0.4-0.3,0.5
				c-0.2,0.2-0.5,0.3-0.8,0.3C183.4,213.7,183.3,213.7,183.2,213.7z"/>
			<path class="st3" d="M188.9,213.5c-0.3-0.1-0.5-0.3-0.6-0.5c0-0.1,0-0.2,0-0.3c0-0.1,0-0.3,0-0.4c0.1-0.3,0.3-0.8,0.6-1.3
				c0.5-1,1.2-1.7,2-2c0.2-0.1,0.5-0.1,0.7-0.2l0.2,0c0.1,0,0.1,0,0.2,0c0.2,0.1,0.2,0.2,0.2,0.3c0,0,0,0.1,0,0.1c0,0,0,0,0,0.1
				l0,0.1c0,0,0,0.1,0,0.2c0,0.2,0,0.7,0,1.3l0,0.6c0,0.6,0,1.1,0.1,1.4c0,0.1,0,0.1,0.1,0.1c0.1,0.1,0.2,0.1,0.2,0.2
				c0,0.1-0.1,0.2-0.3,0.3c0,0-0.1,0-0.1,0c-0.3,0-0.6-0.3-0.8-0.9c-0.1-0.3-0.1-0.5-0.2-0.9l0-0.3c-0.6,1-1,1.6-1.5,1.9
				c-0.2,0.1-0.4,0.2-0.6,0.2C189,213.5,188.9,213.5,188.9,213.5z M189.5,212.1c0.1-0.1,0.5-0.6,0.7-0.9c0.2-0.4,0.7-1.2,0.7-1.2
				l0,0c0,0-0.4,0.4-0.5,0.5c-0.2,0.3-0.6,0.8-0.7,1.1c-0.1,0.3-0.3,0.6-0.3,0.7c0,0,0,0,0,0C189.4,212.3,189.5,212.2,189.5,212.1z"
				/>
			<path class="st3" d="M197,213.6c-0.2-0.1-0.3-0.2-0.5-0.3c-0.3-0.3-0.4-0.7-0.5-1.7l-0.1-1.7c0-0.2,0-0.4,0-0.7c0-0.5,0-1,0-1.2
				c0-0.1,0-0.3,0-0.4c0.1-1.3,0.4-2.1,0.8-2.2c0,0,0.1,0,0.1,0h0c0.2,0,0.4,0.2,0.5,0.6c0,0.1,0,0.3,0,0.5c0,0.2,0,0.5,0,0.8
				c-0.1,0.7-0.1,1.5-0.2,2.6c0,0.3,0,0.8,0,1.3c0,0.5,0,0.9,0,1.1c0.1,0.6,0.1,0.7,0.3,0.8c0.1,0.1,0.2,0.1,0.2,0.2
				c0,0.2-0.2,0.3-0.4,0.3C197.1,213.6,197.1,213.6,197,213.6z"/>
		</g>
		<path class="st8" d="M198.7,109.7c-0.5-0.1-0.9-0.3-1.3-0.5c-0.4-0.2-0.8-0.4-1.2-0.7c-0.6-0.4-1.1-0.9-1.6-1.4
			c-0.4-0.5-0.8-1-1.2-1.5c-0.5-0.8-0.9-1.6-1.1-2.5c-0.3,1-0.8,1.8-1.4,2.6c-0.4,0.5-0.8,1-1.3,1.4c-0.4,0.4-0.9,0.8-1.4,1.1
			c-0.4,0.3-0.9,0.6-1.4,0.8c-0.4,0.2-0.8,0.3-1.3,0.5c0.5,0.2,1,0.4,1.4,0.6s0.9,0.5,1.3,0.8c0.7,0.5,1.4,1.1,1.9,1.8
			c0.4,0.5,0.8,1.1,1.1,1.7c0.3,0.6,0.5,1.1,0.7,1.8c0.2-0.6,0.5-1.2,0.8-1.8c0.3-0.4,0.5-0.9,0.9-1.3c0.4-0.5,0.9-1,1.4-1.5
			c0.6-0.5,1.3-1,2-1.3C197.6,110.1,198.2,109.9,198.7,109.7z"/>
		<path class="st8" d="M191.1,100.5c-0.3-0.1-0.6-0.2-0.9-0.4c-0.3-0.2-0.6-0.3-0.9-0.5c-0.4-0.3-0.8-0.6-1.2-1
			c-0.3-0.3-0.6-0.7-0.8-1.1c-0.3-0.5-0.6-1.1-0.8-1.8c-0.2,0.7-0.6,1.3-1,1.9c-0.3,0.4-0.6,0.7-0.9,1c-0.3,0.3-0.6,0.5-1,0.8
			c-0.3,0.2-0.7,0.4-1,0.6c-0.3,0.1-0.6,0.2-0.9,0.3c0.3,0.1,0.7,0.3,1,0.4c0.3,0.2,0.6,0.3,0.9,0.6c0.5,0.4,1,0.8,1.4,1.3
			c0.3,0.4,0.6,0.8,0.8,1.2c0.2,0.4,0.4,0.8,0.5,1.3c0.1-0.4,0.3-0.9,0.6-1.3c0.2-0.3,0.4-0.6,0.6-0.9c0.3-0.4,0.7-0.7,1-1.1
			c0.4-0.4,0.9-0.7,1.5-0.9C190.4,100.8,190.7,100.6,191.1,100.5z"/>
		<path class="st8" d="M196.1,91.8c-0.3-0.1-0.6-0.2-0.9-0.4c-0.3-0.2-0.6-0.3-0.9-0.5c-0.4-0.3-0.8-0.6-1.2-1
			c-0.3-0.3-0.6-0.7-0.8-1.1c-0.3-0.5-0.6-1.1-0.8-1.8c-0.2,0.7-0.6,1.3-1,1.9c-0.3,0.4-0.6,0.7-0.9,1c-0.3,0.3-0.6,0.5-1,0.8
			c-0.3,0.2-0.7,0.4-1,0.6c-0.3,0.1-0.6,0.2-0.9,0.3c0.3,0.1,0.7,0.3,1,0.4c0.3,0.2,0.6,0.3,0.9,0.6c0.5,0.4,1,0.8,1.4,1.3
			c0.3,0.4,0.6,0.8,0.8,1.2c0.2,0.4,0.4,0.8,0.5,1.3c0.1-0.4,0.3-0.9,0.6-1.3c0.2-0.3,0.4-0.6,0.6-0.9c0.3-0.4,0.7-0.7,1-1.1
			c0.4-0.4,0.9-0.7,1.5-0.9C195.4,92.1,195.8,91.9,196.1,91.8z"/>
	</g>
	<g>
		<path class="st0" d="M202.5,186.8l-93.1,40.5c-3.6,1.6-7.7-0.1-9.3-3.7L33.4,70.1c-1.6-3.6,0.1-7.7,3.7-9.3l93.1-40.5
			c3.6-1.6,7.7,0.1,9.3,3.7l66.7,153.5C207.8,181.1,206.1,185.2,202.5,186.8z"/>
		<path class="st1" d="M201.4,186.4l-93.1,40.5c-3.6,1.6-7.7-0.1-9.3-3.7L32.6,70.4c-1.6-3.6,0.1-7.7,3.7-9.3l93.1-40.5
			c3.6-1.6,7.7,0.1,9.3,3.7l66.4,152.8C206.6,180.7,205,184.8,201.4,186.4z"/>
		<path class="st2" d="M194.3,183.6L111,219.8c-3.6,1.6-7.7-0.1-9.3-3.7L39.6,73.2c-1.6-3.6,0.1-7.7,3.7-9.3l83.3-36.2
			c3.6-1.6,7.7,0.1,9.3,3.7L198,174.3C199.6,177.9,197.9,182.1,194.3,183.6z"/>
		<path class="st3" d="M194.3,183.6L111,219.8c-3.6,1.6-7.7-0.1-9.3-3.7L39.6,73.2c-1.6-3.6,0.1-7.7,3.7-9.3l83.3-36.2
			c3.6-1.6,7.7,0.1,9.3,3.7L198,174.3C199.6,177.9,197.9,182.1,194.3,183.6z"/>
		<path class="st1" d="M194.3,183.6L111,219.8c-3.6,1.6-7.7-0.1-9.3-3.7l-6.2-14.3l96.3-41.8l6.2,14.3
			C199.6,177.9,197.9,182.1,194.3,183.6z"/>
		<g>
			<defs>
				<path id="SVGID_3_" d="M194.3,183.6L111,219.8c-3.6,1.6-7.7-0.1-9.3-3.7L39.6,73.2c-1.6-3.6,0.1-7.7,3.7-9.3l83.3-36.2
					c3.6-1.6,7.7,0.1,9.3,3.7L198,174.3C199.6,177.9,197.9,182.1,194.3,183.6z"/>
			</defs>
			<clipPath id="SVGID_4_">
				<use xlink:href="#SVGID_3_"  style="overflow:visible;"/>
			</clipPath>
		</g>
		<path class="st4" d="M194.3,183.6L111,219.8c-3.6,1.6-7.7-0.1-9.3-3.7L39.6,73.2c-1.6-3.6,0.1-7.7,3.7-9.3l83.3-36.2
			c3.6-1.6,7.7,0.1,9.3,3.7L198,174.3C199.6,177.9,197.9,182.1,194.3,183.6z"/>
		<g>
			<path class="st5" d="M154.5,109.5c1.9,0.8,2.6,3,1.7,4.8c-3.4,6.6-12.6,21.6-27.9,28.3c-15.4,6.7-32.6,3.1-39.8,1.1
				c-1.9-0.5-3-2.6-2.3-4.5c2.8-7.6,10.8-25.7,26.5-32.6S147.1,106.3,154.5,109.5z"/>
			<circle class="st3" cx="120.2" cy="124.7" r="15.7"/>
			<circle class="st6" cx="120.2" cy="124.7" r="5.9"/>
			<path class="st7" d="M154.8,109.6c1.7,0.7,2.4,2.7,1.6,4.4c-3.3,6.5-12.5,21.8-28.1,28.6s-33.1,3-40.1,1
				c-1.8-0.5-2.8-2.4-2.1-4.1c0,0,0,0,0-0.1c10.9,0.8,20.7,4.5,39.2-3.6s21.4-17.3,28-26.8C153.9,109.2,154.4,109.4,154.8,109.6z"/>
			<g>
				<path class="st5" d="M92,114.5c-1.2-0.5-2.6,0.1-3.1,1.4c-0.5,1.2,0.1,2.6,1.4,3.1l6.9,2.7c0.6,0.2,1.3,0.2,1.8,0s1-0.7,1.3-1.3
					c0.5-1.2-0.1-2.6-1.4-3.1L92,114.5z"/>
				<path class="st5" d="M132.8,96.8c-1.2-0.5-2.6,0.1-3.1,1.4l-2.7,6.9c-0.5,1.2,0.1,2.6,1.4,3.1c0.6,0.2,1.3,0.2,1.8,0
					c0.6-0.2,1-0.7,1.3-1.3l2.7-6.9C134.6,98.7,134,97.3,132.8,96.8z"/>
				<path class="st5" d="M108.5,97.7c-1.2,0.5-1.8,1.9-1.2,3.2l3.2,7.5c0.5,1.2,1.9,1.8,3.2,1.2c1.2-0.5,1.8-1.9,1.2-3.2l-3.2-7.5
					C111.1,97.7,109.7,97.2,108.5,97.7z"/>
			</g>
			<circle class="st8" cx="127.4" cy="113.7" r="5.9"/>
		</g>
		<path class="st7" d="M202,187.1l-93.5,40.3c-3.6,1.6-8-0.6-9.5-4.2c0,0,69.8-59.1,30.4-202.5c3.9-1.7,8.6-0.3,10.1,3.3l66.4,152.8
			C207.8,181.2,207.4,184.7,202,187.1z"/>
		<g>
			<path class="st3" d="M114.7,209.1c-0.2,0.1-0.3,0.1-0.3,0.1c-0.4,0.1-0.7,0.1-1.1,0.1c-0.6-0.1-1.1-0.2-1.5-0.5
				c-0.3-0.2-0.6-0.5-0.8-0.8c-0.1-0.1-0.2-0.4-0.3-0.6c-0.1-0.1-0.1-0.3-0.1-0.4c-0.1-0.3-0.2-0.9-0.2-1.2c0-0.6,0.1-1.3,0.3-1.7
				c0.2-0.4,0.3-0.5,0.6-0.8c0.3-0.3,0.5-0.5,1-0.7l0.2-0.1c0.4-0.2,0.8-0.2,1.2-0.2c0.2,0,0.6,0.2,0.8,0.3c0.2,0.1,0.4,0.3,0.7,0.5
				c0.3,0.3,0.4,0.4,0.5,0.7c0,0.1,0.1,0.2,0.1,0.3c0.3,0.8,0.3,1.2,0.2,1.6c-0.1,0.3-0.1,0.4-0.3,0.6c-0.1,0.1-0.2,0.2-0.4,0.3
				c-0.3,0.1-0.7,0.1-1.1-0.1c-0.1,0-0.1-0.1-0.2-0.1s0,0.1,0,0.2c0,0.3-0.2,0.6-0.5,0.7c-0.2,0.1-0.5,0.1-0.7,0
				c-0.2-0.1-0.3-0.1-0.4-0.3c-0.1-0.1-0.2-0.2-0.2-0.3c-0.1-0.2-0.1-0.4-0.1-0.7c0-0.4,0.2-0.7,0.5-1c0.1-0.1,0.3-0.2,0.4-0.3
				c0.3-0.1,0.5-0.1,0.7,0l0.2,0.1c0.1,0.1,0.2,0.1,0.3,0.3c0.2,0.3,0.3,0.4,0.5,0.4c0.1,0,0.2,0.1,0.2,0c0.1,0,0.1-0.1,0.1-0.2
				c0.1-0.3,0-0.8-0.1-1.1l0-0.1c-0.1-0.2-0.3-0.4-0.5-0.6c-0.1-0.1-0.6-0.3-0.8-0.3c-0.2,0-0.2,0-0.4,0.1l-0.2,0.1
				c-0.5,0.3-0.9,0.5-1.1,0.8c-0.1,0.1-0.2,0.2-0.2,0.4c-0.2,0.4-0.2,0.7-0.2,1.2c0,0.4,0.1,0.7,0.3,1.1c0.1,0.3,0.2,0.5,0.4,0.6
				c0.1,0.1,0.2,0.1,0.5,0.2c0.5,0.2,0.7,0.2,1.4,0.1c0.3-0.1,0.4-0.1,0.6-0.1l0.2-0.1c0.2-0.1,0.4-0.3,0.6-0.5
				c0.1-0.2,0.4-0.3,0.5-0.4l0,0c0.1,0,0.3,0,0.4,0c0.1,0.1,0.2,0.1,0.2,0.2c0.1,0.3,0,0.8-0.4,1.3c-0.2,0.2-0.2,0.3-0.5,0.5
				c-0.1,0.1-0.2,0.1-0.5,0.3L114.7,209.1z M113.1,206.2c0.1-0.1,0.2-0.7,0.1-0.8l0,0l0,0c0,0-0.1,0.1-0.1,0.1
				c-0.2,0.2-0.3,0.5-0.2,0.7C112.9,206.3,113,206.3,113.1,206.2C113,206.3,113.1,206.3,113.1,206.2z"/>
			<path class="st3" d="M122.8,205.8c-0.7,0.2-1,0.1-1.7-0.1c-0.4-0.1-0.4-0.2-0.6-0.3c-0.2-0.2-0.3-0.3-0.4-0.5l0-0.1
				c-0.1-0.4-0.1-0.7,0.2-0.9l0.1,0c0,0,0.1,0,0.1,0c0.1,0,0.2,0,0.2,0.2l0,0.1c0.1,0.2,0.3,0.4,0.6,0.6c0.4,0.2,0.7,0.2,1,0l0.1,0
				c0.1,0,0.1-0.1,0.2-0.1c0.1-0.1,0.2-0.3,0.2-0.4c0-0.1,0-0.2,0-0.3c-0.1-0.2-0.3-0.4-0.6-0.6c-0.2-0.1-0.6-0.3-1.1-0.5
				c-0.5-0.2-1.2-0.6-1.6-0.8c-0.8-0.5-1.4-1.2-1.7-2c-0.1-0.2-0.2-0.5-0.2-0.7c-0.1-0.5,0-1.1,0.2-1.6c0.1-0.2,0.4-0.5,0.6-0.7
				c0.2-0.1,0.4-0.3,0.6-0.4l0.1,0c0.4-0.2,1-0.1,1.4,0.1c0.2,0.1,0.3,0.2,0.5,0.4c0.1,0.1,0.1,0.2,0.2,0.4c0.2,0.4,0.2,0.8,0.2,1.3
				c0,0.3-0.1,0.5-0.2,0.8c-0.1,0.2-0.2,0.4-0.4,0.5l0,0c-0.1,0-0.1,0-0.1,0c-0.1,0-0.1,0-0.1-0.1c0-0.1,0-0.1,0-0.4
				c0.1-0.5,0.1-0.9,0-1.3l-0.1-0.2c0-0.1-0.1-0.1-0.1-0.2c-0.2-0.2-0.3-0.3-0.5-0.3c-0.2,0-0.3,0-0.5,0.1c-0.1,0.1-0.2,0.1-0.3,0.2
				c-0.4,0.4-0.5,0.8-0.3,1.3l0,0.1c0.1,0.3,0.3,0.5,0.6,0.8c0.3,0.3,0.6,0.4,1.2,0.7c1,0.5,1.6,0.8,2,1c0.3,0.2,0.5,0.4,0.8,0.6
				c0.2,0.2,0.3,0.4,0.4,0.7c0.1,0.2,0.1,0.3,0.1,0.5c0.1,0.3,0.1,0.4,0,0.7c-0.1,0.3-0.2,0.6-0.5,0.9c-0.2,0.2-0.5,0.4-0.7,0.5
				C122.9,205.7,122.8,205.8,122.8,205.8z"/>
			<path class="st3" d="M129.5,202.4c-0.6,0.1-1.1,0-1.5-0.3c-0.3-0.2-0.6-0.6-0.8-1c-0.3-0.7-0.3-1.7,0.1-2.4
				c0.2-0.3,0.4-0.5,0.7-0.6l0,0c0.3-0.1,0.6-0.2,1,0c0.3,0.1,0.5,0.3,0.6,0.5c0.1,0.3,0.1,0.6,0,1c-0.1,0.3-0.4,0.8-0.6,1
				c-0.2,0.2-0.3,0.3-0.5,0.4c0,0-0.1,0-0.1,0l0,0c0,0,0,0,0,0l0,0c0.1,0.1,0.2,0.2,0.3,0.2c0.2,0.1,0.4,0.1,0.6,0.1
				c0.1,0,0.3,0,0.5-0.1c0.1,0,0.2-0.1,0.2-0.2c0,0,0.3-0.3,0.4-0.5c0.2-0.4,0.3-0.5,0.3-0.5c0.1,0,0.2,0,0.2,0.1l0,0.1
				c0.1,0.2,0.1,0.4,0.1,0.6c0,0.2-0.2,0.5-0.3,0.7c-0.2,0.3-0.5,0.6-0.9,0.7C129.7,202.3,129.6,202.3,129.5,202.4z M128.2,199.9
				c0.2-0.2,0.3-0.4,0.3-0.7c0-0.1,0-0.2,0-0.2c0,0,0-0.1-0.1-0.1c-0.1,0-0.2,0-0.2,0l0,0c-0.1,0.1-0.3,0.3-0.3,0.6
				c0,0.2,0,0.4,0,0.5c0,0,0,0,0.1,0C128,200,128.1,200,128.2,199.9z"/>
			<path class="st3" d="M136.9,202.1c-0.4,0.1-0.8-0.1-0.9-0.3c0-0.1,0-0.1,0-0.2c0-0.1,0.1-0.2,0.2-0.3c0,0,0.1,0,0.2,0
				c0.1,0,0.1,0,0.1,0c0.1,0,0.1-0.1,0.1-0.3c0.1-0.5,0-1.2-0.5-2.3l-0.2-0.4c-0.1-0.3-0.3-0.6-0.3-0.6c0,0,0,0.1-0.1,0.2
				c-0.1,0.4-0.4,0.7-0.7,0.8c-0.3,0.1-0.7,0.1-1-0.2c-0.1-0.1-0.2-0.3-0.3-0.5c0-0.1-0.1-0.2-0.1-0.4c0-0.3-0.1-0.5,0-0.8
				c0-0.7,0.3-1.3,0.6-1.7c0.1-0.1,0.3-0.2,0.4-0.3c0.2-0.1,0.3-0.1,0.4-0.1c0.1,0,0.2,0.1,0.3,0.2c0,0,0.1,0.1,0.1,0.1
				c0.3,0.1,0.8,0.8,1.2,1.6c0.1,0.2,0.3,0.6,0.5,1c0.3,0.6,0.5,1.3,0.6,1.8c0.2,0.7,0.2,1.2,0.1,1.7c-0.1,0.5-0.4,0.9-0.8,1
				L136.9,202.1z M134.7,196.9c0.1-0.3,0.1-0.6,0-1c0-0.1,0-0.1,0-0.1c0,0,0,0,0,0l0,0c0,0,0,0,0,0.1c-0.1,0.4-0.2,0.9-0.1,1.3
				l0,0.1C134.7,197.2,134.7,197.2,134.7,196.9z"/>
			<path class="st3" d="M143.6,196.2c-0.2,0-0.4-0.2-0.7-0.6c-0.1-0.1-0.2-0.2-0.2-0.3l0,0.2c0,0.6-0.2,1-0.7,1.2l-0.1,0
				c-0.4,0.1-0.8,0.1-1.1-0.2c-0.3-0.3-0.5-0.5-0.8-1.1l-0.1-0.3c-0.2-0.5-0.4-1.1-0.5-1.5c-0.1-0.4,0-0.6,0.1-0.8
				c0-0.1,0.1-0.1,0.2-0.1l0,0c0.2-0.1,0.4,0,0.6,0.2c0,0.1,0.2,0.4,0.5,1.1c0.4,0.9,0.4,1,0.6,1.1c0.1,0.1,0.1,0.2,0.1,0.2l0,0
				c0,0,0,0,0,0c0-0.1,0.1-0.7,0.1-1.2c0-1.4,0.1-1.4,0.2-1.6c0-0.1,0.1-0.1,0.1-0.1l0.1,0c0.2-0.1,0.4,0,0.6,0.1
				c0.1,0.1,0.2,0.2,0.4,0.7l0.4,1c0.4,1,0.6,1.5,0.6,1.7c0,0.2-0.1,0.3-0.2,0.4C143.7,196.2,143.7,196.2,143.6,196.2z"/>
			<path class="st3" d="M148.8,194.2c-0.1,0-0.1,0-0.2,0c-0.3,0-0.5-0.1-0.7-0.3c-0.6-0.5-1.3-1.6-1.9-2.8l-0.2-0.5
				c-0.3-0.8-0.6-1.5-0.7-2.2c-0.1-0.5-0.3-1-0.3-1.2c0-0.1,0-0.2-0.1-0.3c-0.1-0.2-0.1-0.8-0.1-0.9c0-0.2,0.1-0.3,0.2-0.3l0,0
				c0.1,0,0.2,0,0.3,0c0.2,0.1,0.3,0.3,0.5,0.7l0.2,0.4c0.1,0.3,0.2,0.5,0.2,0.5c0,0,0.2,0.5,0.5,1.3c0.2,0.5,0.5,1.2,0.6,1.6
				l0.1,0.2c0.2,0.4,0.5,1,0.6,1.1c0,0,0,0,0,0c0,0,0-0.2-0.3-1c-0.4-1.4-0.4-1.6-0.6-2.4c-0.1-0.6-0.1-1.2-0.1-1.9
				c0-0.8,0.2-1.2,0.7-1.4l0.1,0c0.5-0.1,0.9,0,1.4,0.4c0.4,0.3,0.8,0.9,1.2,1.6c0.2,0.5,0.4,0.8,0.5,1c0.1,0.2,0.1,0.3,0.2,0.6
				c0.3,0.8,0.4,1.4,0.4,2.3c0,0.3-0.1,0.9-0.1,1.1c-0.1,0.6-0.6,1.1-1.1,1.4c-0.3,0.1-0.5,0.1-0.7,0.1l-0.1,0c0,0,0,0.1,0,0.1
				c0,0.2-0.1,0.4-0.2,0.5C149,194.1,149,194.1,148.8,194.2L148.8,194.2z M149.3,192.2c0.2-0.1,0.2-0.1,0.3-0.2
				c0.3-0.3,0.4-0.6,0.4-1.2c0-0.6,0-1-0.2-1.7c-0.1-0.2-0.2-0.6-0.4-0.9c-0.2-0.6-0.6-1.2-0.8-1.6c-0.2-0.2-0.4-0.5-0.5-0.6
				c-0.1-0.1-0.3-0.1-0.3-0.1l0,0c-0.1,0-0.1,0.1-0.1,0.3c-0.1,0.5,0,1.5,0.4,2.7c0.2,0.5,0.1,0.5,0.3,1.1c0.4,1.2,0.5,1.5,0.6,1.9
				l0.2,0.5c0,0,0,0,0.1,0L149.3,192.2z"/>
			<path class="st3" d="M154,185.7c-0.2,0-0.3-0.1-0.4-0.2c-0.1-0.1-0.1-0.1-0.1-0.2l-0.1-0.2c-0.1-0.3-0.1-0.4-0.1-0.6
				c0.1-0.2,0.1-0.3,0.3-0.3l0.1,0c0.1,0,0.1,0,0.2,0c0.2,0,0.4,0.2,0.6,0.5l0,0.1c0.1,0.2,0.1,0.3,0.1,0.5c0,0.2-0.2,0.4-0.4,0.4
				C154.2,185.7,154.1,185.7,154,185.7z M156.3,190.9c-0.3,0-0.5-0.3-0.9-0.9c-0.3-0.6-0.6-1.2-0.9-1.7c-0.2-0.4-0.3-0.7-0.3-0.9
				c-0.1-0.3-0.1-0.6-0.1-0.8c0-0.2,0.1-0.3,0.3-0.4l0.1,0c0.2-0.1,0.3,0,0.5,0.1c0.2,0.1,0.3,0.3,0.4,0.7c0.1,0.2,0.2,0.5,0.4,0.9
				c0.2,0.4,0.3,0.8,0.5,1.2c0.1,0.2,0.2,0.4,0.3,0.6l0,0.1c0,0.1,0.1,0.2,0.1,0.3c0.1,0.3,0.1,0.4-0.1,0.5c0,0.1-0.1,0.1-0.2,0.1
				C156.5,190.8,156.4,190.9,156.3,190.9z"/>
			<path class="st3" d="M162.7,190.9c-0.4,0.1-0.8-0.1-0.9-0.3c0-0.1,0-0.1,0-0.2c0-0.1,0.1-0.2,0.2-0.3c0,0,0.1,0,0.2,0
				c0.1,0,0.1,0,0.1,0c0.1,0,0.1-0.1,0.1-0.3c0.1-0.5,0-1.2-0.5-2.3l-0.2-0.4c-0.1-0.3-0.3-0.6-0.3-0.6c0,0,0,0.1-0.1,0.2
				c-0.1,0.4-0.4,0.7-0.7,0.8c-0.3,0.1-0.7,0.1-1-0.2c-0.1-0.1-0.2-0.3-0.3-0.5c0-0.1-0.1-0.2-0.1-0.4c0-0.3-0.1-0.5,0-0.8
				c0-0.7,0.3-1.3,0.6-1.7c0.1-0.1,0.3-0.2,0.4-0.3c0.2-0.1,0.3-0.1,0.4-0.1c0.1,0,0.2,0.1,0.3,0.2c0,0,0.1,0.1,0.1,0.1
				c0.3,0.1,0.8,0.8,1.2,1.6c0.1,0.2,0.3,0.6,0.5,1c0.3,0.6,0.5,1.3,0.6,1.8c0.2,0.7,0.2,1.2,0.1,1.7c-0.1,0.5-0.4,0.9-0.8,1
				L162.7,190.9z M160.5,185.7c0.1-0.3,0.1-0.6,0-1c0-0.1,0-0.1,0-0.1c0,0,0,0,0,0l0,0c0,0,0,0,0,0.1c-0.1,0.4-0.2,0.9-0.1,1.3
				l0,0.1C160.4,186,160.4,186,160.5,185.7z"/>
			<path class="st3" d="M164.8,181c-0.2,0-0.3-0.1-0.4-0.2c-0.1-0.1-0.1-0.1-0.1-0.2l-0.1-0.2c-0.1-0.3-0.1-0.4-0.1-0.6
				c0.1-0.2,0.1-0.3,0.3-0.3l0.1,0c0.1,0,0.1,0,0.2,0c0.2,0,0.4,0.2,0.6,0.5l0,0.1c0.1,0.2,0.1,0.3,0.1,0.5c0,0.2-0.2,0.4-0.4,0.4
				C165,181,164.9,181,164.8,181z M167.2,186.1c-0.3,0-0.5-0.3-0.9-0.9c-0.3-0.6-0.6-1.2-0.9-1.7c-0.2-0.4-0.3-0.7-0.3-0.9
				c-0.1-0.3-0.1-0.6-0.1-0.8c0-0.2,0.1-0.3,0.3-0.4l0.1,0c0.2-0.1,0.3,0,0.5,0.1c0.2,0.1,0.3,0.3,0.4,0.7c0.1,0.2,0.2,0.5,0.4,0.9
				c0.2,0.4,0.3,0.8,0.5,1.2c0.1,0.2,0.2,0.4,0.3,0.6l0,0.1c0,0.1,0.1,0.2,0.1,0.3c0.1,0.3,0.1,0.4-0.1,0.5c0,0.1-0.1,0.1-0.2,0.1
				C167.3,186.1,167.3,186.1,167.2,186.1z"/>
			<path class="st3" d="M173.1,183.7c-0.3,0.1-0.6,0-0.9-0.2c-0.2-0.1-0.3-0.2-0.5-0.4c-0.5-0.5-0.7-0.9-1.2-2.1l-0.3-0.8
				c-0.5,0.2-0.8,0.2-1,0c0,0-0.1-0.1-0.1-0.1c0-0.1,0-0.2,0-0.3c0-0.2,0.3-0.5,0.6-0.6c0,0,0.1,0,0.1-0.1c0,0,0-0.2-0.1-0.3
				c-0.2-0.6-0.2-1.1-0.1-1.4c0.1-0.2,0.1-0.3,0.2-0.3c0.2-0.1,0.4,0,0.6,0.3c0.1,0.2,0.2,0.4,0.5,0.8c0.2,0.4,0.2,0.4,0.2,0.4
				l0.3-0.1c0.3-0.1,0.6,0,0.8,0c0.1,0,0.2,0.1,0.2,0.2c0.1,0.1,0,0.3-0.2,0.5c-0.1,0.1-0.3,0.2-0.4,0.3l-0.3,0.1
				c0.1,0.3,0,0.2,0.2,0.5c0.2,0.4,0.5,1,0.6,1.2c0.3,0.5,0.5,0.7,0.6,0.8c0.1,0.1,0.1,0.1,0.2,0.1c0,0,0,0,0.1-0.1
				c0.1-0.1,0.1-0.3,0.1-0.6c0-0.3,0-0.5,0.1-0.5c0.1-0.1,0.2,0,0.3,0.2c0,0.1,0.1,0.2,0.1,0.2c0.1,0.2,0.2,0.6,0.2,0.8
				c0,0.3,0,0.4-0.1,0.6c-0.1,0.3-0.3,0.5-0.6,0.6C173.3,183.7,173.2,183.7,173.1,183.7z"/>
			<path class="st3" d="M178.2,181.3c-0.3,0.1-0.6,0-0.8-0.2c0-0.1-0.1-0.2-0.2-0.3c0-0.1-0.1-0.2-0.1-0.4c-0.1-0.3-0.1-0.8,0-1.4
				c0.1-1.1,0.5-2,1-2.6c0.2-0.2,0.4-0.3,0.6-0.4l0.1-0.1c0.1,0,0.1,0,0.2,0c0.2,0,0.3,0.1,0.3,0.2c0,0,0,0.1,0,0.1c0,0,0,0.1,0,0.1
				l0,0.1c0,0,0.1,0.1,0.1,0.2c0.1,0.2,0.2,0.6,0.5,1.2l0.2,0.5c0.2,0.5,0.5,1,0.7,1.2c0,0.1,0.1,0.1,0.2,0.1c0.1,0,0.2,0,0.2,0.1
				c0,0.1,0,0.3-0.1,0.4c0,0-0.1,0-0.1,0c-0.3,0.1-0.7-0.1-1.1-0.5c-0.2-0.2-0.3-0.4-0.5-0.8l-0.1-0.2c-0.1,1.1-0.3,1.9-0.6,2.4
				c-0.1,0.2-0.3,0.3-0.5,0.4C178.3,181.2,178.2,181.2,178.2,181.3z M178.3,179.8c0.1-0.2,0.2-0.7,0.3-1.1c0.1-0.4,0.2-1.3,0.1-1.4
				l0,0c0,0-0.2,0.5-0.3,0.7c-0.1,0.3-0.2,0.9-0.2,1.3c0,0.3,0,0.7,0,0.7c0,0,0,0,0,0C178.2,179.9,178.2,179.9,178.3,179.8z"/>
			<path class="st3" d="M185.7,178.1c-0.2,0-0.3,0-0.6-0.1c-0.4-0.2-0.6-0.4-1.1-1.4l-0.8-1.5c-0.1-0.1-0.2-0.4-0.3-0.6
				c-0.2-0.4-0.4-0.9-0.4-1.1c0-0.1-0.1-0.3-0.1-0.4c-0.4-1.2-0.5-2.1-0.1-2.3c0,0,0.1,0,0.1-0.1l0,0c0.2-0.1,0.5,0,0.7,0.3
				c0.1,0.1,0.2,0.3,0.2,0.5c0.1,0.2,0.2,0.5,0.3,0.8c0.2,0.6,0.5,1.4,0.8,2.5c0.1,0.3,0.3,0.7,0.5,1.2c0.2,0.4,0.4,0.9,0.5,1
				c0.3,0.5,0.4,0.6,0.6,0.6c0.1,0,0.2,0,0.2,0.1c0.1,0.2-0.1,0.4-0.3,0.5C185.8,178.1,185.8,178.1,185.7,178.1z"/>
		</g>
		<path class="st8" d="M146.6,85.7c-0.5,0.1-1,0.1-1.4,0.1c-0.5,0-0.9-0.1-1.4-0.1c-0.7-0.1-1.4-0.3-2.1-0.6
			c-0.6-0.2-1.2-0.5-1.7-0.9c-0.8-0.5-1.4-1.1-2-1.8c0.1,1,0.1,2-0.1,3c-0.1,0.6-0.3,1.2-0.6,1.8c-0.2,0.5-0.5,1.1-0.8,1.6
			c-0.3,0.5-0.6,0.9-1,1.3c-0.3,0.3-0.6,0.7-1,1c0.5-0.1,1-0.1,1.5-0.1s1,0.1,1.5,0.2c0.9,0.2,1.7,0.5,2.5,0.8
			c0.6,0.3,1.2,0.7,1.8,1.1c0.5,0.4,1,0.8,1.4,1.3c-0.1-0.7-0.1-1.3,0-1.9c0-0.5,0.1-1,0.3-1.5c0.2-0.7,0.4-1.3,0.7-1.9
			c0.4-0.7,0.8-1.4,1.3-2C145.8,86.4,146.2,86,146.6,85.7z"/>
		<path class="st8" d="M135.9,80.4c-0.3,0-0.7,0.1-1,0c-0.3,0-0.7,0-1-0.1c-0.5-0.1-1-0.2-1.5-0.4c-0.4-0.2-0.8-0.4-1.2-0.6
			c-0.5-0.4-1-0.8-1.5-1.3c0.1,0.7,0,1.4-0.1,2.1c-0.1,0.5-0.2,0.9-0.4,1.3c-0.2,0.4-0.3,0.8-0.6,1.1c-0.2,0.3-0.4,0.6-0.7,0.9
			c-0.2,0.2-0.5,0.5-0.7,0.7c0.4,0,0.7-0.1,1.1,0c0.4,0,0.7,0.1,1.1,0.1c0.6,0.1,1.2,0.3,1.8,0.6c0.4,0.2,0.9,0.5,1.3,0.8
			c0.4,0.3,0.7,0.6,1,0.9c0-0.5,0-0.9,0-1.4c0-0.4,0.1-0.7,0.2-1.1c0.1-0.5,0.3-0.9,0.5-1.4c0.3-0.5,0.6-1,0.9-1.5
			C135.3,80.9,135.6,80.7,135.9,80.4z"/>
		<path class="st8" d="M136.9,70.4c-0.3,0-0.7,0.1-1,0c-0.3,0-0.7,0-1-0.1c-0.5-0.1-1-0.2-1.5-0.4c-0.4-0.2-0.8-0.4-1.2-0.6
			c-0.5-0.4-1-0.8-1.5-1.3c0.1,0.7,0,1.4-0.1,2.1c-0.1,0.5-0.2,0.9-0.4,1.3c-0.2,0.4-0.3,0.8-0.6,1.1c-0.2,0.3-0.4,0.6-0.7,0.9
			c-0.2,0.2-0.5,0.5-0.7,0.7c0.4,0,0.7-0.1,1.1,0c0.4,0,0.7,0.1,1.1,0.1c0.6,0.1,1.2,0.3,1.8,0.6c0.4,0.2,0.9,0.5,1.3,0.8
			c0.4,0.3,0.7,0.6,1,0.9c0-0.5,0-0.9,0-1.4c0-0.4,0.1-0.7,0.2-1.1c0.1-0.5,0.3-0.9,0.5-1.4c0.3-0.5,0.6-1,0.9-1.5
			C136.3,70.9,136.6,70.7,136.9,70.4z"/>
	</g>
</g>
</svg>
