<?xml version="1.0" encoding="utf-8"?>
<!-- Generator: Adobe Illustrator 24.1.2, SVG Export Plug-In . SVG Version: 6.00 Build 0)  -->
<svg version="1.1" id="Capa_1" xmlns="http://www.w3.org/2000/svg" xmlns:xlink="http://www.w3.org/1999/xlink" x="0px" y="0px"
	 viewBox="0 0 184 208.5" style="enable-background:new 0 0 184 208.5;" xml:space="preserve">
<style type="text/css">
	.st0{fill:#707053;}
	.st1{fill:#ECEDC8;}
	.st2{fill:#FFFFFF;stroke:#000000;stroke-miterlimit:10;}
	.st3{fill:#717FC6;}
	.st4{fill:none;stroke:#FFE200;stroke-width:6;stroke-miterlimit:10;}
	.st5{fill:#FFE200;}
	.st6{opacity:0.3;}
	.st7{opacity:9.000000e-02;}
	.st8{fill:#FFFFFF;}
	.st9{font-family:'sweetpurple';}
	.st10{font-size:12.1398px;}
	.st11{letter-spacing:2;}
</style>
<g>
	<g>
		<path class="st0" d="M162.6,198.4H72c-3.5,0-6.3-2.8-6.3-6.3V42.8c0-3.5,2.8-6.3,6.3-6.3h90.6c3.5,0,6.3,2.8,6.3,6.3v149.3
			C168.9,195.6,166,198.4,162.6,198.4z"/>
		<path class="st1" d="M161.8,197.7H71.2c-3.5,0-6.3-2.8-6.3-6.3V42.8c0-3.5,2.8-6.3,6.3-6.3h90.6c3.5,0,6.3,2.8,6.3,6.3v148.6
			C168.1,194.9,165.2,197.7,161.8,197.7z"/>
		<path class="st2" d="M157,192.9H76c-3.5,0-6.3-2.8-6.3-6.3v-139c0-3.5,2.8-6.3,6.3-6.3h81c3.5,0,6.3,2.8,6.3,6.3v139
			C163.3,190.1,160.5,192.9,157,192.9z"/>
		<path class="st3" d="M157,192.9H76c-3.5,0-6.3-2.8-6.3-6.3v-139c0-3.5,2.8-6.3,6.3-6.3h81c3.5,0,6.3,2.8,6.3,6.3v139
			C163.3,190.1,160.5,192.9,157,192.9z"/>
		<path class="st1" d="M157,192.9H76c-3.5,0-6.3-2.8-6.3-6.3v-13.9h93.6v13.9C163.3,190.1,160.5,192.9,157,192.9z"/>
		<g>
			<defs>
				<path id="SVGID_1_" d="M157,192.9H76c-3.5,0-6.3-2.8-6.3-6.3v-139c0-3.5,2.8-6.3,6.3-6.3h81c3.5,0,6.3,2.8,6.3,6.3v139
					C163.3,190.1,160.5,192.9,157,192.9z"/>
			</defs>
			<clipPath id="SVGID_2_">
				<use xlink:href="#SVGID_1_"  style="overflow:visible;"/>
			</clipPath>
		</g>
		<path class="st4" d="M157,192.9H76c-3.5,0-6.3-2.8-6.3-6.3v-139c0-3.5,2.8-6.3,6.3-6.3h81c3.5,0,6.3,2.8,6.3,6.3v139
			C163.3,190.1,160.5,192.9,157,192.9z"/>
		<g>
			<path class="st5" d="M150.7,118.1c1.2,1.3,1.1,3.4-0.3,4.5c-5.2,4.2-18,13.2-32.9,13.2s-27.8-9-32.9-13.2
				c-1.4-1.1-1.5-3.2-0.3-4.5c5-5.2,18-17.2,33.2-17.2S145.8,112.8,150.7,118.1z"/>
			<circle class="st3" cx="117.3" cy="118.3" r="14"/>
			<circle class="st6" cx="117.3" cy="118.3" r="5.3"/>
			<path class="st7" d="M150.9,118.3c1.1,1.2,1,3.1-0.3,4.1c-5,4.1-18,13.4-33.1,13.4s-28.1-9.3-33.1-13.4c-1.3-1-1.4-2.9-0.3-4.1
				c0,0,0,0,0,0c8.6,4.5,15.4,11,33.4,11s23.6-6.6,32.5-12C150.3,117.6,150.6,118,150.9,118.3z"/>
			<g>
				<path class="st5" d="M97.8,100c-0.8-0.8-2.2-0.8-3,0c-0.8,0.8-0.8,2.2,0,3l4.7,4.7c0.4,0.4,1,0.6,1.5,0.6s1.1-0.2,1.5-0.6
					c0.8-0.8,0.8-2.2,0-3L97.8,100z"/>
				<path class="st5" d="M137.5,100c-0.8-0.8-2.2-0.8-3,0l-4.7,4.7c-0.8,0.8-0.8,2.2,0,3c0.4,0.4,1,0.6,1.5,0.6
					c0.5,0,1.1-0.2,1.5-0.6l4.7-4.7C138.3,102.2,138.3,100.8,137.5,100z"/>
				<path class="st5" d="M117.3,92.1c-1.2,0-2.1,1-2.1,2.1v7.3c0,1.2,1,2.1,2.1,2.1c1.2,0,2.1-1,2.1-2.1v-7.3
					C119.4,93.1,118.4,92.1,117.3,92.1z"/>
			</g>
			<circle class="st8" cx="127.1" cy="112" r="5.3"/>
		</g>
		<path class="st7" d="M162,198.5l-90.8-0.3c-3.5,0-6.3-3.3-6.3-6.8c0,0,78.1-23.6,96.9-154.9c3.8,0,7.1,2.8,7.1,6.3v148.6
			C168.9,195.8,167.3,198.5,162,198.5z"/>
		<text transform="matrix(1 0 0 1 100.2987 185.415)" class="st3 st9 st10 st11">visión</text>
		<path class="st8" d="M153.4,92.7c-0.4-0.1-0.8-0.3-1.2-0.5c-0.4-0.2-0.7-0.4-1.1-0.6c-0.5-0.4-1-0.8-1.5-1.2
			c-0.4-0.4-0.7-0.9-1.1-1.4c-0.4-0.7-0.8-1.4-1-2.2c-0.3,0.9-0.7,1.6-1.2,2.4c-0.3,0.5-0.7,0.9-1.1,1.3c-0.4,0.4-0.8,0.7-1.2,1
			c-0.4,0.3-0.8,0.5-1.3,0.7c-0.4,0.2-0.8,0.3-1.2,0.4c0.4,0.1,0.8,0.3,1.2,0.5s0.8,0.4,1.1,0.7c0.6,0.5,1.2,1,1.7,1.6
			c0.4,0.5,0.7,1,1,1.5c0.3,0.5,0.5,1,0.6,1.6c0.2-0.6,0.4-1.1,0.7-1.6c0.2-0.4,0.5-0.8,0.8-1.1c0.4-0.5,0.8-0.9,1.3-1.3
			c0.6-0.5,1.2-0.9,1.8-1.2C152.5,93,153,92.9,153.4,92.7z"/>
		<path class="st8" d="M146.7,84.5c-0.3-0.1-0.6-0.2-0.8-0.3s-0.5-0.3-0.8-0.5c-0.4-0.3-0.7-0.6-1-0.9c-0.3-0.3-0.5-0.6-0.8-1
			c-0.3-0.5-0.6-1-0.7-1.6c-0.2,0.6-0.5,1.2-0.9,1.7c-0.2,0.3-0.5,0.6-0.8,0.9c-0.3,0.3-0.6,0.5-0.9,0.7c-0.3,0.2-0.6,0.4-0.9,0.5
			c-0.3,0.1-0.5,0.2-0.8,0.3c0.3,0.1,0.6,0.2,0.9,0.4s0.6,0.3,0.8,0.5c0.5,0.3,0.9,0.7,1.2,1.2c0.3,0.3,0.5,0.7,0.7,1.1
			c0.2,0.4,0.3,0.7,0.5,1.1c0.1-0.4,0.3-0.8,0.5-1.1c0.2-0.3,0.3-0.6,0.6-0.8c0.3-0.3,0.6-0.7,0.9-0.9c0.4-0.3,0.8-0.6,1.3-0.8
			C146,84.7,146.3,84.6,146.7,84.5z"/>
		<path class="st8" d="M151.2,76.8c-0.3-0.1-0.6-0.2-0.8-0.3c-0.3-0.1-0.5-0.3-0.8-0.5c-0.4-0.3-0.7-0.6-1-0.9
			c-0.3-0.3-0.5-0.6-0.8-1c-0.3-0.5-0.6-1-0.7-1.6c-0.2,0.6-0.5,1.2-0.9,1.7c-0.2,0.3-0.5,0.6-0.8,0.9c-0.3,0.3-0.6,0.5-0.9,0.7
			c-0.3,0.2-0.6,0.4-0.9,0.5c-0.3,0.1-0.5,0.2-0.8,0.3c0.3,0.1,0.6,0.2,0.9,0.4s0.6,0.3,0.8,0.5c0.5,0.3,0.9,0.7,1.2,1.2
			c0.3,0.3,0.5,0.7,0.7,1.1c0.2,0.4,0.3,0.7,0.5,1.1c0.1-0.4,0.3-0.8,0.5-1.1c0.2-0.3,0.3-0.6,0.6-0.8c0.3-0.3,0.6-0.7,0.9-0.9
			c0.4-0.3,0.8-0.6,1.3-0.8C150.5,77,150.8,76.9,151.2,76.8z"/>
	</g>
	<g>
		<path class="st0" d="M156.9,161.5l-83.1,36.1c-3.2,1.4-6.9-0.1-8.3-3.3L6,57.4c-1.4-3.2,0.1-6.9,3.3-8.3L92.4,13
			c3.2-1.4,6.9,0.1,8.3,3.3l59.5,136.9C161.5,156.4,160.1,160.1,156.9,161.5z"/>
		<path class="st1" d="M155.8,161.1l-83.1,36.1c-3.2,1.4-6.9-0.1-8.3-3.3L5.3,57.7c-1.4-3.2,0.1-6.9,3.3-8.3l83.1-36.1
			c3.2-1.4,6.9,0.1,8.3,3.3l59.2,136.3C160.5,156,159,159.7,155.8,161.1z"/>
		<path class="st2" d="M149.6,158.7l-74.3,32.3c-3.2,1.4-6.9-0.1-8.3-3.3L11.5,60.1c-1.4-3.2,0.1-6.9,3.3-8.3l74.3-32.3
			c3.2-1.4,6.9,0.1,8.3,3.3l55.4,127.5C154.2,153.6,152.8,157.3,149.6,158.7z"/>
		<path class="st3" d="M149.6,158.7l-74.3,32.3c-3.2,1.4-6.9-0.1-8.3-3.3L11.5,60.1c-1.4-3.2,0.1-6.9,3.3-8.3l74.3-32.3
			c3.2-1.4,6.9,0.1,8.3,3.3l55.4,127.5C154.2,153.6,152.8,157.3,149.6,158.7z"/>
		<path class="st1" d="M149.6,158.7l-74.3,32.3c-3.2,1.4-6.9-0.1-8.3-3.3L61.4,175l85.9-37.3l5.5,12.7
			C154.2,153.6,152.8,157.3,149.6,158.7z"/>
		<g>
			<defs>
				<path id="SVGID_3_" d="M149.6,158.7l-74.3,32.3c-3.2,1.4-6.9-0.1-8.3-3.3L11.5,60.1c-1.4-3.2,0.1-6.9,3.3-8.3l74.3-32.3
					c3.2-1.4,6.9,0.1,8.3,3.3l55.4,127.5C154.2,153.6,152.8,157.3,149.6,158.7z"/>
			</defs>
			<clipPath id="SVGID_4_">
				<use xlink:href="#SVGID_3_"  style="overflow:visible;"/>
			</clipPath>
		</g>
		<path class="st4" d="M149.6,158.7l-74.3,32.3c-3.2,1.4-6.9-0.1-8.3-3.3L11.5,60.1c-1.4-3.2,0.1-6.9,3.3-8.3l74.3-32.3
			c3.2-1.4,6.9,0.1,8.3,3.3l55.4,127.5C154.2,153.6,152.8,157.3,149.6,158.7z"/>
		<g>
			<path class="st5" d="M114,92.5c1.7,0.7,2.4,2.7,1.5,4.3c-3.1,5.9-11.2,19.3-24.9,25.3s-29.1,2.8-35.5,1c-1.7-0.5-2.7-2.3-2.1-4
				c2.5-6.8,9.6-23,23.6-29S107.4,89.7,114,92.5z"/>
			<circle class="st3" cx="83.4" cy="106.1" r="14"/>
			<circle class="st6" cx="83.4" cy="106.1" r="5.3"/>
			<path class="st7" d="M114.3,92.6c1.5,0.7,2.2,2.4,1.4,3.9c-3,5.8-11.1,19.5-25.1,25.5c-13.9,6.1-29.5,2.7-35.7,0.9
				c-1.6-0.5-2.5-2.1-1.9-3.7c0,0,0,0,0-0.1c9.7,0.7,18.5,4,35-3.2s19.1-15.5,25-23.9C113.5,92.3,113.9,92.4,114.3,92.6z"/>
			<g>
				<path class="st5" d="M58.3,97c-1.1-0.4-2.3,0.1-2.8,1.2c-0.4,1.1,0.1,2.3,1.2,2.8l6.2,2.4c0.6,0.2,1.1,0.2,1.6,0
					c0.5-0.2,0.9-0.6,1.1-1.2c0.4-1.1-0.1-2.3-1.2-2.8L58.3,97z"/>
				<path class="st5" d="M94.6,81.2c-1.1-0.4-2.3,0.1-2.8,1.2l-2.4,6.2c-0.4,1.1,0.1,2.3,1.2,2.8c0.6,0.2,1.1,0.2,1.6,0
					c0.5-0.2,0.9-0.6,1.1-1.2l2.4-6.2C96.3,82.9,95.7,81.6,94.6,81.2z"/>
				<path class="st5" d="M72.9,82c-1.1,0.5-1.6,1.7-1.1,2.8l2.9,6.7c0.5,1.1,1.7,1.6,2.8,1.1c1.1-0.5,1.6-1.7,1.1-2.8l-2.9-6.7
					C75.3,82,74,81.5,72.9,82z"/>
			</g>
			<circle class="st8" cx="89.9" cy="96.3" r="5.3"/>
		</g>
		<path class="st7" d="M156.4,161.7l-83.4,36c-3.2,1.4-7.1-0.5-8.5-3.7c0,0,62.3-52.8,27.1-180.7c3.5-1.5,7.7-0.2,9,3l59.2,136.3
			C161.6,156.5,161.2,159.6,156.4,161.7z"/>
		<text transform="matrix(0.9172 -0.3985 0.3985 0.9172 94.5176 174.3462)" class="st3 st9 st10 st11">visión</text>
		<path class="st8" d="M107,71.3c-0.4,0-0.9,0.1-1.3,0s-0.8-0.1-1.3-0.1c-0.6-0.1-1.2-0.3-1.8-0.5c-0.5-0.2-1-0.5-1.5-0.8
			c-0.7-0.4-1.3-1-1.8-1.6c0.1,0.9,0,1.8-0.1,2.6c-0.1,0.6-0.3,1.1-0.5,1.6c-0.2,0.5-0.4,0.9-0.7,1.4c-0.3,0.4-0.5,0.8-0.9,1.2
			c-0.3,0.3-0.6,0.6-0.9,0.9c0.5,0,0.9-0.1,1.4,0c0.4,0,0.9,0.1,1.3,0.2c0.8,0.2,1.5,0.4,2.2,0.8c0.6,0.3,1.1,0.6,1.6,1
			c0.4,0.3,0.9,0.7,1.2,1.2c-0.1-0.6-0.1-1.2,0-1.7c0-0.5,0.1-0.9,0.2-1.4c0.1-0.6,0.4-1.2,0.6-1.7c0.3-0.7,0.7-1.3,1.2-1.8
			C106.3,71.9,106.6,71.6,107,71.3z"/>
		<path class="st8" d="M97.4,66.6c-0.3,0-0.6,0-0.9,0c-0.3,0-0.6,0-0.9-0.1c-0.5-0.1-0.9-0.2-1.3-0.4c-0.4-0.2-0.7-0.3-1.1-0.6
			c-0.5-0.3-0.9-0.7-1.3-1.1c0.1,0.6,0,1.3-0.1,1.9c-0.1,0.4-0.2,0.8-0.4,1.2c-0.1,0.3-0.3,0.7-0.5,1c-0.2,0.3-0.4,0.6-0.6,0.8
			c-0.2,0.2-0.4,0.4-0.6,0.6c0.3,0,0.6,0,1,0c0.3,0,0.6,0.1,1,0.1c0.6,0.1,1.1,0.3,1.6,0.5c0.4,0.2,0.8,0.4,1.1,0.7
			c0.3,0.2,0.6,0.5,0.9,0.8c0-0.4,0-0.8,0-1.2c0-0.3,0.1-0.7,0.2-1c0.1-0.4,0.3-0.8,0.4-1.2c0.2-0.5,0.5-0.9,0.8-1.3
			C96.9,67.1,97.2,66.8,97.4,66.6z"/>
		<path class="st8" d="M98.3,57.7c-0.3,0-0.6,0-0.9,0c-0.3,0-0.6,0-0.9-0.1c-0.5-0.1-0.9-0.2-1.3-0.4c-0.4-0.2-0.7-0.3-1.1-0.6
			c-0.5-0.3-0.9-0.7-1.3-1.1c0.1,0.6,0,1.3-0.1,1.9c-0.1,0.4-0.2,0.8-0.4,1.2c-0.1,0.3-0.3,0.7-0.5,1c-0.2,0.3-0.4,0.6-0.6,0.8
			c-0.2,0.2-0.4,0.4-0.6,0.6c0.3,0,0.6,0,1,0c0.3,0,0.6,0.1,1,0.1c0.6,0.1,1.1,0.3,1.6,0.5c0.4,0.2,0.8,0.4,1.1,0.7
			c0.3,0.2,0.6,0.5,0.9,0.8c0-0.4,0-0.8,0-1.2c0-0.3,0.1-0.7,0.2-1c0.1-0.4,0.3-0.8,0.4-1.2c0.2-0.5,0.5-0.9,0.8-1.3
			C97.8,58.1,98.1,57.9,98.3,57.7z"/>
	</g>
</g>
</svg>
