<svg xmlns="http://www.w3.org/2000/svg" viewBox="0 0 64 74"><defs><style>.a9cdf28d-0ef6-43f0-9f5c-b4335fb2645c{isolation:isolate;}.ab98931e-d3f9-47fd-b3aa-f0a6a0ea2732{fill:#e08736;}.a2d28ba3-a19b-49dc-9622-817f6396497a{fill:#ffe200;}.f08a284c-63df-475b-af25-816df6f12f01{fill:none;stroke:#ffe200;stroke-linecap:round;stroke-miterlimit:10;stroke-width:4px;}.f0bf0920-8dbc-441f-a7e9-ee3be025015e{opacity:0.09;mix-blend-mode:multiply;}</style></defs><g class="a9cdf28d-0ef6-43f0-9f5c-b4335fb2645c"><g id="a4cdfe24-d970-4a48-bed7-d3524b88a251" data-name="Capa 1"><path class="ab98931e-d3f9-47fd-b3aa-f0a6a0ea2732" d="M53.78,50.29,34.51,67.58a3.16,3.16,0,0,1-4.2,0L10.6,50.3A18.31,18.31,0,0,1,4.37,36.55V11.7A3.17,3.17,0,0,1,6.82,8.62l10-2.29a68.47,68.47,0,0,1,30.61,0l10,2.29a3.17,3.17,0,0,1,2.45,3.08v25A18.3,18.3,0,0,1,53.78,50.29Z"/><path class="a2d28ba3-a19b-49dc-9622-817f6396497a" d="M32.12,4.6a68.77,68.77,0,0,1,15.3,1.73l10,2.29a3.17,3.17,0,0,1,2.45,3.08v25a18.3,18.3,0,0,1-6.08,13.62L34.51,67.58a3.16,3.16,0,0,1-4.2,0L10.6,50.3A18.31,18.31,0,0,1,4.37,36.55V11.7A3.17,3.17,0,0,1,6.82,8.62l10-2.29A68.79,68.79,0,0,1,32.12,4.6m0-4A72.47,72.47,0,0,0,15.91,2.4l-10,2.29a7.16,7.16,0,0,0-5.58,7V36.55a22.34,22.34,0,0,0,7.6,16.78L27.65,70.64a7.22,7.22,0,0,0,4.75,1.78,7.14,7.14,0,0,0,4.8-1.84L56.48,53.29a22.37,22.37,0,0,0,7.41-16.62v-25a7.16,7.16,0,0,0-5.58-7l-10-2.29A72.45,72.45,0,0,0,32.12.56Z"/><path class="a2d28ba3-a19b-49dc-9622-817f6396497a" d="M20.1,31.11a1.8,1.8,0,0,1-1.39-.66L11.84,22a1.79,1.79,0,0,1,2.78-2.25l5.74,7.07,11.77-9.54A1.78,1.78,0,1,1,34.38,20L21.22,30.71A1.83,1.83,0,0,1,20.1,31.11Z"/><path class="a2d28ba3-a19b-49dc-9622-817f6396497a" d="M45.93,43.34,51.24,38a1.78,1.78,0,1,0-2.52-2.52l-5.3,5.31-5.3-5.31A1.78,1.78,0,0,0,35.6,38l5.31,5.3-5.31,5.3a1.78,1.78,0,1,0,2.52,2.51l5.3-5.3,5.3,5.3a1.78,1.78,0,1,0,2.52-2.51Z"/><line class="f08a284c-63df-475b-af25-816df6f12f01" x1="56.38" y1="8.23" x2="11.49" y2="53.13"/><path class="f0bf0920-8dbc-441f-a7e9-ee3be025015e" d="M8.05,53.33,27.77,70.64a7.19,7.19,0,0,0,9.54-.06L56.59,53.29A22.38,22.38,0,0,0,64,36.67v-25C54.44,46.91,47,55.26,33,59.93,30.33,60.82,7.3,52.67,8.05,53.33Z"/></g></g></svg>