<svg xmlns="http://www.w3.org/2000/svg" viewBox="0 0 93.77 104.56"><defs><style>.aae34fea-760f-47c1-92b5-1399743aef91{isolation:isolate;}.f2541783-1da5-4570-978c-05b5fa7970bf{fill:#61af63;}.b3ff37a2-ff23-4a86-9225-927c3e31a1f3{fill:#ffe200;}.ee83ab50-e364-4462-bab5-7a1bbc26a7ac{fill:#6dcc72;}.aa081ce0-b51e-4174-b225-32d3d1d740f4{opacity:0.09;mix-blend-mode:multiply;}</style></defs><g class="aae34fea-760f-47c1-92b5-1399743aef91"><g id="a76e6e34-a65b-4347-b389-748afdd07c5c" data-name="Capa 1"><path class="f2541783-1da5-4570-978c-05b5fa7970bf" d="M3.82,102.65a1.9,1.9,0,0,1-1.89-2.17L4.12,84.32a1.91,1.91,0,0,1,.56-1.11L61,28.11a1.87,1.87,0,0,1,1.33-.55,1.93,1.93,0,0,1,1.26.47l4.27,3.73a1.9,1.9,0,0,1,.28,2.58l-47,63.19a1.87,1.87,0,0,1-1,.7L4.33,102.58A1.79,1.79,0,0,1,3.82,102.65Z"/><path class="b3ff37a2-ff23-4a86-9225-927c3e31a1f3" d="M62.29,29.47l2,1.75.28.24,2,1.74-47,63.19L3.82,100.74,6,84.58,62.29,29.47m0-3.82a3.84,3.84,0,0,0-2.67,1.09L3.34,81.85a3.75,3.75,0,0,0-1.11,2.22L0,100.23a3.82,3.82,0,0,0,3.79,4.33,3.58,3.58,0,0,0,1-.14l15.72-4.35a3.81,3.81,0,0,0,2.05-1.4l47-63.19a3.81,3.81,0,0,0-.55-5.15l-2-1.75-.27-.24-2-1.75a3.83,3.83,0,0,0-2.52-.94Z"/><path class="f2541783-1da5-4570-978c-05b5fa7970bf" d="M77.66,38.84h-.19l-3.88-.38a2,2,0,0,1-1-.44l-7.63-6.46a1.56,1.56,0,0,1-.2-.16l-.21-.19-.16-.13-.18-.17-7.43-6.71a1.87,1.87,0,0,1-.58-1l-.9-3.8a1.91,1.91,0,0,1,1.38-2.29l2.13-.54a2,2,0,0,1,.48-.06,1.89,1.89,0,0,1,1.25.47l5.63,4.92L81.53,7.11a4.56,4.56,0,0,1,1.1-3.62,4.6,4.6,0,0,1,6.5-.44,4.61,4.61,0,0,1,.45,6.5,4.62,4.62,0,0,1-3.45,1.58L73.54,28.39l5.63,4.92A1.92,1.92,0,0,1,79.81,35l-.26,2.18A1.9,1.9,0,0,1,77.66,38.84Z"/><path class="b3ff37a2-ff23-4a86-9225-927c3e31a1f3" d="M86.1,3.82a2.71,2.71,0,0,1,2,4.48,2.72,2.72,0,0,1-2,.92,2.68,2.68,0,0,1-.84-.13L71,28.68l7,6.07-.25,2.18-3.88-.38L66,30h0l-.21-.18-.21-.18h0L58,22.78l-.9-3.8,2.13-.54,6.95,6.07L83.67,7.7A2.7,2.7,0,0,1,86.1,3.82M86.1,0h0a6.53,6.53,0,0,0-6.52,6.33l-13.52,13-4.31-3.77a3.82,3.82,0,0,0-3.46-.82l-2.13.54a3.83,3.83,0,0,0-2.77,4.59l.9,3.79a3.81,3.81,0,0,0,1.16,1.95l7.38,6.66a3.58,3.58,0,0,0,.28.26l.16.14.16.14a3.07,3.07,0,0,0,.29.24l7.59,6.42a3.76,3.76,0,0,0,2.1.88l3.87.38.38,0a3.82,3.82,0,0,0,3.79-3.38l.26-2.18a3.84,3.84,0,0,0-1.29-3.32L76.11,28.1,87.17,13a6.53,6.53,0,0,0,5.44-6.87A6.53,6.53,0,0,0,86.1,0Z"/><path class="f2541783-1da5-4570-978c-05b5fa7970bf" d="M88.8,102.65a1.79,1.79,0,0,1-.51-.07L72.57,98.23a1.87,1.87,0,0,1-1-.7l-47-63.19a1.92,1.92,0,0,1,.28-2.58L29.07,28a1.93,1.93,0,0,1,1.26-.47,1.89,1.89,0,0,1,1.34.55L88,83.21a1.9,1.9,0,0,1,.55,1.11l2.19,16.16a1.9,1.9,0,0,1-1.89,2.17Z"/><path class="b3ff37a2-ff23-4a86-9225-927c3e31a1f3" d="M30.33,29.47,86.61,84.58l2.19,16.16L73.08,96.39l-47-63.19,2-1.74.27-.24,2-1.75m0-3.82a3.79,3.79,0,0,0-2.51.94l-2,1.75-.28.24-2,1.75A3.81,3.81,0,0,0,23,35.48L70,98.67a3.82,3.82,0,0,0,2,1.4l15.72,4.35a3.58,3.58,0,0,0,1,.14,3.81,3.81,0,0,0,3.79-4.33L90.4,84.07a3.82,3.82,0,0,0-1.12-2.22L33,26.74a3.82,3.82,0,0,0-2.67-1.09Z"/><path class="f2541783-1da5-4570-978c-05b5fa7970bf" d="M15,38.84a1.91,1.91,0,0,1-1.89-1.69L12.82,35a1.87,1.87,0,0,1,.64-1.66l5.63-4.92L6.49,11.13a4.6,4.6,0,1,1,4.61-4L26.5,21.92,32.13,17a1.91,1.91,0,0,1,1.73-.41l2.13.54a1.91,1.91,0,0,1,1.39,2.29l-.9,3.8a1.94,1.94,0,0,1-.58,1L28.46,30.9a1,1,0,0,1-.18.17l-.21.18-.15.14-.2.16L20.08,38a1.93,1.93,0,0,1-1,.44l-3.88.38Z"/><path class="b3ff37a2-ff23-4a86-9225-927c3e31a1f3" d="M6.52,3.82A2.69,2.69,0,0,1,9,7.7L26.44,24.51l7-6.07,2.13.54-.9,3.8L27.05,29.6h0l-.21.18-.21.18h0l-7.79,6.58L15,36.93l-.26-2.18,7-6.07L7.36,9.09a2.7,2.7,0,0,1-2.62-4.6,2.71,2.71,0,0,1,1.78-.67M6.52,0A6.52,6.52,0,0,0,1.61,10.81,6.45,6.45,0,0,0,5.46,13L16.51,28.1,12.2,31.87a3.81,3.81,0,0,0-1.28,3.32l.25,2.18A3.83,3.83,0,0,0,15,40.75l.38,0,3.88-.38a3.76,3.76,0,0,0,2.09-.88l7.59-6.42a2.17,2.17,0,0,0,.29-.24l.16-.14.17-.14a3.57,3.57,0,0,0,.28-.27l7.38-6.65a3.88,3.88,0,0,0,1.16-1.95l.89-3.8a3.82,3.82,0,0,0-2.77-4.58l-2.13-.54a3.79,3.79,0,0,0-.94-.12,3.86,3.86,0,0,0-2.52.94l-4.31,3.77L13,6.33A6.53,6.53,0,0,0,6.52,0Z"/><path class="ee83ab50-e364-4462-bab5-7a1bbc26a7ac" d="M69.26,78.82,50,96.12a3.17,3.17,0,0,1-4.19,0L26.07,78.83a18.28,18.28,0,0,1-6.23-13.75V40.24a3.16,3.16,0,0,1,2.46-3.08l10-2.29a68.18,68.18,0,0,1,30.61,0l10,2.29a3.17,3.17,0,0,1,2.45,3.08v25A18.31,18.31,0,0,1,69.26,78.82Z"/><path class="b3ff37a2-ff23-4a86-9225-927c3e31a1f3" d="M47.59,33.13a68.13,68.13,0,0,1,15.3,1.74l10,2.29a3.17,3.17,0,0,1,2.45,3.08v25a18.31,18.31,0,0,1-6.07,13.62L50,96.12a3.17,3.17,0,0,1-4.19,0L26.07,78.83a18.28,18.28,0,0,1-6.23-13.75V40.24a3.16,3.16,0,0,1,2.46-3.08l10-2.29a68.22,68.22,0,0,1,15.31-1.74m0-4a72.47,72.47,0,0,0-16.21,1.84l-10,2.29a7.16,7.16,0,0,0-5.58,7V65.08a22.32,22.32,0,0,0,7.6,16.78L43.13,99.17a7.18,7.18,0,0,0,9.54,0L72,81.82A22.36,22.36,0,0,0,79.37,65.2v-25a7.16,7.16,0,0,0-5.59-7l-10-2.29a72.39,72.39,0,0,0-16.2-1.84Z"/><path class="aa081ce0-b51e-4174-b225-32d3d1d740f4" d="M23.41,81.86,43.13,99.17a7.18,7.18,0,0,0,9.54,0L72,81.82A22.36,22.36,0,0,0,79.37,65.2v-25c-9.57,35.2-17,43.55-31,48.22C45.69,89.36,22.66,81.21,23.41,81.86Z"/><path class="b3ff37a2-ff23-4a86-9225-927c3e31a1f3" d="M45,69.48a1.94,1.94,0,0,1-1.49-.71l-7.38-9.09a1.92,1.92,0,1,1,3-2.42l6.17,7.6L58,54.6a1.92,1.92,0,0,1,2.42,3L46.23,69.05A2,2,0,0,1,45,69.48Z"/></g></g></svg>