<svg xmlns="http://www.w3.org/2000/svg" xmlns:xlink="http://www.w3.org/1999/xlink" viewBox="0 0 803.88 878.26"><defs><style>.cls-1{isolation:isolate;}.cls-2{fill:#161212;}.cls-3{opacity:0.09;}.cls-13,.cls-3{mix-blend-mode:multiply;}.cls-4{fill:#f2b89b;}.cls-13,.cls-5{fill:#23252b;}.cls-6{fill:#183a70;}.cls-7{fill:#3e4249;}.cls-8{fill:#a2acea;}.cls-9{fill:#fff;}.cls-10,.cls-14,.cls-16{fill:none;}.cls-10,.cls-16{stroke:#fff;}.cls-10,.cls-14{stroke-linecap:round;}.cls-10{stroke-linejoin:round;stroke-width:10px;}.cls-11{fill:#58585a;}.cls-12{fill:url(#Degradado_sin_nombre_27);}.cls-13{opacity:0.21;}.cls-14{stroke:#f2b89b;stroke-width:42px;}.cls-14,.cls-16{stroke-miterlimit:10;}.cls-15{fill:#3a3e47;}</style><radialGradient id="Degradado_sin_nombre_27" cx="385.51" cy="761.8" r="71.67" gradientUnits="userSpaceOnUse"><stop offset="0" stop-color="#1d3ea6"/><stop offset="0.91" stop-color="#010230"/><stop offset="1" stop-color="#9d93e1"/></radialGradient></defs><g class="cls-1"><g id="Capa_1" data-name="Capa 1"><path class="cls-2" d="M441,864.08H323.29c-26.24,0-47.51,18.73-47.51-7.51l30-172.93-30-132.18c0-26.24,2.29-44.51,28.53-44.51H450.07c26.23,0,38.48,18.27,38.48,44.51l-30,134.06,30,171.05C488.55,882.81,467.28,864.08,441,864.08Z"/><polygon class="cls-3" points="488.64 551.46 484.16 571.16 463.49 545.1 488.64 551.46"/><path class="cls-2" d="M441,864.08H323.29c-26.24,0-47.51,18.73-47.51-7.51l30-172.93L293,628.69S323.29,611.16,323.29,507h13.79c0,68.62-1.15,68.62,43.91,68.62,47.51,0,47.51-.06,47.51-68.62H441c0,90.23,30.28,121.69,30.28,121.69l-12.77,55,30,172.93C488.55,882.81,467.28,864.08,441,864.08Z"/><path class="cls-4" d="M421.86,509.39s-11.65,25.06-39.07,25.06-40.32-25.06-40.32-25.06V445.61h79.39Z"/><polygon class="cls-3" points="342.47 460.69 342.47 506.95 403.49 473.54 342.47 460.69"/><ellipse class="cls-4" cx="380.65" cy="297.24" rx="167.57" ry="177.85"/><path class="cls-3" d="M548.22,297.24c0,98.22-75,177.84-167.57,177.84C544.89,413.63,521,330.9,516.91,193.7A184.46,184.46,0,0,1,548.22,297.24Z"/><circle class="cls-5" cx="311.7" cy="299.98" r="20.22"/><path class="cls-5" d="M296.77,286.39c-4.85,4.72-6.67,10.52-10.95,13.78a1.36,1.36,0,0,0,.81,2.44h12.74a1.35,1.35,0,0,0,1.35-1.21C301.21,296.79,302.52,280.79,296.77,286.39Z"/><circle class="cls-5" cx="446.14" cy="299.98" r="20.22"/><path class="cls-5" d="M461.07,286.39c4.85,4.72,6.67,10.52,10.95,13.78a1.36,1.36,0,0,1-.81,2.44H458.47a1.35,1.35,0,0,1-1.35-1.21C456.64,296.79,455.33,280.79,461.07,286.39Z"/><path class="cls-6" d="M332.11,400.84s37.18-14.59,48.54-8.47v8.47H331.16"/><path class="cls-6" d="M429.14,400.84s-37.19-14.59-48.55-8.47v8.47h49.49"/><path class="cls-4" d="M238.46,324.91c0,13.77-10.43,24.93-23.3,24.93s-23.3-11.16-23.3-24.93S196.7,300,209.56,300,238.46,311.14,238.46,324.91Z"/><path class="cls-7" d="M196.11,313.65l-9.18-5.25a3.3,3.3,0,0,1-.9-5l5.85-7a3.3,3.3,0,0,1,5.06,0l6.82,8.07a3.28,3.28,0,0,1,0,4.24l-3.5,4.21A3.29,3.29,0,0,1,196.11,313.65Z"/><path class="cls-7" d="M195.18,327.21l-10,3.5a3.3,3.3,0,0,1-4.35-2.57l-1.49-9a3.3,3.3,0,0,1,3.29-3.84l10.57.12a3.29,3.29,0,0,1,3.22,2.76l.89,5.4A3.3,3.3,0,0,1,195.18,327.21Z"/><path class="cls-7" d="M206.33,341.3l-6.26,8.52a3.3,3.3,0,0,1-5,.32l-6.31-6.61a3.29,3.29,0,0,1,.56-5l8.79-5.86a3.3,3.3,0,0,1,4.22.46l3.78,4A3.29,3.29,0,0,1,206.33,341.3Z"/><circle class="cls-8" cx="384.7" cy="741.72" r="111.02"/><ellipse class="cls-9" cx="422.2" cy="687.93" rx="22.66" ry="22.5"/><path class="cls-10" d="M353.47,659.63S317.26,673,307.32,710.34"/><line class="cls-10" x1="301.16" y1="733.42" x2="302.98" y2="724.89"/><polygon class="cls-5" points="473.78 877.18 299.79 877.18 319.4 829.85 454.18 829.85 473.78 877.18"/><polygon class="cls-11" points="473.78 864.08 297.82 864.08 303.71 855.32 469.86 855.32 473.78 864.08"/><path class="cls-12" d="M411,729.6H358.36a12.23,12.23,0,0,0-12.22,12.23v37.6a12.22,12.22,0,0,0,12.22,12.22H411a12.22,12.22,0,0,0,12.23-12.22v-37.6A12.23,12.23,0,0,0,411,729.6Zm-12,26.87h-6.75l-2.42,7.62h6.83l-1.07,3.49h-6.9L385.63,777h-3.22l3-9.45h-5.89l-3,9.45h-3.23l3-9.45H369.7l1.1-3.49h6.63l2.46-7.62h-6.75l1.14-3.51H381l3-9.47h3.26L384.25,753h5.87l3.07-9.47h3.22l-3,9.47h6.75Z"/><path class="cls-12" d="M357.73,727.29h11.6c0-25.52,15.08-23.78,15.08-23.78,18.56,0,15.66,23.78,15.66,23.78h11.59c0-39.44-27.25-35.38-27.25-35.38C354.84,691.91,357.73,727.29,357.73,727.29Z"/><ellipse class="cls-9" cx="450.07" cy="714.79" rx="15.86" ry="15.24"/><ellipse class="cls-9" cx="462.09" cy="687.93" rx="11.69" ry="11.61"/><path class="cls-4" d="M278.73,690.13l-9.65,18.31a18.12,18.12,0,0,1-24.33,8l-28.63-20.37a18.13,18.13,0,0,1-8-24.34l5.53-11a18.13,18.13,0,0,1,24.34-8L270.24,667C279.18,671.54,283.23,681.19,278.73,690.13Z"/><rect class="cls-4" x="233.75" y="645.77" width="28.39" height="17.26" rx="6.56" transform="translate(-204.28 120.35) rotate(-19.51)"/><path class="cls-4" d="M471.37,680.84l10.5,17.83a18.12,18.12,0,0,0,24.68,6.88l27.64-21.7a18.12,18.12,0,0,0,6.89-24.68L535,648.44a18.12,18.12,0,0,0-24.69-6.88l-31.58,15.81C470,662.29,466.45,672.12,471.37,680.84Z"/><rect class="cls-4" x="486.24" y="635.06" width="28.39" height="17.26" rx="6.56" transform="matrix(-0.96, -0.29, 0.29, -0.96, 793.43, 1404.56)"/><path class="cls-5" d="M554.56,169c-6.46-18.22,19.34-62.92-32.74-82.84-37.37-14.3-39.39,9.44-77.7,3.15-31.24-5.13-35.42-2.82-45.21-12.12C374.5,54,331.34,50.54,289.75,100.87s-36,62.49-26.63,69.61c36.06-13.57,101.18-1.5,118.11,56.62,9.69-.28,9.69-.28,20.24-.29,81-56.38,102.06,22.61,110.92,42.88s18.41,51.49.93,78.75S477,364.76,484,403.43s17.48,34.26,16.78,51.5-16.08,6.36-23.07,35.1S501.2,567.94,515,569.1s14,31,4.89,47.77c0,0,35.42-26.56,26.1-57.32s-27-24.47-17-45.9,3.73.93,31-43.11c14.19-22.91,23.52-40.28,27.15-55.67,3.35-14.18-13.21-23.78-12.47-43.47,1.4-37,23.07-22.72,26.91-40.9,4.64-21.91-6.64-22.25-12.23-54.87s8.63-26.92,2.8-58.72C588,194.73,562.73,192.07,554.56,169Z"/><path class="cls-6" d="M355.91,421.85c1.7.67,5.08,12.81,26.26,12.81s24.92-13.23,24.92-13.23Z"/><path class="cls-9" d="M332.11,400.84h97.77s-11,25.58-48.89,25.58S332.11,400.84,332.11,400.84Z"/><path class="cls-13" d="M381.23,227.1s-35-33.24-96-13.68-59.14,115-59.14,115H215.65s-6.73-30.19,2.58-75,44.89-82.89,44.89-82.89,13.57-29.06,48.58-26.62,60.18,39.5,60.18,39.5Z"/><path class="cls-14" d="M463.49,528.79c85.87,0,120.79,29.34,125.56,64.34,6.58,48.3-59.19,64.28-59.19,64.28"/><path class="cls-2" d="M518.68,555.43a21.75,21.75,0,0,1-4.51-.48c-14.45-3.09-31.51-4.66-50.68-4.66a21.5,21.5,0,0,1,0-43c22.19,0,42.27,1.89,59.67,5.61a21.5,21.5,0,0,1-4.48,42.53Z"/><path class="cls-15" d="M381.23,227.1c58.82,0,91.12-1.71,91.12,37.66,0,51,24.38,37.66,39.78,73.1s27,39.88,6.42,63.14-37.22,41-14.12,73.11,5.13,48.74-3.85,60.92S455.66,551.65,449.25,524c0,0,1.28,50.95,39.78,49.84s69.3-8.86,69.3-47.63-13.38-42.76-.54-74.88,28.78-55.83,26.21-92.38-4.37-62.71-18.49-91.51-8.46-55.81-38-78-60.32-33.23-84.7-21S374.81,180.57,381.23,227.1Z"/><polygon class="cls-3" points="275.78 551.46 280.26 571.16 300.93 545.1 275.78 551.46"/><path class="cls-14" d="M299.45,528.79c-85.87,0-131.92,36.43-122.83,84.32S233.94,678,233.94,678"/><ellipse class="cls-9" cx="669.26" cy="255.12" rx="11" ry="11.45" transform="translate(105.36 696.71) rotate(-58.93)"/><ellipse class="cls-9" cx="711.73" cy="267.86" rx="11" ry="11.45" transform="translate(114.99 739.25) rotate(-58.93)"/><ellipse class="cls-9" cx="741.43" cy="308.78" rx="11" ry="11.45" transform="matrix(0.52, -0.86, 0.86, 0.52, 94.31, 784.49)"/><ellipse class="cls-9" cx="689.69" cy="348.71" rx="8.7" ry="9.06" transform="translate(35.07 759.5) rotate(-58.93)"/><ellipse class="cls-9" cx="717.18" cy="352.07" rx="11" ry="11.45" transform="translate(45.5 784.67) rotate(-58.93)"/><ellipse class="cls-9" cx="650.72" cy="322.55" rx="11" ry="11.45" transform="translate(38.62 713.47) rotate(-58.93)"/><ellipse class="cls-9" cx="639.34" cy="294.14" rx="11" ry="11.45" transform="translate(57.45 689.97) rotate(-58.93)"/><ellipse class="cls-9" cx="695.5" cy="292.6" rx="11" ry="11.45" transform="translate(85.95 737.32) rotate(-58.93)"/><ellipse class="cls-9" cx="684.19" cy="364.42" rx="7.59" ry="7.9" transform="translate(18.96 762.39) rotate(-58.93)"/><ellipse class="cls-9" cx="616.14" cy="382.87" rx="7.59" ry="7.9" transform="translate(-29.78 713.03) rotate(-58.93)"/><ellipse class="cls-9" cx="666.73" cy="382.49" rx="7.59" ry="7.9" transform="matrix(0.52, -0.86, 0.86, 0.52, -4.97, 756.18)"/><ellipse class="cls-9" cx="662.35" cy="365.13" rx="7.59" ry="7.9" transform="translate(7.78 744.03) rotate(-58.93)"/><ellipse class="cls-9" cx="670.61" cy="345.41" rx="7.59" ry="7.9" transform="translate(28.67 741.57) rotate(-58.93)"/><ellipse class="cls-9" cx="649.51" cy="388.19" rx="7.59" ry="7.9" transform="translate(-18.19 744.19) rotate(-58.93)"/><ellipse class="cls-9" cx="658" cy="406.6" rx="7.59" ry="7.9" transform="translate(-29.85 760.37) rotate(-58.93)"/><ellipse class="cls-9" cx="624.9" cy="411.98" rx="7.59" ry="7.9" transform="translate(-50.48 734.62) rotate(-58.93)"/><polyline class="cls-16" points="81.96 146.97 78.03 125.85 94.06 97.42 119.88 90.29 141.8 106.72 149.02 129.28 169.79 134.61 191.57 194.29 178.75 216.89 111.66 239.77 86.44 232.45 68.09 166.73 77.13 154.66 137.65 133.47"/><ellipse class="cls-9" cx="135.8" cy="133.51" rx="6.1" ry="5.86" transform="translate(-34.23 47.74) rotate(-17.75)"/><ellipse class="cls-9" cx="77.13" cy="154.67" rx="6.1" ry="5.86" transform="translate(-43.47 30.87) rotate(-17.75)"/><ellipse class="cls-9" cx="67.45" cy="167.8" rx="6.1" ry="5.86" transform="translate(-47.93 28.54) rotate(-17.75)"/><ellipse class="cls-9" cx="86.44" cy="232.45" rx="6.1" ry="5.86" transform="matrix(0.95, -0.3, 0.3, 0.95, -66.74, 37.41)"/><ellipse class="cls-9" cx="110.85" cy="240.03" rx="6.1" ry="5.86" transform="translate(-67.88 45.21) rotate(-17.75)"/><ellipse class="cls-9" cx="178.23" cy="216.63" rx="6.1" ry="5.86" transform="translate(-57.55 64.63) rotate(-17.75)"/><ellipse class="cls-9" cx="191.46" cy="194.88" rx="6.1" ry="5.86" transform="matrix(0.95, -0.3, 0.3, 0.95, -50.29, 67.63)"/><ellipse class="cls-9" cx="169" cy="135.3" rx="6.1" ry="5.86" transform="translate(-33.2 57.95) rotate(-17.75)"/><ellipse class="cls-9" cx="149.39" cy="129.16" rx="6.1" ry="5.86" transform="translate(-32.26 51.68) rotate(-17.75)"/><ellipse class="cls-9" cx="141.57" cy="106.93" rx="6.1" ry="5.86" transform="translate(-25.85 48.24) rotate(-17.75)"/><ellipse class="cls-9" cx="120.8" cy="90.56" rx="6.1" ry="5.86" transform="translate(-21.85 41.13) rotate(-17.75)"/><ellipse class="cls-9" cx="94.98" cy="97.69" rx="6.1" ry="5.86" transform="translate(-25.26 33.6) rotate(-17.75)"/><ellipse class="cls-9" cx="78.58" cy="125.4" rx="6.1" ry="5.86" transform="translate(-34.48 29.92) rotate(-17.75)"/><ellipse class="cls-9" cx="82.15" cy="144.52" rx="6.1" ry="5.86" transform="translate(-40.14 31.92) rotate(-17.75)"/><polyline class="cls-16" points="687.23 347.57 717.67 351.87 741.83 309.72 712.74 266.18 668.16 254.14 639.24 294.31 651.53 324.25 616.21 382.88 623.99 413.48 658.33 406.78 650.43 388.19 668.05 383.24 660.82 365.01 682.59 363.76 670.59 344.4"/><path class="cls-2" d="M245.93,556A21.5,21.5,0,0,1,241,513.52c17.52-4.13,37.18-6.23,58.44-6.23a21.5,21.5,0,1,1,0,43c-17.94,0-34.28,1.71-48.57,5.08A21.57,21.57,0,0,1,245.93,556Z"/></g></g></svg>