<?xml version="1.0" encoding="utf-8"?>
<!-- Generator: Adobe Illustrator 24.1.2, SVG Export Plug-In . SVG Version: 6.00 Build 0)  -->
<svg version="1.1" id="Capa_1" xmlns="http://www.w3.org/2000/svg" xmlns:xlink="http://www.w3.org/1999/xlink" x="0px" y="0px"
	 viewBox="0 0 900 900" style="enable-background:new 0 0 900 900;" xml:space="preserve">
<style type="text/css">
	.st0{opacity:0.15;}
	.st1{fill:#FFFFFF;}
	.st2{opacity:0.09;}
	.st3{opacity:0.59;}
	.st4{opacity:0.38;}
</style>
<g class="st0">
	<g>
		<path class="st1" d="M450.93,2.79c-248.53,0-450,201.47-450,450s201.47,450,450,450c248.53,0,450-201.47,450-450
			S699.46,2.79,450.93,2.79z M450.93,883.58c-237.92,0-430.79-192.87-430.79-430.79S213.01,22,450.93,22
			c237.92,0,430.79,192.87,430.79,430.79S688.85,883.58,450.93,883.58z"/>
	</g>
	<g>
		<g>
			<path class="st1" d="M406.38,112.32c-13.5-8.06-47.87-25.48-79.85-16.43s-52.13,41.89-59.41,55.83c-1.82,3.48-0.3,7.76,3.3,9.33
				c13.32,5.77,45.49,17.09,76.86,8.21c31.37-8.88,52.85-35.37,61.17-47.26C410.7,118.78,409.75,114.33,406.38,112.32z
				 M344.64,162.05c-16.19,4.58-33.03-4.83-37.61-21.02s4.83-33.03,21.02-37.61c16.19-4.58,33.03,4.83,37.61,21.02
				S360.83,157.47,344.64,162.05z"/>
		</g>
		<g>
			<circle class="st1" cx="336.34" cy="132.73" r="11.56"/>
		</g>
		<g class="st2">
			<path class="st1" d="M406.91,112.64c3.07,1.85,3.93,5.91,1.89,8.85c-8.06,11.64-29.7,38.76-61.52,47.76
				c-31.82,9-64.47-2.77-77.42-8.46c-3.28-1.44-4.67-5.35-3.03-8.53c0.02-0.04,0.04-0.07,0.06-0.11c20.69,4.4,38.75,14.03,76.5,3.35
				s45.65-27.84,60.92-44.39C405.25,111.66,406.12,112.17,406.91,112.64z"/>
		</g>
		<g>
			<g>
				<path class="st1" d="M284.73,105.8c-2.25-1.26-5.1-0.45-6.35,1.8c-1.26,2.25-0.45,5.1,1.8,6.35l12.63,7.06
					c1.13,0.63,2.4,0.74,3.55,0.42s2.18-1.09,2.8-2.21c1.26-2.25,0.45-5.1-1.8-6.35L284.73,105.8z"/>
			</g>
			<g>
				<path class="st1" d="M367.8,82.3c-2.25-1.26-5.1-0.45-6.35,1.8l-7.06,12.63c-1.26,2.25-0.45,5.1,1.8,6.35
					c1.13,0.63,2.4,0.74,3.55,0.42c1.15-0.33,2.18-1.09,2.8-2.21l7.06-12.63C370.86,86.4,370.05,83.55,367.8,82.3z"/>
			</g>
			<g>
				<path class="st1" d="M320.79,77.74c-2.48,0.7-3.92,3.28-3.22,5.76l4.3,15.22c0.7,2.48,3.28,3.92,5.76,3.22
					c2.48-0.7,3.92-3.28,3.22-5.76l-4.3-15.22C325.85,78.48,323.27,77.04,320.79,77.74z"/>
			</g>
		</g>
		<g>
			<circle class="st1" cx="353.14" cy="113.53" r="11.56"/>
		</g>
	</g>
	<g>
		<g>
			<path class="st1" d="M99.33,262.37L72.9,292.2c-2.29,2.58-3.63,5.87-3.8,9.32l-1.88,37.28c-0.44,8.73,6.55,16.03,15.3,15.97
				l82.2,5.89c6.08-0.04,11.56-3.71,13.91-9.32l6.75-16.09c2.29-5.46,1.2-11.76-2.79-16.14l-60.64-56.91
				C115.85,255.53,105.32,255.61,99.33,262.37z M116.73,266.96l60.64,56.91c2.13,2.34,2.72,5.73,1.5,8.65l-6.75,16.09
				c-1.26,3.01-4.19,4.97-7.45,4.99l-82.2-5.89c-2.27,0.02-4.38-0.88-5.94-2.51c-1.57-1.64-2.37-3.78-2.25-6.05l1.88-37.28
				c0.05-0.95,0.26-1.87,0.62-2.74c0.35-0.82,0.82-1.58,1.41-2.25l26.43-29.83c1.55-1.75,3.7-2.73,6.04-2.74
				C112.99,264.29,115.15,265.23,116.73,266.96z"/>
		</g>
		<g>
			<g>
				<path class="st1" d="M137.96,328.92c-0.44,1.04-1.32,1.88-2.49,2.23l-22.72,6.65c-2.06,0.6-4.21-0.58-4.82-2.63
					c-0.6-2.06,0.58-4.21,2.64-4.82l19-5.56l-9.22-31.63c-0.6-2.06,0.58-4.21,2.64-4.81c2.06-0.6,4.21,0.58,4.81,2.64l10.31,35.36
					C138.37,327.22,138.29,328.13,137.96,328.92z"/>
			</g>
		</g>
		<g>
			<g class="st2">
				<path class="st1" d="M116.73,266.96l17.42,16.35C124.34,273.29,116.11,266.28,116.73,266.96z"/>
			</g>
			<g class="st2">
				<path class="st1" d="M95.15,348.62l-12.69-0.91C82.16,347.71,87.31,348.24,95.15,348.62z"/>
			</g>
			<g class="st2">
				<path class="st1" d="M156.38,304.16l-22.23-20.86c8.75,8.93,18.76,20.25,24.88,30.63c0.89,5.27,0.74,10.06-0.51,14.36
					c-0.32,1.1-2.5,5.83-3.35,7.05c-3.18,4.63-8.12,8.46-14.9,11.48c-14.82,2.58-33.13,2.36-45.13,1.79l32.62,2.34
					c-11.67,2.8-26.68,4.11-45.25,3.81l82.2,5.89c6.08-0.04,11.56-3.71,13.91-9.32l6.75-16.09c2.29-5.46,1.2-11.76-2.79-16.14
					l-34.99-32.84C151.42,292.64,154.37,298.61,156.38,304.16z"/>
			</g>
		</g>
	</g>
	<g>
		<g>
			<path class="st1" d="M658.58,127.14c0.35-8.5-4.33-16.46-11.94-20.27l-19.73-9.9c-7.92-3.97-17.62-2.63-24.13,3.34
				c-2.02,1.85-3.95,3.77-5.78,5.75l-53.81-26.78c-1.28-0.64-2.76-0.74-4.12-0.29l-22.51,7.55c-2.83,0.95-4.35,4.01-3.4,6.83
				l7.55,22.51c0.95,2.83,4.01,4.35,6.83,3.4l9.21-3.09l3.09,9.21c0.95,2.83,4.01,4.35,6.83,3.4l9.21-3.09l3.02,9.02l-0.04,0.14
				c0.48,1.43,1.5,2.53,2.76,3.14c1.25,0.64,2.74,0.8,4.17,0.32c0.3-0.1,0.58-0.23,0.84-0.37l8.26-2.77l2.56,7.64
				c-0.77,3.62-1.29,7.33-1.55,11.05c-0.62,8.79,4.05,17,11.9,20.94l20.05,10.06c7.67,3.84,16.88,2.76,23.45-2.75
				c6.04-5.06,14.4-13.44,19.91-24.58C656.72,146.45,658.26,134.88,658.58,127.14z M630.85,157.27c-4.27-2.12-6.01-7.31-3.88-11.58
				c2.12-4.27,7.31-6.01,11.58-3.88s6.01,7.31,3.88,11.58C640.31,157.66,635.12,159.39,630.85,157.27z"/>
		</g>
		<g class="st2">
			<path class="st1" d="M516.56,86.54c-2.83,0.95-4.35,4.01-3.4,6.83l7.55,22.51c0.95,2.83,4.01,4.35,6.83,3.4l9.21-3.09l3.09,9.21
				c0.95,2.83,4.01,4.35,6.83,3.4l9.21-3.09l3.02,9.02l-0.04,0.14c0.48,1.43,1.5,2.53,2.76,3.14c1.25,0.64,2.74,0.8,4.17,0.32
				c0.3-0.1,0.58-0.23,0.84-0.37l8.26-2.77l2.56,7.64c-0.77,3.62-1.29,7.33-1.55,11.05c-0.62,8.79,4.05,17,11.9,20.94l20.05,10.06
				c7.67,3.84,16.88,2.76,23.45-2.75c6.04-5.06,14.4-13.44,19.91-24.58c-3.88,4.46-20.29,19.69-26.18,20.66
				c-11.54,1.9-16.26-2.9-33.26-11.36c-3.08-1.53-13.22-6.44-10.72-21.07c0.35-2.03-3.91-16.69-3.91-16.69l-10.93,5.13
				c-1.65,0.47-3.39-0.3-4.16-1.83l-3.15-12.37l-11.21,4.19c-1.65,0.2-3.24-0.7-3.92-2.21c-1.33-2.96-4.33-11.39-4.33-11.39
				s-7.71,2.48-10.68,3.63c-1.88,0.72-4-0.06-4.96-1.82l-3.6-6.61C520.21,105.8,514.28,90.63,516.56,86.54z"/>
		</g>
		<g class="st2">
			<polygon class="st1" points="587.83,121.34 522.66,88.9 529.99,86.86 590.1,116.78 			"/>
		</g>
		<g class="st2">
			<path class="st1" d="M599.63,107.37c13.27-16.07,27.28-10.4,27.28-10.4c-7.92-3.97-17.62-2.63-24.13,3.34
				c-2.02,1.85-3.95,3.77-5.78,5.75L599.63,107.37z"/>
		</g>
	</g>
	<g>
		<ellipse class="st1" cx="242.44" cy="452.79" rx="13.32" ry="13.22"/>
	</g>
	<g>
		<ellipse class="st1" cx="559.98" cy="245.51" rx="13.32" ry="13.22"/>
	</g>
	<g>
		<ellipse class="st1" cx="450.93" cy="637.83" rx="9.45" ry="9.38"/>
	</g>
	<g class="st3">
		<ellipse class="st1" cx="561.63" cy="614.51" rx="9.45" ry="9.38"/>
	</g>
	<g class="st3">
		<ellipse class="st1" cx="450.93" cy="602.09" rx="9.45" ry="9.38"/>
	</g>
	<g class="st3">
		<ellipse class="st1" cx="548.06" cy="602.09" rx="6.56" ry="6.51"/>
	</g>
	<g class="st3">
		<ellipse class="st1" cx="562.88" cy="585.34" rx="4.92" ry="4.89"/>
	</g>
	<g>
		<ellipse class="st1" cx="615.31" cy="412.73" rx="11.41" ry="11.33"/>
	</g>
	<g>
		<ellipse class="st1" cx="302.05" cy="452.79" rx="11.41" ry="11.33"/>
	</g>
	<g>
		<ellipse class="st1" cx="285.17" cy="559.84" rx="11.41" ry="11.33"/>
	</g>
	<g>
		<ellipse class="st1" cx="310.07" cy="565.69" rx="9.81" ry="9.74"/>
	</g>
	<g>
		<ellipse class="st1" cx="311.68" cy="595.04" rx="11.41" ry="11.33"/>
	</g>
	<g>
		<ellipse class="st1" cx="559.98" cy="321.23" rx="7.34" ry="7.29"/>
	</g>
	<g class="st4">
		<ellipse class="st1" cx="591.32" cy="354.59" rx="7.34" ry="7.29"/>
	</g>
	<g class="st4">
		<ellipse class="st1" cx="420.71" cy="356.07" rx="5.85" ry="5.81"/>
	</g>
	<g>
		<ellipse class="st1" cx="385.02" cy="245.51" rx="5.85" ry="5.81"/>
	</g>
	<g class="st4">
		<ellipse class="st1" cx="323.09" cy="304.08" rx="5.85" ry="5.81"/>
	</g>
	<g class="st4">
		<ellipse class="st1" cx="450.93" cy="354.59" rx="5.85" ry="5.81"/>
	</g>
	<g class="st4">
		<ellipse class="st1" cx="303.96" cy="286.61" rx="5.85" ry="5.81"/>
	</g>
	<g>
		<ellipse class="st1" cx="332" cy="293.9" rx="7.34" ry="7.29"/>
	</g>
	<g>
		<ellipse class="st1" cx="622.65" cy="568.71" rx="7.34" ry="7.29"/>
	</g>
	<g>
		<g>
			<g>
				<ellipse class="st1" cx="281.74" cy="350.76" rx="3.86" ry="3.83"/>
			</g>
		</g>
		<g>
			<g>
				<ellipse class="st1" cx="307.82" cy="343.76" rx="3.86" ry="3.83"/>
			</g>
		</g>
		<g>
			<g>
				<ellipse class="st1" cx="307.82" cy="360.92" rx="3.86" ry="3.83"/>
			</g>
		</g>
		<g>
			<g>
				<ellipse class="st1" cx="285.17" cy="368.58" rx="3.86" ry="3.83"/>
			</g>
		</g>
		<g>
			<g>
				<ellipse class="st1" cx="262.52" cy="368.58" rx="3.86" ry="3.83"/>
			</g>
		</g>
		<g>
			<g>
				<ellipse class="st1" cx="284.21" cy="391.5" rx="3.86" ry="3.83"/>
			</g>
		</g>
		<g>
			<g>
				<ellipse class="st1" cx="281.31" cy="411.81" rx="3.86" ry="3.83"/>
			</g>
		</g>
		<g>
			<g>
				<ellipse class="st1" cx="262.52" cy="387.66" rx="3.86" ry="3.83"/>
			</g>
		</g>
		<g>
			<g>
				<ellipse class="st1" cx="302.05" cy="414.19" rx="3.86" ry="3.83"/>
			</g>
		</g>
		<g>
			<g>
				<path class="st1" d="M301.73,414.58c-8.38-0.99-21.06-2.47-21.64-2.47h-0.19l-0.16-0.17c-0.6-0.74,1.52-11.31,3.45-20.23
					l-21.06-3.83v-19.94h23.23l-4.37-18.01l27.22-7.37v18.64l-21.89,7.39l0.03,0.14h-23.44v18.5l21.22,3.86l-0.09,0.4
					c-1.5,6.92-3.74,18.07-3.67,19.86c2.6,0.22,20.64,2.36,21.45,2.46L301.73,414.58z M281.93,350.5l4.2,17.33l21.29-7.19V343.6
					L281.93,350.5z"/>
			</g>
		</g>
	</g>
	<g>
		<g>
			<rect x="20.25" y="442.58" class="st1" width="165.17" height="20.42"/>
		</g>
	</g>
	<g>
		<g>
			<rect x="440.72" y="19.97" class="st1" width="20.42" height="165.17"/>
		</g>
	</g>
	<g>
		<g>
			<rect x="716.44" y="442.58" class="st1" width="165.17" height="20.42"/>
		</g>
	</g>
	<g>
		<g>
			<rect x="440.72" y="719.3" class="st1" width="20.42" height="165.17"/>
		</g>
	</g>
	<g>
		<g>
			
				<rect x="194.18" y="123.9" transform="matrix(0.7071 -0.7071 0.7071 0.7071 -86.1416 205.003)" class="st1" width="20.42" height="165.17"/>
		</g>
	</g>
	<g>
		<g>
			
				<rect x="615.6" y="194.76" transform="matrix(0.7071 -0.7071 0.7071 0.7071 59.556 553.7211)" class="st1" width="165.17" height="20.42"/>
		</g>
	</g>
	<g>
		<g>
			
				<rect x="686.45" y="616.18" transform="matrix(0.7071 -0.7071 0.7071 0.7071 -290.049 697.2772)" class="st1" width="20.42" height="165.17"/>
		</g>
	</g>
	<g>
		<g>
			
				<rect x="121.1" y="689.26" transform="matrix(0.7071 -0.7071 0.7071 0.7071 -434.942 348.8933)" class="st1" width="165.17" height="20.42"/>
		</g>
	</g>
	<g>
		<path class="st1" d="M450.93,726.71c-36.97,0-72.85-7.24-106.62-21.53c-32.62-13.8-61.91-33.55-87.07-58.7
			c-25.15-25.15-44.9-54.45-58.7-87.07c-14.29-33.77-21.53-69.65-21.53-106.62s7.24-72.85,21.53-106.62
			c13.8-32.62,33.55-61.91,58.7-87.07c25.15-25.15,54.45-44.9,87.07-58.7c33.78-14.29,69.65-21.53,106.62-21.53
			s72.85,7.24,106.62,21.53c32.62,13.8,61.91,33.55,87.07,58.7c25.15,25.15,44.9,54.45,58.7,87.07
			c14.29,33.77,21.53,69.65,21.53,106.62s-7.24,72.85-21.53,106.62c-13.8,32.62-33.55,61.91-58.7,87.07
			c-25.15,25.15-54.45,44.9-87.07,58.7C523.78,719.46,487.9,726.71,450.93,726.71z M450.93,194.58
			c-68.97,0-133.81,26.86-182.58,75.63c-48.77,48.77-75.63,113.61-75.63,182.58s26.86,133.81,75.63,182.58
			C317.12,684.14,381.96,711,450.93,711s133.81-26.86,182.58-75.63c48.77-48.77,75.63-113.61,75.63-182.58
			s-26.86-133.81-75.63-182.58C584.74,221.44,519.9,194.58,450.93,194.58z"/>
	</g>
	<g>
		<g>
			<path class="st1" d="M752.43,592.04l-12.29,22.36c-0.6,1.1-1.98,1.5-3.08,0.9l-7.8-4.29c-1.1-0.6-1.5-1.98-0.9-3.08l12.29-22.36
				c0.6-1.1,1.98-1.5,3.08-0.9l7.8,4.29C752.64,589.56,753.04,590.95,752.43,592.04z"/>
		</g>
		<g>
			<path class="st1" d="M746.56,570.98l-12.29,22.36c-0.6,1.1-1.98,1.5-3.08,0.9l-7.8-4.29c-1.1-0.6-1.5-1.98-0.9-3.08l12.29-22.36
				c0.6-1.1,1.98-1.5,3.08-0.9l7.8,4.29C746.77,568.5,747.17,569.88,746.56,570.98z"/>
		</g>
		<g>
			<path class="st1" d="M768.01,563.71l-12.29,22.36c-0.6,1.1-1.98,1.5-3.08,0.9l-7.8-4.29c-1.1-0.6-1.5-1.98-0.9-3.08l12.29-22.36
				c0.6-1.1,1.98-1.5,3.08-0.9l7.8,4.29C768.21,561.23,768.61,562.61,768.01,563.71z"/>
		</g>
		<g>
			<path class="st1" d="M762.14,542.65l-12.29,22.36c-0.6,1.1-1.98,1.5-3.08,0.9l-7.8-4.29c-1.1-0.6-1.5-1.98-0.9-3.08l12.29-22.36
				c0.6-1.1,1.98-1.5,3.08-0.9l7.8,4.29C762.34,540.17,762.75,541.55,762.14,542.65z"/>
		</g>
		<g>
			<path class="st1" d="M783.59,535.38l-12.29,22.36c-0.6,1.1-1.98,1.5-3.08,0.9l-7.8-4.29c-1.1-0.6-1.5-1.98-0.9-3.08l12.29-22.36
				c0.6-1.1,1.98-1.5,3.08-0.9l7.8,4.29C783.79,532.9,784.19,534.28,783.59,535.38z"/>
		</g>
		<g>
			<path class="st1" d="M777.72,514.31l-12.29,22.36c-0.6,1.1-1.98,1.5-3.08,0.9l-7.8-4.29c-1.1-0.6-1.5-1.98-0.9-3.08l12.29-22.36
				c0.6-1.1,1.98-1.5,3.08-0.9l7.8,4.29C777.92,511.83,778.32,513.21,777.72,514.31z"/>
		</g>
		<g>
			<path class="st1" d="M779.55,606.95l-12.29,22.36c-0.6,1.1-1.98,1.5-3.08,0.9l-7.8-4.29c-1.1-0.6-1.5-1.98-0.9-3.08l12.29-22.36
				c0.6-1.1,1.98-1.5,3.08-0.9l7.8,4.29C779.76,604.47,780.16,605.85,779.55,606.95z"/>
		</g>
		<g>
			<path class="st1" d="M773.68,585.89l-12.29,22.36c-0.6,1.1-1.98,1.5-3.08,0.9l-7.8-4.29c-1.1-0.6-1.5-1.98-0.9-3.08l12.29-22.36
				c0.6-1.1,1.98-1.5,3.08-0.9l7.8,4.29C773.89,583.41,774.29,584.79,773.68,585.89z"/>
		</g>
		<g>
			<path class="st1" d="M758.3,613.86l-4.5,8.18c-0.57,1.04-1.89,1.43-2.93,0.85l-8-4.4c-1.04-0.57-1.43-1.89-0.85-2.93l4.5-8.18
				c0.57-1.04,1.89-1.43,2.93-0.85l8,4.4C758.5,611.51,758.88,612.82,758.3,613.86z"/>
		</g>
		<g>
			<path class="st1" d="M731.18,598.96l-4.5,8.18c-0.57,1.04-1.89,1.43-2.93,0.85l-8-4.4c-1.04-0.57-1.43-1.89-0.85-2.93l4.5-8.18
				c0.57-1.04,1.89-1.43,2.93-0.85l8,4.4C731.38,596.6,731.76,597.91,731.18,598.96z"/>
		</g>
		<g>
			<path class="st1" d="M818.29,536.49l-4.5,8.18c-0.57,1.04-1.89,1.43-2.93,0.85l-8-4.4c-1.04-0.57-1.43-1.89-0.85-2.93l4.5-8.18
				c0.57-1.04,1.89-1.43,2.93-0.85l8,4.4C818.48,534.13,818.86,535.45,818.29,536.49z"/>
		</g>
		<g>
			<path class="st1" d="M791.17,521.58l-4.5,8.18c-0.57,1.04-1.89,1.43-2.93,0.85l-8-4.4c-1.04-0.57-1.43-1.89-0.85-2.93l4.5-8.18
				c0.57-1.04,1.89-1.43,2.93-0.85l8,4.4C791.36,519.23,791.75,520.54,791.17,521.58z"/>
		</g>
		<g>
			<path class="st1" d="M795.13,578.62l-12.29,22.36c-0.6,1.1-1.98,1.5-3.08,0.9l-7.8-4.29c-1.1-0.6-1.5-1.98-0.9-3.08l12.29-22.36
				c0.6-1.1,1.98-1.5,3.08-0.9l7.8,4.29C795.33,576.14,795.73,577.52,795.13,578.62z"/>
		</g>
		<g>
			<path class="st1" d="M789.26,557.56l-12.29,22.36c-0.6,1.1-1.98,1.5-3.08,0.9l-7.8-4.29c-1.1-0.6-1.5-1.98-0.9-3.08l12.29-22.36
				c0.6-1.1,1.98-1.5,3.08-0.9l7.8,4.29C789.46,555.08,789.86,556.46,789.26,557.56z"/>
		</g>
		<g>
			<path class="st1" d="M810.71,550.29l-12.29,22.36c-0.6,1.1-1.98,1.5-3.08,0.9l-7.8-4.29c-1.1-0.6-1.5-1.98-0.9-3.08l12.29-22.36
				c0.6-1.1,1.98-1.5,3.08-0.9l7.8,4.29C810.91,547.81,811.31,549.19,810.71,550.29z"/>
		</g>
		<g>
			<path class="st1" d="M804.84,529.22l-12.29,22.36c-0.6,1.1-1.98,1.5-3.08,0.9l-7.8-4.29c-1.1-0.6-1.5-1.98-0.9-3.08l12.29-22.36
				c0.6-1.1,1.98-1.5,3.08-0.9l7.8,4.29C805.04,526.74,805.44,528.12,804.84,529.22z"/>
		</g>
		<g>
			<path class="st1" d="M806.54,621.79l-12.29,22.36c-0.6,1.1-1.98,1.5-3.08,0.9l-7.8-4.29c-1.1-0.6-1.5-1.98-0.9-3.08l12.29-22.36
				c0.6-1.1,1.98-1.5,3.08-0.9l7.8,4.29C806.74,619.31,807.14,620.69,806.54,621.79z"/>
		</g>
		<g>
			<path class="st1" d="M800.67,600.73l-12.29,22.36c-0.6,1.1-1.98,1.5-3.08,0.9l-7.8-4.29c-1.1-0.6-1.5-1.98-0.9-3.08l12.29-22.36
				c0.6-1.1,1.98-1.5,3.08-0.9l7.8,4.29C800.87,598.25,801.28,599.63,800.67,600.73z"/>
		</g>
		<g>
			<path class="st1" d="M785.29,628.7l-4.5,8.18c-0.57,1.04-1.89,1.43-2.93,0.85l-8-4.4c-1.04-0.57-1.43-1.89-0.85-2.93l4.5-8.18
				c0.57-1.04,1.89-1.43,2.93-0.85l8,4.4C785.48,626.35,785.87,627.66,785.29,628.7z"/>
		</g>
		<g>
			<path class="st1" d="M845.28,551.33l-4.5,8.18c-0.57,1.04-1.89,1.43-2.93,0.85l-8-4.4c-1.04-0.57-1.43-1.89-0.85-2.93l4.5-8.18
				c0.57-1.04,1.89-1.43,2.93-0.85l8,4.4C845.47,548.97,845.85,550.28,845.28,551.33z"/>
		</g>
		<g>
			<path class="st1" d="M822.12,593.46l-12.29,22.36c-0.6,1.1-1.98,1.5-3.08,0.9l-7.8-4.29c-1.1-0.6-1.5-1.98-0.9-3.08l12.29-22.36
				c0.6-1.1,1.98-1.5,3.08-0.9l7.8,4.29C822.32,590.98,822.72,592.36,822.12,593.46z"/>
		</g>
		<g>
			<path class="st1" d="M816.25,572.39l-12.29,22.36c-0.6,1.1-1.98,1.5-3.08,0.9l-7.8-4.29c-1.1-0.6-1.5-1.98-0.9-3.08l12.29-22.36
				c0.6-1.1,1.98-1.5,3.08-0.9l7.8,4.29C816.45,569.91,816.85,571.29,816.25,572.39z"/>
		</g>
		<g>
			<path class="st1" d="M837.69,565.12l-12.29,22.36c-0.6,1.1-1.98,1.5-3.08,0.9l-7.8-4.29c-1.1-0.6-1.5-1.98-0.9-3.08l12.29-22.36
				c0.6-1.1,1.98-1.5,3.08-0.9l7.8,4.29C837.9,562.64,838.3,564.03,837.69,565.12z"/>
		</g>
		<g>
			<path class="st1" d="M831.82,544.06l-12.29,22.36c-0.6,1.1-1.98,1.5-3.08,0.9l-7.8-4.29c-1.1-0.6-1.5-1.98-0.9-3.08l12.29-22.36
				c0.6-1.1,1.98-1.5,3.08-0.9l7.8,4.29C832.03,541.58,832.43,542.96,831.82,544.06z"/>
		</g>
	</g>
	<g>
		<circle class="st1" cx="311.68" cy="780.46" r="34.59"/>
	</g>
	<g>
		<circle class="st1" cx="138.02" cy="599.73" r="34.59"/>
	</g>
	<g>
		<circle class="st1" cx="573.3" cy="773.87" r="34.59"/>
	</g>
	<g>
		<g>
			<path class="st1" d="M808.92,374.08c1.86,4.09,0.05,8.91-4.04,10.77l-23.48,10.66c-4.09,1.86-8.91,0.05-10.77-4.04l-45.96-101.22
				c-1.86-4.09-0.05-8.91,4.04-10.77l23.48-10.66c4.09-1.86,8.91-0.05,10.77,4.04L808.92,374.08 M815.36,371.15L769.4,269.94
				c-3.47-7.63-12.5-11.02-20.13-7.56l-23.48,10.66c-7.63,3.47-11.02,12.5-7.56,20.13l45.96,101.22c3.47,7.63,12.5,11.02,20.13,7.56
				l23.48-10.66C815.43,387.82,818.82,378.79,815.36,371.15L815.36,371.15z"/>
		</g>
		<g class="st2">
			<g>
				<g>
					<path class="st1" d="M737.62,293.13l8.38,1.33c0.9,0.14,1.71-0.56,1.69-1.47l-0.13-7.3c-0.01-0.76,0.56-1.41,1.33-1.48
						l0.08-0.01c0.79-0.07,1.5,0.5,1.58,1.3l0.75,6.95c0.1,0.96,1.1,1.56,2,1.2l7.24-2.93c0.73-0.29,1.55,0.04,1.88,0.75l0.06,0.13
						c0.32,0.71,0.03,1.55-0.67,1.91l-6.97,3.53c-0.86,0.44-1.07,1.58-0.41,2.29l4.74,5.14c0.54,0.59,0.51,1.5-0.07,2.05l-0.06,0.05
						c-0.55,0.53-1.42,0.54-1.99,0.02l-5.4-4.9c-0.67-0.61-1.73-0.46-2.22,0.3l-4.51,7.18c-0.42,0.67-1.3,0.88-1.98,0.48l-0.22-0.13
						c-0.68-0.4-0.91-1.26-0.54-1.95l4.01-7.37c0.46-0.85-0.02-1.91-0.96-2.12l-8.19-1.83c-0.77-0.17-1.26-0.92-1.12-1.69l0.05-0.25
						C736.1,293.53,736.84,293.01,737.62,293.13z"/>
				</g>
			</g>
			<g>
				<g>
					<path class="st1" d="M760,342.41l8.38,1.33c0.9,0.14,1.71-0.56,1.69-1.47l-0.13-7.3c-0.01-0.76,0.56-1.41,1.33-1.48l0.08-0.01
						c0.79-0.07,1.5,0.5,1.58,1.3l0.75,6.95c0.1,0.96,1.1,1.56,2,1.2l7.24-2.93c0.73-0.29,1.55,0.04,1.88,0.75l0.06,0.13
						c0.32,0.71,0.03,1.55-0.67,1.91l-6.97,3.53c-0.86,0.44-1.07,1.58-0.41,2.29l4.74,5.14c0.54,0.59,0.51,1.5-0.07,2.05l-0.06,0.05
						c-0.55,0.53-1.42,0.54-1.99,0.02l-5.4-4.9c-0.67-0.61-1.73-0.46-2.22,0.3l-4.51,7.18c-0.42,0.67-1.3,0.88-1.98,0.48l-0.22-0.13
						c-0.68-0.4-0.91-1.26-0.54-1.95l4.01-7.37c0.46-0.85-0.02-1.91-0.96-2.12l-8.19-1.83c-0.77-0.17-1.26-0.92-1.12-1.69l0.05-0.25
						C758.48,342.81,759.22,342.29,760,342.41z"/>
				</g>
			</g>
			<g>
				<g>
					<path class="st1" d="M771.19,367.05l8.38,1.33c0.9,0.14,1.71-0.56,1.69-1.47l-0.13-7.3c-0.01-0.76,0.56-1.41,1.33-1.48
						l0.08-0.01c0.79-0.07,1.5,0.5,1.58,1.3l0.75,6.95c0.1,0.96,1.1,1.56,2,1.2l7.24-2.93c0.73-0.29,1.55,0.04,1.88,0.75l0.06,0.13
						c0.32,0.71,0.03,1.55-0.67,1.91l-6.97,3.53c-0.86,0.44-1.07,1.58-0.41,2.29l4.74,5.14c0.54,0.59,0.51,1.5-0.07,2.05l-0.06,0.05
						c-0.55,0.53-1.42,0.54-1.99,0.02l-5.4-4.9c-0.67-0.61-1.73-0.46-2.22,0.3l-4.51,7.18c-0.42,0.67-1.3,0.88-1.98,0.48l-0.22-0.13
						c-0.68-0.4-0.91-1.26-0.54-1.95l4.01-7.37c0.46-0.85-0.02-1.91-0.96-2.12l-8.19-1.83c-0.77-0.17-1.26-0.92-1.12-1.69l0.05-0.25
						C769.67,367.45,770.41,366.93,771.19,367.05z"/>
				</g>
			</g>
		</g>
		<g>
			<g>
				<g>
					<path class="st1" d="M737.89,291.73l8.38,1.33c0.9,0.14,1.71-0.56,1.69-1.47l-0.13-7.3c-0.01-0.76,0.56-1.41,1.33-1.48
						l0.08-0.01c0.79-0.07,1.5,0.5,1.58,1.3l0.75,6.95c0.1,0.96,1.1,1.56,2,1.2l7.24-2.93c0.73-0.29,1.55,0.04,1.88,0.75l0.06,0.13
						c0.32,0.71,0.03,1.55-0.67,1.91l-6.97,3.53c-0.86,0.44-1.07,1.58-0.41,2.29l4.74,5.14c0.54,0.59,0.51,1.5-0.07,2.05l-0.06,0.05
						c-0.55,0.53-1.42,0.54-1.99,0.02l-5.4-4.9c-0.67-0.61-1.73-0.46-2.22,0.3l-4.51,7.18c-0.42,0.67-1.3,0.88-1.98,0.48l-0.22-0.13
						c-0.68-0.4-0.91-1.26-0.54-1.95l4.01-7.37c0.46-0.85-0.02-1.91-0.96-2.12l-8.19-1.83c-0.77-0.17-1.26-0.92-1.12-1.69l0.05-0.25
						C736.37,292.12,737.1,291.6,737.89,291.73z"/>
				</g>
			</g>
			<g>
				<g>
					<path class="st1" d="M749.07,316.37l8.38,1.33c0.9,0.14,1.71-0.56,1.69-1.47l-0.13-7.3c-0.01-0.76,0.56-1.41,1.33-1.48
						l0.08-0.01c0.79-0.07,1.5,0.5,1.58,1.3l0.75,6.95c0.1,0.96,1.1,1.56,2,1.2l7.24-2.93c0.73-0.29,1.55,0.04,1.88,0.75l0.06,0.13
						c0.32,0.71,0.03,1.55-0.67,1.91l-6.97,3.53c-0.86,0.44-1.07,1.58-0.41,2.29l4.74,5.14c0.54,0.59,0.51,1.5-0.07,2.05l-0.06,0.05
						c-0.55,0.53-1.42,0.54-1.99,0.02l-5.4-4.9c-0.67-0.61-1.73-0.46-2.22,0.3l-4.51,7.18c-0.42,0.67-1.3,0.88-1.98,0.48l-0.22-0.13
						c-0.68-0.4-0.91-1.26-0.54-1.95l4.01-7.37c0.46-0.85-0.02-1.91-0.96-2.12l-8.19-1.83c-0.77-0.17-1.26-0.92-1.12-1.69l0.05-0.25
						C747.55,316.76,748.29,316.24,749.07,316.37z"/>
				</g>
			</g>
			<g>
				<g>
					<path class="st1" d="M760.26,341.01l8.38,1.33c0.9,0.14,1.71-0.56,1.69-1.47l-0.13-7.3c-0.01-0.76,0.56-1.41,1.33-1.48
						l0.08-0.01c0.79-0.07,1.5,0.5,1.58,1.3l0.75,6.95c0.1,0.96,1.1,1.56,2,1.2l7.24-2.93c0.73-0.29,1.55,0.04,1.88,0.75l0.06,0.13
						c0.32,0.71,0.03,1.55-0.67,1.91l-6.97,3.53c-0.86,0.44-1.07,1.58-0.41,2.29l4.74,5.14c0.54,0.59,0.51,1.5-0.07,2.05l-0.06,0.05
						c-0.55,0.53-1.42,0.54-1.99,0.02l-5.4-4.9c-0.67-0.61-1.73-0.46-2.22,0.3l-4.51,7.18c-0.42,0.67-1.3,0.88-1.98,0.48l-0.22-0.13
						c-0.68-0.4-0.91-1.26-0.54-1.95l4.01-7.37c0.46-0.85-0.02-1.91-0.96-2.12l-8.19-1.83c-0.77-0.17-1.26-0.92-1.12-1.69l0.05-0.25
						C758.74,341.4,759.48,340.88,760.26,341.01z"/>
				</g>
			</g>
			<g>
				<g>
					<path class="st1" d="M771.45,365.65l8.38,1.33c0.9,0.14,1.71-0.56,1.69-1.47l-0.13-7.3c-0.01-0.76,0.56-1.41,1.33-1.48
						l0.08-0.01c0.79-0.07,1.5,0.5,1.58,1.3l0.75,6.95c0.1,0.96,1.1,1.56,2,1.2l7.24-2.93c0.73-0.29,1.55,0.04,1.88,0.75l0.06,0.13
						c0.32,0.71,0.03,1.55-0.67,1.91l-6.97,3.53c-0.86,0.44-1.07,1.58-0.41,2.29l4.74,5.14c0.54,0.59,0.51,1.5-0.07,2.05l-0.06,0.05
						c-0.55,0.53-1.42,0.54-1.99,0.02l-5.4-4.9c-0.67-0.61-1.73-0.46-2.22,0.3l-4.51,7.18c-0.42,0.67-1.3,0.88-1.98,0.48l-0.22-0.13
						c-0.68-0.4-0.91-1.26-0.54-1.95l4.01-7.37c0.46-0.85-0.02-1.91-0.96-2.12l-8.19-1.83c-0.77-0.17-1.26-0.92-1.12-1.69l0.05-0.25
						C769.93,366.04,770.67,365.52,771.45,365.65z"/>
				</g>
			</g>
		</g>
		<g>
			<g>
				<path class="st1" d="M792.31,265.63l4.81,10.59c1.05,2.31,1.28,4.28,0.71,5.93c-0.58,1.65-1.88,2.93-3.9,3.85
					c-2.08,0.95-3.99,1.06-5.73,0.34c-1.74-0.72-3.19-2.36-4.36-4.93l-1.58-3.49l-7.65,3.47l-2.91-6.4L792.31,265.63z
					 M786.43,276.02l0.71,1.56c0.56,1.23,1.16,1.99,1.82,2.3c0.65,0.3,1.31,0.3,1.98,0c0.65-0.29,1.1-0.76,1.35-1.39
					c0.25-0.64,0.11-1.55-0.43-2.74l-0.82-1.81L786.43,276.02z"/>
			</g>
			<g>
				<path class="st1" d="M791.16,308.83l-3.29-7.23l-3.86,0.54l-2.95-6.51l24.14-1.61l3.16,6.95l-17.1,17.11l-3.03-6.67
					L791.16,308.83z M795.02,305.48l6.38-5.64l-8.44,1.11L795.02,305.48z"/>
			</g>
			<g>
				<path class="st1" d="M800.46,320.22l3.13,5.89c-0.92,0.58-1.55,1.19-1.89,1.82c-0.54,1.04-0.53,2.16,0.03,3.38
					c0.41,0.91,0.94,1.51,1.6,1.81c0.65,0.3,1.26,0.32,1.82,0.06c0.53-0.24,0.91-0.69,1.12-1.35c0.21-0.66,0.11-1.93-0.29-3.81
					c-0.64-3.08-0.71-5.45-0.21-7.11c0.5-1.67,1.55-2.88,3.16-3.61c1.06-0.48,2.2-0.63,3.42-0.44c1.22,0.19,2.38,0.77,3.48,1.76
					c1.1,0.99,2.14,2.56,3.11,4.7c1.2,2.63,1.62,4.87,1.27,6.7c-0.35,1.83-1.54,3.36-3.56,4.59l-3.08-5.85
					c0.86-0.58,1.38-1.22,1.57-1.93c0.19-0.7,0.08-1.5-0.33-2.4c-0.34-0.74-0.75-1.23-1.23-1.46c-0.48-0.23-0.95-0.25-1.4-0.04
					c-0.33,0.15-0.55,0.44-0.68,0.87c-0.14,0.42-0.07,1.25,0.21,2.48c0.66,3.06,0.96,5.33,0.9,6.81c-0.07,1.48-0.43,2.71-1.09,3.67
					c-0.66,0.96-1.55,1.7-2.68,2.21c-1.32,0.6-2.71,0.79-4.16,0.56c-1.45-0.22-2.76-0.86-3.93-1.91c-1.17-1.05-2.21-2.57-3.12-4.57
					c-1.59-3.51-2.02-6.24-1.28-8.21C797.09,322.88,798.46,321.34,800.46,320.22z"/>
			</g>
			<g>
				<path class="st1" d="M811.87,345.34l3.13,5.89c-0.92,0.58-1.55,1.19-1.89,1.82c-0.54,1.04-0.53,2.16,0.03,3.38
					c0.41,0.91,0.94,1.51,1.6,1.81c0.65,0.3,1.26,0.32,1.82,0.06c0.53-0.24,0.91-0.69,1.12-1.35c0.21-0.66,0.11-1.93-0.29-3.81
					c-0.64-3.08-0.71-5.45-0.21-7.11c0.5-1.67,1.55-2.88,3.16-3.61c1.06-0.48,2.2-0.63,3.42-0.44c1.22,0.19,2.38,0.77,3.48,1.76
					c1.1,0.99,2.14,2.56,3.11,4.7c1.2,2.63,1.62,4.87,1.27,6.7c-0.35,1.83-1.54,3.36-3.56,4.59l-3.08-5.85
					c0.86-0.58,1.38-1.22,1.57-1.93c0.19-0.7,0.08-1.5-0.33-2.4c-0.34-0.74-0.75-1.23-1.23-1.46c-0.48-0.23-0.95-0.25-1.4-0.04
					c-0.33,0.15-0.55,0.44-0.68,0.87c-0.14,0.42-0.07,1.25,0.21,2.48c0.66,3.06,0.96,5.33,0.9,6.81c-0.07,1.48-0.43,2.71-1.09,3.67
					c-0.66,0.96-1.55,1.7-2.68,2.21c-1.32,0.6-2.71,0.79-4.16,0.56c-1.45-0.22-2.76-0.86-3.93-1.91s-2.21-2.57-3.12-4.57
					c-1.59-3.51-2.02-6.24-1.28-8.21C808.5,348.01,809.87,346.47,811.87,345.34z"/>
			</g>
		</g>
	</g>
	<g>
		<g>
			<path class="st1" d="M521.03,404.82h-140.2c-17.97,0-32.54,14.57-32.54,32.54v100.07c0,17.97,14.57,32.55,32.54,32.55h140.2
				c17.97,0,32.54-14.57,32.54-32.55V437.37C553.57,419.39,539,404.82,521.03,404.82z M488.97,476.34h-17.98l-6.44,20.28h18.2
				l-2.87,9.29h-18.36l-8.11,25.14h-8.56l8.06-25.14h-15.68l-8.06,25.14h-8.62l8.11-25.14H411l2.92-9.29h17.66l6.55-20.28h-17.98
				l3.03-9.35h17.98l8.01-25.2h8.67l-8.12,25.2h15.63l8.17-25.2h8.56l-8.07,25.2h17.98L488.97,476.34z"/>
		</g>
		<g>
			<g class="st2">
				<path class="st1" d="M547.02,417.78c1.19,3.38,1.84,7.01,1.84,10.79v100.07c0,17.97-14.57,32.55-32.54,32.55h-140.2
					c-10.62,0-20.05-5.09-25.99-12.96c4.45,12.67,16.51,21.75,30.7,21.75h140.2c17.97,0,32.54-14.57,32.54-32.55V437.37
					C553.57,430.01,551.13,423.23,547.02,417.78z"/>
			</g>
		</g>
		<g>
			<path class="st1" d="M379.16,398.65h30.87c0-67.92,40.13-63.28,40.13-63.28c49.39,0,41.68,63.28,41.68,63.28h30.87
				c0-104.96-72.55-94.16-72.55-94.16C371.44,304.49,379.16,398.65,379.16,398.65z"/>
		</g>
		<g>
			<g class="st2">
				<path class="st1" d="M492.51,391.33c0,0,7.72-63.28-41.68-63.28c0,0-36.08-4.15-39.81,53.32c6.19-49.81,39.14-46,39.14-46
					c49.39,0,41.68,63.28,41.68,63.28h30.87c0-2.51-0.05-4.93-0.14-7.32H492.51z"/>
			</g>
			<g>
				<path class="st1" d="M379.94,375.29c-1.6,13.41-0.79,23.35-0.79,23.35h30.87c0-2.54,0.06-4.97,0.17-7.32h-30.36
					C379.83,391.33,379.31,384.85,379.94,375.29z"/>
			</g>
			<g>
				<path class="st1" d="M410.7,391.33c0-3.52,0.11-6.83,0.32-9.96c-0.39,3.1-0.66,6.43-0.82,9.96H410.7z"/>
			</g>
		</g>
	</g>
</g>
</svg>
