<?xml version="1.0" encoding="utf-8"?>
<!-- Generator: Adobe Illustrator 24.1.2, SVG Export Plug-In . SVG Version: 6.00 Build 0)  -->
<svg version="1.1" id="Capa_1" xmlns="http://www.w3.org/2000/svg" xmlns:xlink="http://www.w3.org/1999/xlink" x="0px" y="0px"
	 viewBox="0 0 248 248" style="enable-background:new 0 0 248 248;" xml:space="preserve">
<style type="text/css">
	.st0{fill:#FFFFFF;}
</style>
<g>
	<path class="st0" d="M150.14,133.74c-7.59-2.35-14.77-5.64-21.39-9.74c-5.21-3.22-10.08-6.94-14.54-11.09
		c-3.38-3.14-6.53-6.53-9.41-10.14c-3.58-4.48-6.76-9.31-9.49-14.41c-2.64-4.95-4.84-10.16-6.57-15.59
		c-2.41,7.57-5.75,14.73-9.9,21.33c-3.56,5.67-7.72,10.93-12.38,15.7c-3.14,3.21-6.5,6.19-10.07,8.92c-4.17,3.19-8.62,6.04-13.3,8.5
		c-5,2.63-10.27,4.82-15.76,6.52c3.58,1.11,7.07,2.43,10.46,3.94c5.84,2.62,11.37,5.81,16.5,9.52c3.45,2.49,6.72,5.21,9.79,8.13
		c5.25,5,9.92,10.6,13.89,16.69c4.55,6.97,8.19,14.59,10.76,22.68c2.18-6.86,5.13-13.37,8.74-19.44c2.42-4.07,5.14-7.93,8.13-11.57
		c3.85-4.68,8.14-8.97,12.81-12.82c4.79-3.95,9.98-7.43,15.51-10.38C139.06,137.76,144.48,135.49,150.14,133.74z"/>
	<path class="st0" d="M214.73,73.74c-4.45-1.38-8.66-3.31-12.54-5.71c-3.05-1.89-5.91-4.07-8.53-6.5c-1.98-1.84-3.83-3.83-5.52-5.95
		c-2.1-2.63-3.97-5.46-5.56-8.45c-1.55-2.9-2.84-5.95-3.85-9.14c-1.41,4.44-3.37,8.64-5.8,12.5c-2.09,3.32-4.52,6.41-7.26,9.2
		c-1.84,1.88-3.81,3.63-5.9,5.23c-2.44,1.87-5.05,3.54-7.8,4.98c-2.93,1.54-6.02,2.83-9.24,3.82c2.1,0.65,4.15,1.42,6.13,2.31
		c3.43,1.53,6.67,3.41,9.67,5.58c2.02,1.46,3.94,3.05,5.74,4.77c3.08,2.93,5.81,6.21,8.14,9.79c2.67,4.09,4.8,8.55,6.31,13.3
		c1.28-4.02,3-7.84,5.12-11.4c1.42-2.38,3.01-4.65,4.77-6.78c2.25-2.74,4.77-5.26,7.51-7.52c2.81-2.32,5.85-4.36,9.09-6.08
		C208.23,76.1,211.41,74.77,214.73,73.74z"/>
	<path class="st0" d="M215,180.74c-5.47-1.69-10.65-4.07-15.42-7.02c-3.76-2.32-7.27-5-10.49-8c-2.44-2.27-4.71-4.71-6.79-7.31
		c-2.58-3.23-4.88-6.71-6.84-10.39c-1.9-3.57-3.49-7.32-4.73-11.24c-1.73,5.46-4.15,10.62-7.13,15.38
		c-2.57,4.09-5.56,7.88-8.92,11.32c-2.26,2.31-4.69,4.46-7.26,6.43c-3.01,2.3-6.21,4.35-9.59,6.13c-3.61,1.9-7.41,3.48-11.36,4.7
		c2.58,0.8,5.1,1.75,7.54,2.84c4.21,1.89,8.2,4.19,11.9,6.86c2.48,1.79,4.84,3.75,7.06,5.86c3.78,3.6,7.15,7.64,10.01,12.04
		c3.28,5.03,5.9,10.52,7.76,16.35c1.57-4.94,3.7-9.64,6.3-14.02c1.75-2.93,3.71-5.72,5.86-8.34c2.77-3.37,5.87-6.47,9.23-9.24
		c3.45-2.85,7.2-5.36,11.18-7.48C207.01,183.64,210.92,182,215,180.74z"/>
</g>
</svg>
