<svg xmlns="http://www.w3.org/2000/svg" xmlns:xlink="http://www.w3.org/1999/xlink" viewBox="0 0 803.88 878.26"><defs><style>.a0f22f72-3ef0-40f0-84d3-b1c4fa8c3abc{isolation:isolate;}.b5632688-6038-461b-9901-ae9506daf4d3{fill:#161212;}.adfe24da-d385-4ec8-b197-d7f87b658f37{opacity:0.09;}.a502c90f-99dc-4164-8be5-f6774faef18e,.adfe24da-d385-4ec8-b197-d7f87b658f37{mix-blend-mode:multiply;}.a5a34c4a-4831-441a-8758-f3f2171d0e81{fill:#f2b89b;}.a502c90f-99dc-4164-8be5-f6774faef18e,.aef1323a-df99-40ca-93c4-b151cebb0c8c{fill:#23252b;}.bbe67079-fedf-4182-8750-538b7d664681{fill:#183a70;}.e42d6615-7386-4e6e-aaab-edaf0e2fd0a9{fill:#3e4249;}.b24a9a10-25d5-4c2d-abb7-562581baaa5f{fill:#a2acea;}.a53b2be5-91ce-4187-84f3-d2f393b2601a,.ed423d72-1953-4208-83b4-7c241c4bf559,.f9cfef24-84c7-42c5-ae1d-a53d905cc17a{fill:none;}.ed423d72-1953-4208-83b4-7c241c4bf559,.f9cfef24-84c7-42c5-ae1d-a53d905cc17a{stroke:#fff;}.a53b2be5-91ce-4187-84f3-d2f393b2601a,.f9cfef24-84c7-42c5-ae1d-a53d905cc17a{stroke-linecap:round;}.f9cfef24-84c7-42c5-ae1d-a53d905cc17a{stroke-linejoin:round;stroke-width:10px;}.bba19390-a52b-42ce-93a6-935333dcd72a{fill:#58585a;}.bfe37692-56aa-4c30-b3c8-6bf8156b22d3{fill:url(#e514aa13-9def-4dbb-9cf5-cf317777fa85);}.ed9fe34b-5379-4f81-b7bb-90be461905b4{fill:#fff;}.a502c90f-99dc-4164-8be5-f6774faef18e{opacity:0.21;}.a53b2be5-91ce-4187-84f3-d2f393b2601a{stroke:#f2b89b;stroke-width:42px;}.a53b2be5-91ce-4187-84f3-d2f393b2601a,.ed423d72-1953-4208-83b4-7c241c4bf559{stroke-miterlimit:10;}.a6898d6c-0ac0-49c0-a63d-f25290d207dc{fill:#3a3e47;}</style><radialGradient id="e514aa13-9def-4dbb-9cf5-cf317777fa85" cx="385.51" cy="761.8" r="71.67" gradientUnits="userSpaceOnUse"><stop offset="0" stop-color="#1d3ea6"/><stop offset="0.91" stop-color="#010230"/><stop offset="1" stop-color="#9d93e1"/></radialGradient></defs><g class="a0f22f72-3ef0-40f0-84d3-b1c4fa8c3abc"><g id="f5f7296a-62a6-43f2-a4a4-088edd7fd6c1" data-name="Capa 1"><path class="b5632688-6038-461b-9901-ae9506daf4d3" d="M441,864.08H323.29c-26.24,0-47.51,18.73-47.51-7.51l30-172.93-30-132.18c0-26.24,2.29-44.51,28.53-44.51H450.07c26.23,0,38.48,18.27,38.48,44.51l-30,134.06,30,171.05C488.55,882.81,467.28,864.08,441,864.08Z"/><polygon class="adfe24da-d385-4ec8-b197-d7f87b658f37" points="488.64 551.46 484.16 571.16 463.49 545.1 488.64 551.46"/><path class="b5632688-6038-461b-9901-ae9506daf4d3" d="M441,864.08H323.29c-26.24,0-47.51,18.73-47.51-7.51l30-172.93L293,628.69S323.29,611.16,323.29,507h13.79c0,68.62-1.15,68.62,43.91,68.62,47.51,0,47.51-.06,47.51-68.62H441c0,90.23,30.28,121.69,30.28,121.69l-12.77,55,30,172.93C488.55,882.81,467.28,864.08,441,864.08Z"/><path class="a5a34c4a-4831-441a-8758-f3f2171d0e81" d="M421.86,509.39s-11.65,25.06-39.07,25.06-40.32-25.06-40.32-25.06V445.61h79.39Z"/><polygon class="adfe24da-d385-4ec8-b197-d7f87b658f37" points="342.47 460.69 342.47 506.95 403.49 473.54 342.47 460.69"/><ellipse class="a5a34c4a-4831-441a-8758-f3f2171d0e81" cx="380.65" cy="297.24" rx="167.57" ry="177.85"/><path class="adfe24da-d385-4ec8-b197-d7f87b658f37" d="M548.22,297.24c0,98.22-75,177.84-167.57,177.84C544.89,413.63,521,330.9,516.91,193.7A184.46,184.46,0,0,1,548.22,297.24Z"/><circle class="aef1323a-df99-40ca-93c4-b151cebb0c8c" cx="311.7" cy="299.98" r="20.22"/><path class="aef1323a-df99-40ca-93c4-b151cebb0c8c" d="M296.77,286.39c-4.85,4.72-6.67,10.52-10.95,13.78a1.36,1.36,0,0,0,.81,2.44h12.74a1.35,1.35,0,0,0,1.35-1.21C301.21,296.79,302.52,280.79,296.77,286.39Z"/><circle class="aef1323a-df99-40ca-93c4-b151cebb0c8c" cx="446.14" cy="299.98" r="20.22"/><path class="aef1323a-df99-40ca-93c4-b151cebb0c8c" d="M461.07,286.39c4.85,4.72,6.67,10.52,10.95,13.78a1.36,1.36,0,0,1-.81,2.44H458.47a1.35,1.35,0,0,1-1.35-1.21C456.64,296.79,455.33,280.79,461.07,286.39Z"/><path class="bbe67079-fedf-4182-8750-538b7d664681" d="M332.11,400.84s37.18-14.59,48.54-8.47v8.47H331.16"/><path class="bbe67079-fedf-4182-8750-538b7d664681" d="M429.14,400.84s-37.19-14.59-48.55-8.47v8.47h49.49"/><path class="a5a34c4a-4831-441a-8758-f3f2171d0e81" d="M238.46,324.91c0,13.77-10.43,24.93-23.3,24.93s-23.3-11.16-23.3-24.93S196.7,300,209.56,300,238.46,311.14,238.46,324.91Z"/><path class="e42d6615-7386-4e6e-aaab-edaf0e2fd0a9" d="M196.11,313.65l-9.18-5.25a3.3,3.3,0,0,1-.9-5l5.85-7a3.3,3.3,0,0,1,5.06,0l6.82,8.07a3.28,3.28,0,0,1,0,4.24l-3.5,4.21A3.29,3.29,0,0,1,196.11,313.65Z"/><path class="e42d6615-7386-4e6e-aaab-edaf0e2fd0a9" d="M195.18,327.21l-10,3.5a3.3,3.3,0,0,1-4.35-2.57l-1.49-9a3.3,3.3,0,0,1,3.29-3.84l10.57.12a3.29,3.29,0,0,1,3.22,2.76l.89,5.4A3.3,3.3,0,0,1,195.18,327.21Z"/><path class="e42d6615-7386-4e6e-aaab-edaf0e2fd0a9" d="M206.33,341.3l-6.26,8.52a3.3,3.3,0,0,1-5,.32l-6.31-6.61a3.29,3.29,0,0,1,.56-5l8.79-5.86a3.3,3.3,0,0,1,4.22.46l3.78,4A3.29,3.29,0,0,1,206.33,341.3Z"/><circle class="b24a9a10-25d5-4c2d-abb7-562581baaa5f" cx="384.7" cy="741.72" r="111.02"/><path class="f9cfef24-84c7-42c5-ae1d-a53d905cc17a" d="M353.47,659.63S317.26,673,307.32,710.34"/><line class="f9cfef24-84c7-42c5-ae1d-a53d905cc17a" x1="301.16" y1="733.42" x2="302.98" y2="724.89"/><polygon class="aef1323a-df99-40ca-93c4-b151cebb0c8c" points="473.78 877.18 299.79 877.18 319.4 829.85 454.18 829.85 473.78 877.18"/><polygon class="bba19390-a52b-42ce-93a6-935333dcd72a" points="473.78 864.08 297.82 864.08 303.71 855.32 469.86 855.32 473.78 864.08"/><path class="bfe37692-56aa-4c30-b3c8-6bf8156b22d3" d="M411,729.6H358.36a12.23,12.23,0,0,0-12.22,12.23v37.6a12.22,12.22,0,0,0,12.22,12.22H411a12.22,12.22,0,0,0,12.23-12.22v-37.6A12.23,12.23,0,0,0,411,729.6Zm-12,26.87h-6.75l-2.42,7.62h6.83l-1.07,3.49h-6.9L385.63,777h-3.22l3-9.45h-5.89l-3,9.45h-3.23l3-9.45H369.7l1.1-3.49h6.63l2.46-7.62h-6.75l1.14-3.51H381l3-9.47h3.26L384.25,753h5.87l3.07-9.47h3.22l-3,9.47h6.75Z"/><path class="bfe37692-56aa-4c30-b3c8-6bf8156b22d3" d="M357.73,727.29h11.6c0-25.52,15.08-23.78,15.08-23.78,18.56,0,15.66,23.78,15.66,23.78h11.59c0-39.44-27.25-35.38-27.25-35.38C354.84,691.91,357.73,727.29,357.73,727.29Z"/><path class="ed9fe34b-5379-4f81-b7bb-90be461905b4" d="M445.37,694.55a23,23,0,0,1-8.86-5.13,23.85,23.85,0,0,1-2.32-2.5,22.88,22.88,0,0,1-4-7.4,23.06,23.06,0,0,1-5.49,9.13,22.54,22.54,0,0,1-2.48,2.2,22.62,22.62,0,0,1-7.17,3.7,22.14,22.14,0,0,1,2.58,1,22.75,22.75,0,0,1,4.07,2.34,23.33,23.33,0,0,1,2.41,2,22.89,22.89,0,0,1,6.08,9.7,23.25,23.25,0,0,1,2.16-4.79,22.45,22.45,0,0,1,2-2.85,23.59,23.59,0,0,1,3.16-3.16,23,23,0,0,1,3.82-2.56A23.92,23.92,0,0,1,445.37,694.55Z"/><path class="ed9fe34b-5379-4f81-b7bb-90be461905b4" d="M461.29,679.76a13.57,13.57,0,0,1-5.19-3,13.43,13.43,0,0,1-1.36-1.46,13.69,13.69,0,0,1-2.32-4.34A13.31,13.31,0,0,1,451,674a14.09,14.09,0,0,1-1.79,2.27,11.92,11.92,0,0,1-1.46,1.29,13.63,13.63,0,0,1-1.92,1.23,12.92,12.92,0,0,1-2.27.94,13.75,13.75,0,0,1,1.51.57,13.41,13.41,0,0,1,2.38,1.38,14.46,14.46,0,0,1,1.42,1.17,13.7,13.7,0,0,1,2,2.42,13.13,13.13,0,0,1,1.56,3.27,13.4,13.4,0,0,1,1.26-2.81,13.64,13.64,0,0,1,1.18-1.67,13.48,13.48,0,0,1,1.85-1.85,13.07,13.07,0,0,1,2.24-1.5A13.43,13.43,0,0,1,461.29,679.76Z"/><path class="ed9fe34b-5379-4f81-b7bb-90be461905b4" d="M461.36,706.14a16.36,16.36,0,0,1-3.8-1.73,16.53,16.53,0,0,1-2.59-2,16.72,16.72,0,0,1-1.67-1.8,17,17,0,0,1-1.69-2.57,15.73,15.73,0,0,1-1.16-2.77,17.07,17.07,0,0,1-1.76,3.8,17.43,17.43,0,0,1-2.2,2.79,16.72,16.72,0,0,1-1.79,1.58,16.14,16.14,0,0,1-2.37,1.51,15.71,15.71,0,0,1-2.8,1.16,16.55,16.55,0,0,1,1.86.7,17.11,17.11,0,0,1,2.94,1.69,18.57,18.57,0,0,1,1.74,1.45,16.7,16.7,0,0,1,4.38,7,16.32,16.32,0,0,1,1.55-3.46,15.48,15.48,0,0,1,1.45-2,15.78,15.78,0,0,1,2.27-2.28,16,16,0,0,1,2.76-1.85A16.64,16.64,0,0,1,461.36,706.14Z"/><path class="a5a34c4a-4831-441a-8758-f3f2171d0e81" d="M278.73,690.13l-9.65,18.31a18.12,18.12,0,0,1-24.33,8l-28.63-20.37a18.13,18.13,0,0,1-8-24.34l5.53-11a18.13,18.13,0,0,1,24.34-8L270.24,667C279.18,671.54,283.23,681.19,278.73,690.13Z"/><rect class="a5a34c4a-4831-441a-8758-f3f2171d0e81" x="233.75" y="645.77" width="28.39" height="17.26" rx="6.56" transform="translate(-204.28 120.35) rotate(-19.51)"/><path class="a5a34c4a-4831-441a-8758-f3f2171d0e81" d="M471.37,680.84l10.5,17.83a18.12,18.12,0,0,0,24.68,6.88l27.64-21.7a18.12,18.12,0,0,0,6.89-24.68L535,648.44a18.12,18.12,0,0,0-24.69-6.88l-31.58,15.81C470,662.29,466.45,672.12,471.37,680.84Z"/><rect class="a5a34c4a-4831-441a-8758-f3f2171d0e81" x="486.24" y="635.06" width="28.39" height="17.26" rx="6.56" transform="translate(793.43 1404.56) rotate(-163.2)"/><path class="aef1323a-df99-40ca-93c4-b151cebb0c8c" d="M554.56,169c-6.46-18.22,19.34-62.92-32.74-82.84-37.37-14.3-39.39,9.44-77.7,3.15-31.24-5.13-35.42-2.82-45.21-12.12C374.5,54,331.34,50.54,289.75,100.87s-36,62.49-26.63,69.61c36.06-13.57,101.18-1.5,118.11,56.62,9.69-.28,9.69-.28,20.24-.29,81-56.38,102.06,22.61,110.92,42.88s18.41,51.49.93,78.75S477,364.76,484,403.43s17.48,34.26,16.78,51.5-16.08,6.36-23.07,35.1S501.2,567.94,515,569.1s14,31,4.89,47.77c0,0,35.42-26.56,26.1-57.32s-27-24.47-17-45.9,3.73.93,31-43.11c14.19-22.91,23.52-40.28,27.15-55.67,3.35-14.18-13.21-23.78-12.47-43.47,1.4-37,23.07-22.72,26.91-40.9,4.64-21.91-6.64-22.25-12.23-54.87s8.63-26.92,2.8-58.72C588,194.73,562.73,192.07,554.56,169Z"/><path class="bbe67079-fedf-4182-8750-538b7d664681" d="M355.91,421.85c1.7.67,5.08,12.81,26.26,12.81s24.92-13.23,24.92-13.23Z"/><path class="ed9fe34b-5379-4f81-b7bb-90be461905b4" d="M332.11,400.84h97.77s-11,25.58-48.89,25.58S332.11,400.84,332.11,400.84Z"/><path class="a502c90f-99dc-4164-8be5-f6774faef18e" d="M381.23,227.1s-35-33.24-96-13.68-59.14,115-59.14,115H215.65s-6.73-30.19,2.58-75,44.89-82.89,44.89-82.89,13.57-29.06,48.58-26.62,60.18,39.5,60.18,39.5Z"/><path class="a53b2be5-91ce-4187-84f3-d2f393b2601a" d="M463.49,528.79c85.87,0,120.79,29.34,125.56,64.34,6.58,48.3-59.19,64.28-59.19,64.28"/><path class="b5632688-6038-461b-9901-ae9506daf4d3" d="M518.68,555.43a21.75,21.75,0,0,1-4.51-.48c-14.45-3.09-31.51-4.66-50.68-4.66a21.5,21.5,0,0,1,0-43c22.19,0,42.27,1.89,59.67,5.61a21.5,21.5,0,0,1-4.48,42.53Z"/><path class="a6898d6c-0ac0-49c0-a63d-f25290d207dc" d="M381.23,227.1c58.82,0,91.12-1.71,91.12,37.66,0,51,24.38,37.66,39.78,73.1s27,39.88,6.42,63.14-37.22,41-14.12,73.11,5.13,48.74-3.85,60.92S455.66,551.65,449.25,524c0,0,1.28,50.95,39.78,49.84s69.3-8.86,69.3-47.63-13.38-42.76-.54-74.88,28.78-55.83,26.21-92.38-4.37-62.71-18.49-91.51-8.46-55.81-38-78-60.32-33.23-84.7-21S374.81,180.57,381.23,227.1Z"/><polygon class="adfe24da-d385-4ec8-b197-d7f87b658f37" points="275.78 551.46 280.26 571.16 300.93 545.1 275.78 551.46"/><path class="a53b2be5-91ce-4187-84f3-d2f393b2601a" d="M299.45,528.79c-85.87,0-131.92,36.43-122.83,84.32S233.94,678,233.94,678"/><path class="b5632688-6038-461b-9901-ae9506daf4d3" d="M245.93,556A21.5,21.5,0,0,1,241,513.52c17.52-4.13,37.18-6.23,58.44-6.23a21.5,21.5,0,1,1,0,43c-17.94,0-34.28,1.71-48.57,5.08A21.57,21.57,0,0,1,245.93,556Z"/><polyline class="ed423d72-1953-4208-83b4-7c241c4bf559" points="692.48 255.75 722.92 260.04 747.08 217.9 718 174.35 673.41 162.31 644.49 202.48 656.78 232.42 621.46 291.05 629.25 321.65 663.58 314.96 655.68 296.37 673.3 291.42 666.08 273.19 687.84 271.94 675.84 252.58"/><path class="ed9fe34b-5379-4f81-b7bb-90be461905b4" d="M730.64,260.24a10.31,10.31,0,0,1-2.36-1.08,10,10,0,0,1-1.6-1.22,9.81,9.81,0,0,1-1-1.11,10.41,10.41,0,0,1-1-1.59,10.06,10.06,0,0,1-.72-1.72,9.69,9.69,0,0,1-1.09,2.35,10,10,0,0,1-1.36,1.73,11.44,11.44,0,0,1-1.11,1,10.67,10.67,0,0,1-1.46.94,10.27,10.27,0,0,1-1.74.72,8.77,8.77,0,0,1,1.15.43,10.56,10.56,0,0,1,2.9,1.94,10.84,10.84,0,0,1,1.53,1.84,10.23,10.23,0,0,1,1.18,2.5,10.06,10.06,0,0,1,1-2.14,10.32,10.32,0,0,1,2.31-2.69,10.74,10.74,0,0,1,1.7-1.14A10.38,10.38,0,0,1,730.64,260.24Z"/><path class="ed9fe34b-5379-4f81-b7bb-90be461905b4" d="M699.42,255.06a10.31,10.31,0,0,1-2.36-1.08,10,10,0,0,1-1.6-1.22,10.93,10.93,0,0,1-1-1.11,11.14,11.14,0,0,1-1-1.59,10.06,10.06,0,0,1-.72-1.72,10.5,10.5,0,0,1-1.09,2.35,10,10,0,0,1-1.36,1.73,11.44,11.44,0,0,1-1.11,1,10.2,10.2,0,0,1-1.47.94,10.51,10.51,0,0,1-1.73.72,9.34,9.34,0,0,1,1.15.43,10.62,10.62,0,0,1,1.82,1.05,9.18,9.18,0,0,1,1.07.89,10,10,0,0,1,1.53,1.84,10.64,10.64,0,0,1,1.19,2.5,10.06,10.06,0,0,1,1-2.14,10,10,0,0,1,2.3-2.69,10.39,10.39,0,0,1,1.71-1.14A10.06,10.06,0,0,1,699.42,255.06Z"/><path class="ed9fe34b-5379-4f81-b7bb-90be461905b4" d="M753.84,218.29a10.44,10.44,0,0,1-6-5,10.41,10.41,0,0,1-.72-1.72,9.87,9.87,0,0,1-1.09,2.35,10.37,10.37,0,0,1-1.36,1.73,11.44,11.44,0,0,1-1.11,1,10.67,10.67,0,0,1-1.46.94,9.48,9.48,0,0,1-1.74.71,10.52,10.52,0,0,1,1.15.44,10.56,10.56,0,0,1,2.9,1.94,10.84,10.84,0,0,1,1.53,1.84,10.06,10.06,0,0,1,1.18,2.5,9.84,9.84,0,0,1,1-2.14,10.5,10.5,0,0,1,.9-1.28,9.89,9.89,0,0,1,1.41-1.41,10.3,10.3,0,0,1,1.7-1.14A11.28,11.28,0,0,1,753.84,218.29Z"/><path class="ed9fe34b-5379-4f81-b7bb-90be461905b4" d="M717.12,202.12a18.13,18.13,0,0,1-4.17-1.91,17.58,17.58,0,0,1-2.84-2.16,18.18,18.18,0,0,1-5-7.83,18.12,18.12,0,0,1-4.35,7.22,17.93,17.93,0,0,1-2,1.74,18.17,18.17,0,0,1-2.6,1.66,18.41,18.41,0,0,1-3.07,1.28,16.74,16.74,0,0,1,2,.77,18.3,18.3,0,0,1,3.22,1.85,19.39,19.39,0,0,1,1.91,1.59,18.85,18.85,0,0,1,2.71,3.26,18.13,18.13,0,0,1,2.1,4.42,18.45,18.45,0,0,1,1.7-3.79,19.94,19.94,0,0,1,1.59-2.26,18.46,18.46,0,0,1,2.5-2.5,18.16,18.16,0,0,1,3-2A17.57,17.57,0,0,1,717.12,202.12Z"/><path class="ed9fe34b-5379-4f81-b7bb-90be461905b4" d="M723.88,175.89a9.66,9.66,0,0,1-2.35-1.08,10,10,0,0,1-1.61-1.22,10.83,10.83,0,0,1-1-1.11,10.41,10.41,0,0,1-1-1.59,10.06,10.06,0,0,1-.72-1.72,9.69,9.69,0,0,1-1.09,2.35,10,10,0,0,1-1.36,1.73,11.44,11.44,0,0,1-1.11,1,10.67,10.67,0,0,1-1.46.94,10.27,10.27,0,0,1-1.74.72,8.77,8.77,0,0,1,1.15.43,9.91,9.91,0,0,1,1.82,1.05,10.21,10.21,0,0,1,1.08.89,10.39,10.39,0,0,1,1.53,1.84,10.23,10.23,0,0,1,1.18,2.5,10.25,10.25,0,0,1,1.86-3.42,10.27,10.27,0,0,1,3.12-2.55A10,10,0,0,1,723.88,175.89Z"/><path class="ed9fe34b-5379-4f81-b7bb-90be461905b4" d="M680.07,163.17a10.41,10.41,0,0,1-2.35-1.07,10.15,10.15,0,0,1-1.6-1.23,10,10,0,0,1-1-1.11,11.14,11.14,0,0,1-1-1.59,10.35,10.35,0,0,1-.73-1.71,9.8,9.8,0,0,1-1.09,2.34,9.52,9.52,0,0,1-1.36,1.73,8.65,8.65,0,0,1-1.11,1,8.87,8.87,0,0,1-1.46.94,10.51,10.51,0,0,1-1.73.72,12.27,12.27,0,0,1,1.15.43,10.17,10.17,0,0,1,1.81,1.05,9.2,9.2,0,0,1,1.08.9,10.11,10.11,0,0,1,2.71,4.33,10.1,10.1,0,0,1,1-2.14,9.34,9.34,0,0,1,.89-1.27,10.51,10.51,0,0,1,1.41-1.42,11.06,11.06,0,0,1,1.71-1.14A10,10,0,0,1,680.07,163.17Z"/><path class="ed9fe34b-5379-4f81-b7bb-90be461905b4" d="M650.55,202.12a10.31,10.31,0,0,1-2.36-1.08,10,10,0,0,1-1.6-1.22,10.93,10.93,0,0,1-1-1.11,11.14,11.14,0,0,1-1-1.59,10.06,10.06,0,0,1-.72-1.72,10.5,10.5,0,0,1-1.09,2.35,10,10,0,0,1-1.36,1.73,11.44,11.44,0,0,1-1.11,1,10.2,10.2,0,0,1-1.47.94,10.51,10.51,0,0,1-1.73.72,9.34,9.34,0,0,1,1.15.43,10.62,10.62,0,0,1,1.82,1,9.18,9.18,0,0,1,1.07.89,10,10,0,0,1,1.53,1.84,10.64,10.64,0,0,1,1.19,2.5,10.06,10.06,0,0,1,1-2.14,10,10,0,0,1,2.3-2.69,10.39,10.39,0,0,1,1.71-1.14A10.06,10.06,0,0,1,650.55,202.12Z"/><path class="ed9fe34b-5379-4f81-b7bb-90be461905b4" d="M664.06,233.34a10.41,10.41,0,0,1-2.35-1.07,11.26,11.26,0,0,1-1.6-1.22,11,11,0,0,1-1-1.12,10.61,10.61,0,0,1-1-1.59,9.52,9.52,0,0,1-.72-1.71,10.93,10.93,0,0,1-1.09,2.35,10.35,10.35,0,0,1-1.37,1.72,10,10,0,0,1-2.57,1.92,10.51,10.51,0,0,1-1.73.72,12.27,12.27,0,0,1,1.15.43,10.17,10.17,0,0,1,1.81,1,9.2,9.2,0,0,1,1.08.9,10.32,10.32,0,0,1,1.53,1.83,10.64,10.64,0,0,1,1.19,2.5,9.8,9.8,0,0,1,1-2.14,9.34,9.34,0,0,1,.89-1.27,10.5,10.5,0,0,1,3.12-2.56A10,10,0,0,1,664.06,233.34Z"/><path class="ed9fe34b-5379-4f81-b7bb-90be461905b4" d="M628.22,289.49a10.22,10.22,0,0,1-4-2.29,11,11,0,0,1-1-1.12,10.13,10.13,0,0,1-1.76-3.3,10.71,10.71,0,0,1-1.09,2.35,10.37,10.37,0,0,1-1.36,1.73,11.44,11.44,0,0,1-1.11,1,10.2,10.2,0,0,1-1.47.94,9.68,9.68,0,0,1-1.73.71,11.36,11.36,0,0,1,1.15.44,10.62,10.62,0,0,1,1.82,1.05,9.18,9.18,0,0,1,1.07.89,10,10,0,0,1,1.53,1.84,10.45,10.45,0,0,1,1.19,2.5,9.84,9.84,0,0,1,1-2.14,10.5,10.5,0,0,1,.9-1.28,10.07,10.07,0,0,1,3.11-2.55A10.9,10.9,0,0,1,628.22,289.49Z"/><path class="ed9fe34b-5379-4f81-b7bb-90be461905b4" d="M637,321.65a10.29,10.29,0,0,1-2.36-1.07,10.57,10.57,0,0,1-3.68-3.92,10.41,10.41,0,0,1-.72-1.72,10.47,10.47,0,0,1-1.09,2.35,10.79,10.79,0,0,1-1.36,1.73,11.44,11.44,0,0,1-1.11,1,10.61,10.61,0,0,1-1.46.93,10.13,10.13,0,0,1-1.74.72,8.81,8.81,0,0,1,1.15.44,10.21,10.21,0,0,1,1.82,1,11.7,11.7,0,0,1,1.08.9,10.84,10.84,0,0,1,1.53,1.84,10,10,0,0,1,1.18,2.49,10.29,10.29,0,0,1,1-2.14,11.22,11.22,0,0,1,.9-1.27,9.89,9.89,0,0,1,1.41-1.41,9.71,9.71,0,0,1,1.7-1.14A11.28,11.28,0,0,1,637,321.65Z"/><path class="ed9fe34b-5379-4f81-b7bb-90be461905b4" d="M671.36,315a10.29,10.29,0,0,1-2.36-1.07,11.26,11.26,0,0,1-1.6-1.22,10.94,10.94,0,0,1-1-1.12,9.51,9.51,0,0,1-1-1.59,10.31,10.31,0,0,1-.72-1.71,10,10,0,0,1-1.09,2.35,10.29,10.29,0,0,1-1.36,1.72,11.54,11.54,0,0,1-1.11,1,10.61,10.61,0,0,1-1.46.93,10.27,10.27,0,0,1-1.74.72,10.48,10.48,0,0,1,1.15.43,10.24,10.24,0,0,1,2.9,1.95,10.77,10.77,0,0,1,1.53,1.83,10.23,10.23,0,0,1,1.18,2.5,10,10,0,0,1,1.86-3.41,9.4,9.4,0,0,1,1.41-1.41,10.8,10.8,0,0,1,1.7-1.15A10.38,10.38,0,0,1,671.36,315Z"/><path class="ed9fe34b-5379-4f81-b7bb-90be461905b4" d="M680,292.08a10.22,10.22,0,0,1-4-2.29,9.12,9.12,0,0,1-1-1.12,9.85,9.85,0,0,1-1.05-1.58,10.41,10.41,0,0,1-.72-1.72,10.35,10.35,0,0,1-2.45,4.08,11.44,11.44,0,0,1-1.11,1,10.2,10.2,0,0,1-1.47.94,9.68,9.68,0,0,1-1.73.71,11.36,11.36,0,0,1,1.15.44,10.62,10.62,0,0,1,1.82,1.05,10.21,10.21,0,0,1,1.08.89A10.33,10.33,0,0,1,672,296.3a9.75,9.75,0,0,1,1.19,2.5,9.84,9.84,0,0,1,1-2.14,10.5,10.5,0,0,1,.9-1.28,9.89,9.89,0,0,1,1.41-1.41,10.3,10.3,0,0,1,1.7-1.14A11.28,11.28,0,0,1,680,292.08Z"/><path class="ed9fe34b-5379-4f81-b7bb-90be461905b4" d="M694.5,272.6a10.43,10.43,0,0,1-4-2.29,10.94,10.94,0,0,1-1-1.12,9.85,9.85,0,0,1-1-1.58,10.41,10.41,0,0,1-.72-1.72,9.87,9.87,0,0,1-1.09,2.35,10.79,10.79,0,0,1-1.36,1.73,11.44,11.44,0,0,1-1.11,1,11.71,11.71,0,0,1-1.46.94,9.48,9.48,0,0,1-1.74.71,10.52,10.52,0,0,1,1.15.44,9.91,9.91,0,0,1,1.82,1A10.21,10.21,0,0,1,685,275a10.39,10.39,0,0,1,1.53,1.84,10.16,10.16,0,0,1,1.18,2.49,10.84,10.84,0,0,1,1-2.14,11.22,11.22,0,0,1,.9-1.27,9.89,9.89,0,0,1,1.41-1.41,9.79,9.79,0,0,1,1.71-1.14A10.79,10.79,0,0,1,694.5,272.6Z"/><path class="ed9fe34b-5379-4f81-b7bb-90be461905b4" d="M682.51,253.25a10.31,10.31,0,0,1-2.36-1.08,10,10,0,0,1-1.6-1.22,10.93,10.93,0,0,1-1-1.11,11.14,11.14,0,0,1-1-1.59,10.06,10.06,0,0,1-.72-1.72,10.5,10.5,0,0,1-1.09,2.35,10,10,0,0,1-1.36,1.73,11.44,11.44,0,0,1-1.11,1,10.2,10.2,0,0,1-1.47.94,10.51,10.51,0,0,1-1.73.72,9.34,9.34,0,0,1,1.15.43,10.62,10.62,0,0,1,1.82,1,9.18,9.18,0,0,1,1.07.89,10,10,0,0,1,1.53,1.84,10.64,10.64,0,0,1,1.19,2.5,9.84,9.84,0,0,1,1-2.14,10.32,10.32,0,0,1,2.31-2.69,9.9,9.9,0,0,1,1.7-1.14A10.06,10.06,0,0,1,682.51,253.25Z"/><path class="ed9fe34b-5379-4f81-b7bb-90be461905b4" d="M673.21,272.6a10.29,10.29,0,0,1-2.36-1.07,10.57,10.57,0,0,1-3.68-3.92,10.41,10.41,0,0,1-.72-1.72,9.87,9.87,0,0,1-1.09,2.35A10.79,10.79,0,0,1,664,270a11.44,11.44,0,0,1-1.11,1,11.71,11.71,0,0,1-1.46.94,9.48,9.48,0,0,1-1.74.71,10.52,10.52,0,0,1,1.15.44,10.56,10.56,0,0,1,2.9,1.94,10.84,10.84,0,0,1,1.53,1.84,10.16,10.16,0,0,1,1.18,2.49,10.29,10.29,0,0,1,1-2.14,11.22,11.22,0,0,1,.9-1.27,9.89,9.89,0,0,1,1.41-1.41,9.71,9.71,0,0,1,1.7-1.14A11.28,11.28,0,0,1,673.21,272.6Z"/><path class="ed9fe34b-5379-4f81-b7bb-90be461905b4" d="M662.26,296.21a10.31,10.31,0,0,1-2.36-1.08,10,10,0,0,1-1.6-1.22,9.81,9.81,0,0,1-1-1.11,10.41,10.41,0,0,1-1-1.59,10.06,10.06,0,0,1-.72-1.72,10.08,10.08,0,0,1-1.09,2.35,10,10,0,0,1-1.36,1.73,11.44,11.44,0,0,1-1.11,1,10.2,10.2,0,0,1-1.47.94,10.51,10.51,0,0,1-1.73.72,9.34,9.34,0,0,1,1.15.43,10.62,10.62,0,0,1,1.82,1.05,10.21,10.21,0,0,1,1.08.89,10.5,10.5,0,0,1,2.71,4.34,9.84,9.84,0,0,1,1-2.14,10.32,10.32,0,0,1,2.31-2.69,9.9,9.9,0,0,1,1.7-1.14A10.38,10.38,0,0,1,662.26,296.21Z"/><path class="ed9fe34b-5379-4f81-b7bb-90be461905b4" d="M115.31,212.19a10.41,10.41,0,0,1-2.35-1.07,10.15,10.15,0,0,1-1.6-1.23,9.11,9.11,0,0,1-1-1.11,10.71,10.71,0,0,1-1.77-3.3,9.8,9.8,0,0,1-1.09,2.34,10,10,0,0,1-1.36,1.73,9.48,9.48,0,0,1-1.11,1,10.67,10.67,0,0,1-1.46.94,10.27,10.27,0,0,1-1.74.72,8.77,8.77,0,0,1,1.15.43,9.91,9.91,0,0,1,1.82,1,10.21,10.21,0,0,1,1.08.89,10.39,10.39,0,0,1,1.53,1.84,10.23,10.23,0,0,1,1.18,2.5,10.59,10.59,0,0,1,1-2.14,10.39,10.39,0,0,1,.9-1.27,10.51,10.51,0,0,1,1.41-1.42,11.06,11.06,0,0,1,1.71-1.14A10,10,0,0,1,115.31,212.19Z"/><path class="ed9fe34b-5379-4f81-b7bb-90be461905b4" d="M89.27,205.48a10.44,10.44,0,0,1-2.35-1.08,9.53,9.53,0,0,1-1.6-1.22,9.91,9.91,0,0,1-1-1.11,11.14,11.14,0,0,1-1-1.59,10.1,10.1,0,0,1-.73-1.72,9.69,9.69,0,0,1-1.09,2.35,10,10,0,0,1-1.36,1.73,9.48,9.48,0,0,1-1.11,1,10.67,10.67,0,0,1-1.46.94,10.27,10.27,0,0,1-1.74.72,9.49,9.49,0,0,1,1.16.43,10.69,10.69,0,0,1,2.89,1.94,10.39,10.39,0,0,1,1.53,1.84,10.23,10.23,0,0,1,1.18,2.5,10.1,10.1,0,0,1,1-2.14,9.43,9.43,0,0,1,.89-1.28,11,11,0,0,1,1.41-1.41,10.39,10.39,0,0,1,1.71-1.14A10,10,0,0,1,89.27,205.48Z"/><path class="ed9fe34b-5379-4f81-b7bb-90be461905b4" d="M71.43,138.89a10.41,10.41,0,0,1-2.35-1.07,10,10,0,0,1-1.6-1.22,11,11,0,0,1-1-1.12,10.13,10.13,0,0,1-1.76-3.3,10.71,10.71,0,0,1-1.09,2.35,10.85,10.85,0,0,1-1.37,1.73,10.26,10.26,0,0,1-1.1,1,11.13,11.13,0,0,1-1.47.94,9.68,9.68,0,0,1-1.73.71,11.36,11.36,0,0,1,1.15.44,10.62,10.62,0,0,1,1.82,1,11.22,11.22,0,0,1,1.07.89,10.39,10.39,0,0,1,1.53,1.84,10.57,10.57,0,0,1,1.19,2.49,10.29,10.29,0,0,1,1-2.14,10,10,0,0,1,.89-1.27,11,11,0,0,1,1.41-1.41,10.39,10.39,0,0,1,1.71-1.14A11.17,11.17,0,0,1,71.43,138.89Z"/><path class="ed9fe34b-5379-4f81-b7bb-90be461905b4" d="M80.47,126.82a10.22,10.22,0,0,1-4-2.29,9.12,9.12,0,0,1-1-1.12,9.85,9.85,0,0,1-1-1.58,10.41,10.41,0,0,1-.72-1.72,9.87,9.87,0,0,1-1.09,2.35,10.37,10.37,0,0,1-1.36,1.73,11.44,11.44,0,0,1-1.11,1,10.67,10.67,0,0,1-1.46.94,9.48,9.48,0,0,1-1.74.71,10.52,10.52,0,0,1,1.15.44A10.56,10.56,0,0,1,71,129.2,10.84,10.84,0,0,1,72.53,131a10.06,10.06,0,0,1,1.18,2.5,9.84,9.84,0,0,1,1-2.14,10.5,10.5,0,0,1,.9-1.28A9.89,9.89,0,0,1,77,128.71a10.3,10.3,0,0,1,1.7-1.14A11.28,11.28,0,0,1,80.47,126.82Z"/><path class="ed9fe34b-5379-4f81-b7bb-90be461905b4" d="M91.71,112.32a10.41,10.41,0,0,1-2.35-1.07,10.72,10.72,0,0,1-1.6-1.22,10,10,0,0,1-1-1.12,8.88,8.88,0,0,1-1-1.59,9.26,9.26,0,0,1-.73-1.71A10,10,0,0,1,83.86,108a10.29,10.29,0,0,1-1.36,1.72,8.72,8.72,0,0,1-1.11,1,10.61,10.61,0,0,1-1.46.93,10.27,10.27,0,0,1-1.74.72,10.48,10.48,0,0,1,1.15.43,9.91,9.91,0,0,1,1.82,1A10.21,10.21,0,0,1,85,119a10.84,10.84,0,0,1,1-2.14,10.39,10.39,0,0,1,.9-1.27,9.89,9.89,0,0,1,1.41-1.41,10.44,10.44,0,0,1,1.71-1.15A10,10,0,0,1,91.71,112.32Z"/><path class="ed9fe34b-5379-4f81-b7bb-90be461905b4" d="M88.64,90.06a10.34,10.34,0,0,1-5-3.41,10.17,10.17,0,0,1-1.77-3.3,9.8,9.8,0,0,1-1.09,2.34,10,10,0,0,1-1.36,1.73,11.44,11.44,0,0,1-1.11,1,10.67,10.67,0,0,1-1.46.94,10.27,10.27,0,0,1-1.74.72,8.77,8.77,0,0,1,1.15.43,10.56,10.56,0,0,1,2.9,1.94,10.84,10.84,0,0,1,1.53,1.84,10.23,10.23,0,0,1,1.18,2.5,10.06,10.06,0,0,1,1-2.14,11.33,11.33,0,0,1,.9-1.28,10.44,10.44,0,0,1,1.41-1.41,11,11,0,0,1,1.7-1.14A10.38,10.38,0,0,1,88.64,90.06Z"/><path class="ed9fe34b-5379-4f81-b7bb-90be461905b4" d="M96.11,69.67a10,10,0,0,1-2.35-1.08,9.53,9.53,0,0,1-1.6-1.22,9.91,9.91,0,0,1-1-1.11,9.66,9.66,0,0,1-1-1.59A10.1,10.1,0,0,1,89.35,63a9.69,9.69,0,0,1-1.09,2.35A10,10,0,0,1,86.9,67a9.48,9.48,0,0,1-1.11,1,10.67,10.67,0,0,1-1.46.94,10.27,10.27,0,0,1-1.74.72,8.77,8.77,0,0,1,1.15.43,9.91,9.91,0,0,1,1.82,1.05,10.21,10.21,0,0,1,1.08.89,10.39,10.39,0,0,1,1.53,1.84,10.23,10.23,0,0,1,1.18,2.5A10.25,10.25,0,0,1,91.21,73a11,11,0,0,1,1.41-1.41,10.39,10.39,0,0,1,1.71-1.14A10,10,0,0,1,96.11,69.67Z"/><path class="ed9fe34b-5379-4f81-b7bb-90be461905b4" d="M122.85,63.72a10.22,10.22,0,0,1-4-2.29,9.12,9.12,0,0,1-1-1.12,9.85,9.85,0,0,1-1-1.58,10.41,10.41,0,0,1-.72-1.72A9.87,9.87,0,0,1,115,59.36a10.37,10.37,0,0,1-1.36,1.73,11.44,11.44,0,0,1-1.11,1,10.67,10.67,0,0,1-1.46.94,9.48,9.48,0,0,1-1.74.71,10.52,10.52,0,0,1,1.15.44,10.56,10.56,0,0,1,2.9,1.94,10.84,10.84,0,0,1,1.53,1.84,10.06,10.06,0,0,1,1.18,2.5,9.84,9.84,0,0,1,1-2.14A10.5,10.5,0,0,1,118,67a9.89,9.89,0,0,1,1.41-1.41,10.3,10.3,0,0,1,1.7-1.14A11.28,11.28,0,0,1,122.85,63.72Z"/><path class="ed9fe34b-5379-4f81-b7bb-90be461905b4" d="M139.93,104.81a10.29,10.29,0,0,1-2.36-1.07,11.16,11.16,0,0,1-1.6-1.23,10.83,10.83,0,0,1-1-1.11,10.17,10.17,0,0,1-1.77-3.3,9.8,9.8,0,0,1-1.09,2.34,10,10,0,0,1-1.36,1.73,11.44,11.44,0,0,1-1.11,1,10.67,10.67,0,0,1-1.46.94,10.27,10.27,0,0,1-1.74.72,8.77,8.77,0,0,1,1.15.43,9.91,9.91,0,0,1,1.82,1.05,10.21,10.21,0,0,1,1.08.89A10.39,10.39,0,0,1,132,109a10.23,10.23,0,0,1,1.18,2.5,10.59,10.59,0,0,1,1-2.14,10.39,10.39,0,0,1,.9-1.27,10,10,0,0,1,1.41-1.42,11.06,11.06,0,0,1,1.71-1.14A10,10,0,0,1,139.93,104.81Z"/><path class="ed9fe34b-5379-4f81-b7bb-90be461905b4" d="M146.69,78.94a10.29,10.29,0,0,1-2.36-1.07A10.57,10.57,0,0,1,140.65,74a10.41,10.41,0,0,1-.72-1.72,9.87,9.87,0,0,1-1.09,2.35,10.79,10.79,0,0,1-1.36,1.73,11.44,11.44,0,0,1-1.11,1,11.71,11.71,0,0,1-1.46.94,10.24,10.24,0,0,1-1.74.71,10.52,10.52,0,0,1,1.15.44,10.56,10.56,0,0,1,2.9,1.94,10.84,10.84,0,0,1,1.53,1.84,10.16,10.16,0,0,1,1.18,2.49,10.29,10.29,0,0,1,1-2.14,11.22,11.22,0,0,1,.9-1.27,9.89,9.89,0,0,1,1.41-1.41,9.71,9.71,0,0,1,1.7-1.14A11.28,11.28,0,0,1,146.69,78.94Z"/><path class="ed9fe34b-5379-4f81-b7bb-90be461905b4" d="M153.45,102.19a10.31,10.31,0,0,1-2.36-1.08,10,10,0,0,1-1.6-1.22,9.81,9.81,0,0,1-1-1.11,10.41,10.41,0,0,1-1.05-1.59,10.06,10.06,0,0,1-.72-1.72,10.08,10.08,0,0,1-1.09,2.35,10,10,0,0,1-1.36,1.73,11.44,11.44,0,0,1-1.11,1,10.2,10.2,0,0,1-1.47.94,10.51,10.51,0,0,1-1.73.72,9.34,9.34,0,0,1,1.15.43,10.62,10.62,0,0,1,1.82,1,10.21,10.21,0,0,1,1.08.89,10.5,10.5,0,0,1,2.71,4.34,10.06,10.06,0,0,1,1-2.14,10.32,10.32,0,0,1,2.31-2.69,9.9,9.9,0,0,1,1.7-1.14A10.38,10.38,0,0,1,153.45,102.19Z"/><path class="ed9fe34b-5379-4f81-b7bb-90be461905b4" d="M172.15,107.6a10.29,10.29,0,0,1-2.36-1.07,10,10,0,0,1-1.6-1.22,11,11,0,0,1-1-1.12,10.13,10.13,0,0,1-1.76-3.3,10.35,10.35,0,0,1-2.45,4.08,11.44,11.44,0,0,1-1.11,1,11.13,11.13,0,0,1-1.47.94,9.68,9.68,0,0,1-1.73.71,11.36,11.36,0,0,1,1.15.44,10.62,10.62,0,0,1,1.82,1,9.18,9.18,0,0,1,1.07.89,10,10,0,0,1,1.53,1.84,10.57,10.57,0,0,1,1.19,2.49,10.29,10.29,0,0,1,1-2.14,11.22,11.22,0,0,1,.9-1.27,10.36,10.36,0,0,1,1.4-1.41,9.79,9.79,0,0,1,1.71-1.14A10.9,10.9,0,0,1,172.15,107.6Z"/><path class="ed9fe34b-5379-4f81-b7bb-90be461905b4" d="M194.91,167.54a10.27,10.27,0,0,1-5-3.4,10.08,10.08,0,0,1-1.77-3.31,10.27,10.27,0,0,1-1.09,2.35,10,10,0,0,1-1.36,1.73,11.44,11.44,0,0,1-1.11,1,10.2,10.2,0,0,1-1.47.94,9.68,9.68,0,0,1-1.73.71,11.36,11.36,0,0,1,1.15.44,10.62,10.62,0,0,1,1.82,1.05,9.18,9.18,0,0,1,1.07.89,10,10,0,0,1,1.53,1.84,10.26,10.26,0,0,1,1.19,2.5,9.84,9.84,0,0,1,1-2.14,10.32,10.32,0,0,1,2.31-2.69,9.9,9.9,0,0,1,1.7-1.14A11.28,11.28,0,0,1,194.91,167.54Z"/><path class="ed9fe34b-5379-4f81-b7bb-90be461905b4" d="M181.39,189A10.29,10.29,0,0,1,179,188a11.86,11.86,0,0,1-1.6-1.22,10.94,10.94,0,0,1-1-1.12,9.51,9.51,0,0,1-1.05-1.59,10,10,0,0,1-.72-1.71,10,10,0,0,1-1.09,2.35,10.62,10.62,0,0,1-2.47,2.71,10.61,10.61,0,0,1-1.46.93,10.27,10.27,0,0,1-1.74.72,10.48,10.48,0,0,1,1.15.43,10.25,10.25,0,0,1,1.82,1.05,11.7,11.7,0,0,1,1.08.9,10.77,10.77,0,0,1,1.53,1.83,10.23,10.23,0,0,1,1.18,2.5,10.84,10.84,0,0,1,1-2.14,10.39,10.39,0,0,1,.9-1.27,9.4,9.4,0,0,1,1.41-1.41,10.8,10.8,0,0,1,1.7-1.15A10.38,10.38,0,0,1,181.39,189Z"/><polyline class="ed423d72-1953-4208-83b4-7c241c4bf559" points="84.36 112.55 80.43 91.43 90.64 69.84 116.46 62.71 138.38 79.13 145.6 101.69 166.37 107.03 188.15 166.71 175.33 189.31 108.24 212.19 83.02 204.87 64.68 139.15 73.71 127.08 134.23 105.89"/></g></g></svg>