<?xml version="1.0" encoding="utf-8"?>
<!-- Generator: Adobe Illustrator 24.1.3, SVG Export Plug-In . SVG Version: 6.00 Build 0)  -->
<svg version="1.1" id="Capa_1" xmlns="http://www.w3.org/2000/svg" xmlns:xlink="http://www.w3.org/1999/xlink" x="0px" y="0px"
	 viewBox="0 0 579.5 605.6" style="enable-background:new 0 0 579.5 605.6;" xml:space="preserve">
<style type="text/css">
	.st0{fill:none;stroke:#161212;stroke-width:7;stroke-linecap:round;stroke-miterlimit:10;}
	.st1{fill:#161212;}
	.st2{opacity:9.000000e-02;}
	.st3{fill:#F2B89B;}
	.st4{fill:#23252B;}
	.st5{fill:#183A70;}
	.st6{fill:#3E4249;}
	.st7{fill:#FFFFFF;}
	.st8{opacity:0.21;fill:#23252B;}
	.st9{fill:none;stroke:#F2B89B;stroke-width:42;stroke-linecap:round;stroke-miterlimit:10;}
	.st10{fill:none;stroke:#161212;stroke-width:43;stroke-linecap:round;stroke-miterlimit:10;}
	.st11{fill:none;stroke:#FFFFFF;stroke-width:4;stroke-linecap:round;stroke-linejoin:round;stroke-miterlimit:10;}
	.st12{fill:#3A3E47;}
</style>
<path class="st0" d="M110.5,561.2c0.2,0,1.5-1.7,6.4-1.7c2.8,0,7.7,1.7,11.8,1.7c2,0,4.3-1.5,6.6-1.5c1.7,0,9.5,2.8,11.4,2.8
	c4.1,0,8.4-2.3,13.2-2.3c2.4,0,7.6,2,10.1,2c2.8,0,10.5-2.6,13.5-2.6c3.7,0,11,2.4,14.9,2.4c3.6,0,10.5-2.8,14.2-2.8
	c6.3,0,13.4,2,20.2,2c6.1,0,13.2-1.6,19.6-1.6c5.1,0,11,1.9,16.3,1.9c3.6,0,8.6-2.3,12.2-2.3c3.9,0,9.4,2.4,13.3,2.4
	c2.6,0,10.5-1.7,13.1-1.7c3.7,0,9.6,1.7,13.3,1.7c2.9,0,6.9-0.9,9.8-0.9c76.3,0,144.2-0.1,176.2,0.2c3.3,0,5.6-1.6,7.9-1.6
	c4.1,0,6.8,1.7,6.8,1.7"/>
<g>
	<path class="st1" d="M387.3,527.3c0-26.2,27-55.5,0.7-55.5l-167.1-17.3c-26.2,0-9.1,41-9.1,67.2l5.5,38.9l168.6,0.2L387.3,527.3z"
		/>
</g>
<polygon class="st2" points="412.4,515.1 408,534.8 387.3,508.8 "/>
<path class="st3" d="M345.7,473c0,0-11.7,25.1-39.1,25.1c-27.4,0-40.3-25.1-40.3-25.1v-63.8h79.4V473z"/>
<polygon class="st2" points="266.3,424.3 266.3,470.6 327.3,437.2 "/>
<ellipse class="st3" cx="304.5" cy="260.9" rx="167.6" ry="177.8"/>
<path class="st2" d="M472,260.9c0,98.2-75,177.8-167.6,177.8c164.2-61.5,140.3-144.2,136.3-281.4C460.4,186.5,472,222.3,472,260.9z"
	/>
<g>
	<path class="st4" d="M220.6,250c-4.8,4.7-6.7,10.5-10.9,13.8c-1,0.8-0.5,2.4,0.8,2.4h12.7c0.7,0,1.3-0.5,1.4-1.2
		C225,260.4,226.3,244.4,220.6,250z"/>
</g>
<g>
	<circle class="st4" cx="369.9" cy="263.6" r="20.2"/>
	<path class="st4" d="M384.9,250c4.8,4.7,6.7,10.5,10.9,13.8c1,0.8,0.5,2.4-0.8,2.4h-12.7c-0.7,0-1.3-0.5-1.4-1.2
		C380.4,260.4,379.1,244.4,384.9,250z"/>
</g>
<path class="st5" d="M255.9,364.5c0,0,37.2-14.6,48.5-8.5v8.5H255"/>
<path class="st5" d="M352.9,364.5c0,0-37.2-14.6-48.5-8.5v8.5h49.5"/>
<path class="st3" d="M162.3,288.6c0,13.8-10.4,24.9-23.3,24.9s-23.3-11.2-23.3-24.9c0-13.8,4.8-24.9,17.7-24.9
	S162.3,274.8,162.3,288.6z"/>
<path class="st6" d="M119.9,277.3l-9.2-5.2c-1.8-1-2.2-3.4-0.9-5l5.8-7c1.3-1.6,3.7-1.6,5.1,0l6.8,8.1c1,1.2,1,3,0,4.2l-3.5,4.2
	C123.1,277.8,121.3,278.1,119.9,277.3z"/>
<path class="st6" d="M119,290.9l-10,3.5c-1.9,0.7-4-0.6-4.4-2.6l-1.5-9c-0.3-2,1.2-3.9,3.3-3.8L117,279c1.6,0,3,1.2,3.2,2.8l0.9,5.4
	C121.4,288.8,120.5,290.3,119,290.9z"/>
<path class="st6" d="M130.1,305l-6.3,8.5c-1.2,1.7-3.6,1.8-5,0.3l-6.3-6.6c-1.4-1.5-1.2-3.9,0.6-5l8.8-5.9c1.3-0.9,3.1-0.7,4.2,0.5
	l3.8,4C131,301.9,131.1,303.7,130.1,305z"/>
<g>
	<path class="st3" d="M56.3,313.1l-19.5,11.1c-9.5,5.2-13.4,17.9-8.8,28.4l21.3,33.7C54,396.7,65.5,401,75,395.9l11.7-6.3
		c9.5-5.2,13.4-17.9,8.8-28.4l-14.8-37.9C76,312.8,65.8,307.9,56.3,313.1z"/>
	<path class="st3" d="M88.1,337.6l-5.5,16.8c-1.3,4,0.5,8.4,4.1,9.8l4.1,1.7c3.6,1.5,7.6-0.6,8.9-4.6l5.5-16.8
		c1.3-4-0.5-8.4-4.1-9.8l-4.1-1.7C93.4,331.6,89.4,333.6,88.1,337.6z"/>
</g>
<path class="st4" d="M478.4,132.7c-6.5-18.2,19.3-62.9-32.7-82.8c-37.4-14.3-39.4,9.4-77.7,3.1c-31.2-5.1-35.4-2.8-45.2-12.1
	c-24.4-23.2-67.6-26.7-109.2,23.7s-36,62.5-26.6,69.6c36.1-13.6,101.2-1.5,118.1,56.6c9.7-0.3,9.7-0.3,20.2-0.3
	c81-56.4,102.1,22.6,110.9,42.9s18.4,51.5,0.9,78.8c-17.5,27.3-36.3,16.3-29.4,55c7,38.7,17.5,34.3,16.8,51.5
	c-0.7,17.2-16.1,6.4-23.1,35.1c-7,28.7,23.5,77.9,37.3,79.1c13.7,1.2,14,31,4.9,47.8c0,0,35.4-26.6,26.1-57.3
	c-9.3-30.8-27-24.5-17-45.9c10-21.4,3.7,0.9,31-43.1c14.2-22.9,23.5-40.3,27.1-55.7c3.3-14.2-13.2-23.8-12.5-43.5
	c1.4-37,23.1-22.7,26.9-40.9c4.6-21.9-6.6-22.3-12.2-54.9c-5.6-32.6,8.6-26.9,2.8-58.7C511.8,158.4,486.5,155.7,478.4,132.7z"/>
<path class="st5" d="M279.7,385.5c1.7,0.7,5.1,12.8,26.3,12.8c21.2,0,24.9-13.2,24.9-13.2L279.7,385.5z"/>
<path class="st7" d="M255.9,364.5h97.8c0,0-11,25.6-48.9,25.6S255.9,364.5,255.9,364.5z"/>
<path class="st8" d="M305,190.7c0,0-35-33.2-95.9-13.7s-59.1,115-59.1,115h-10.5c0,0-6.7-30.2,2.6-75s44.9-82.9,44.9-82.9
	s13.6-29.1,48.6-26.6c35,2.4,60.2,39.5,60.2,39.5L305,190.7z"/>
<path class="st9" d="M223.3,475.6c-85.9,0-110.7-6.9-128.9-52.2c-19.6-48.7-18.2-51.7-18.2-51.7"/>
<path class="st10" d="M223.3,475.6c-16.7,0-31.1-0.3-43.6-1"/>
<path class="st4" d="M224.8,266.3c0,0,22.2-15,36.9,0c14.7,15-3.1-21.3-24.1-19.6c-13.1,1.1-13.9-0.1-16.9,3.4
	c-3,3.5-0.8,13.1,1.6,13.6c2.4,0.5,1.3,0.9,1.3,0.9L224.8,266.3z"/>
<path class="st7" d="M99.9,149.3c-2-0.6-3.9-1.4-5.6-2.3c-3.3-1.7-6.3-4-8.9-6.6c-1.7-1.7-3.2-3.6-4.5-5.7c-1.5-2.4-2.8-5.1-3.6-7.8
	c-1,3.2-2.5,6.2-4.3,8.9c-2.3,3.4-5.1,6.3-8.4,8.7c-3,2.1-6.3,3.8-9.9,4.9c4,1.2,7.7,3.2,10.9,5.7c2.7,2.1,5.1,4.6,7.1,7.5
	c2,2.8,3.6,6,4.6,9.3c0.9-2.8,2.1-5.4,3.6-7.8c1.5-2.4,3.3-4.6,5.4-6.6c1.8-1.8,3.9-3.3,6.1-4.6C94.6,151.2,97.2,150.1,99.9,149.3z"
	/>
<path class="st7" d="M130.8,174.3c-1.4-0.4-2.7-1-4-1.6c-2.4-1.2-4.5-2.8-6.3-4.7c-1.2-1.2-2.3-2.6-3.2-4.1c-1.1-1.7-2-3.6-2.6-5.6
	c-0.7,2.3-1.8,4.4-3.1,6.3c-1.6,2.4-3.7,4.5-6,6.2c-2.1,1.5-4.5,2.7-7,3.5c2.8,0.9,5.5,2.3,7.8,4.1c1.9,1.5,3.6,3.3,5.1,5.3
	c1.4,2,2.5,4.2,3.3,6.6c0.6-2,1.5-3.8,2.6-5.6c1.1-1.7,2.4-3.3,3.8-4.7c1.3-1.3,2.8-2.4,4.3-3.3
	C127.1,175.7,128.9,174.9,130.8,174.3z"/>
<path class="st7" d="M127.7,133.2c-1.4-0.4-2.7-1-4-1.6c-2.4-1.2-4.5-2.8-6.3-4.7c-1.2-1.2-2.3-2.6-3.2-4.1c-1.1-1.7-2-3.6-2.6-5.6
	c-0.7,2.3-1.8,4.4-3.1,6.3c-1.6,2.4-3.7,4.5-6,6.2c-2.1,1.5-4.5,2.7-7,3.5c2.8,0.9,5.5,2.3,7.8,4.1c1.9,1.5,3.6,3.3,5.1,5.3
	c1.4,2,2.5,4.2,3.3,6.6c0.6-2,1.5-3.8,2.6-5.6c1.1-1.7,2.4-3.3,3.8-4.7c1.3-1.3,2.8-2.4,4.3-3.3C124,134.7,125.8,133.8,127.7,133.2z
	"/>
<path class="st11" d="M26.1,319.7c-3.3,3.5-16.3,17.3-6.1,34.9"/>
<path class="st11" d="M19.4,318.6c-3.3,3.5-16.3,17.3-6.1,34.9"/>
<path class="st11" d="M86.9,305.8c-2.3-4.2-11.6-20.7-31.4-16.3"/>
<path class="st11" d="M87.9,319.1c-2.3-4.2-11.6-20.7-31.4-16.3"/>
<g>
	<path class="st9" d="M387.3,492.4c67.9,5.7,96.6,34.3,96.7,58.3c0.1,24-81.1,16.3-81.1,16.3"/>
	<g>
		<path class="st3" d="M330.4,555.8l1.1,20.7c0.3,10,8.7,17.9,18.7,17.5l34.5-6.4c10-0.3,17.9-8.7,17.5-18.7l-0.4-12.3
			c-0.3-10-8.7-17.9-18.7-17.5l-35.3-0.6C337.8,538.8,330,545.8,330.4,555.8z"/>
		<path class="st3" d="M361.8,537.2l10.9,10.7c2.6,2.5,6.7,2.5,9.3-0.1l2.9-3c2.5-2.6,2.5-6.7-0.1-9.3l-10.9-10.7
			c-2.6-2.5-6.7-2.5-9.3,0.1l-2.9,3C359.2,530.5,359.2,534.7,361.8,537.2z"/>
	</g>
	<path class="st10" d="M387.3,492.4c28.7,2.4,50.4,8.9,65.9,17.4"/>
	<path class="st12" d="M305,190.7c58.8,0,91.1-1.7,91.1,37.7c0,51,24.4,37.7,39.8,73.1c15.4,35.4,27,39.9,6.4,63.1
		c-20.5,23.3-37.2,41-14.1,73.1s5.1,48.7-3.9,60.9c-9,12.2-44.9,16.6-51.3-11.1c0,0,1.3,51,39.8,49.8c38.5-1.1,69.3-8.9,69.3-47.6
		s-13.4-42.8-0.5-74.9c12.8-32.1,28.8-55.8,26.2-92.4c-2.6-36.6-4.4-62.7-18.5-91.5c-14.1-28.8-8.5-55.8-38-78s-60.3-33.2-84.7-21
		S298.6,144.2,305,190.7z"/>
</g>
</svg>
