<svg xmlns="http://www.w3.org/2000/svg" viewBox="0 0 64 74"><defs><style>.aff5088d-ae53-42eb-946d-8f8b9c4f8ec7{isolation:isolate;}.b38f1db2-d8fc-49e6-bc25-41614bc31434{opacity:0.09;mix-blend-mode:multiply;}.af5eccc2-3934-4d98-9d47-5a0da5963037{fill:none;}.b042a416-b43b-4629-b5c4-890879c27e08{fill:#ef202f;}.bd43576f-992a-4c50-ae25-9d53cd6b26f2{fill:#ffe200;}.eb640078-6ff4-4e52-915a-44dfca700c72{fill:#9b1c2b;}</style></defs><g class="aff5088d-ae53-42eb-946d-8f8b9c4f8ec7"><g id="b6cd9c84-8f4b-4970-93c1-e77650008ec2" data-name="Capa 1"><path class="b38f1db2-d8fc-49e6-bc25-41614bc31434" d="M7.64,54.83,27.35,72.14a7.2,7.2,0,0,0,9.55-.06L56.18,54.79a22.37,22.37,0,0,0,7.41-16.62v-25c-9.57,35.21-17,43.56-31,48.23C29.92,62.32,6.89,54.17,7.64,54.83Z"/><path class="af5eccc2-3934-4d98-9d47-5a0da5963037" d="M31.19,69.69a2.92,2.92,0,0,1-.36-.17A2.92,2.92,0,0,0,31.19,69.69Z"/><path class="af5eccc2-3934-4d98-9d47-5a0da5963037" d="M10.48,51.8a18.32,18.32,0,0,1-3.71-4.49,18.32,18.32,0,0,0,3.71,4.49L30.2,69.1a3,3,0,0,0,.47.35,3,3,0,0,1-.47-.35Z"/><path class="af5eccc2-3934-4d98-9d47-5a0da5963037" d="M48.31,8.06h0l-1-.23A69.65,69.65,0,0,0,35.74,6.2,69.65,69.65,0,0,1,47.3,7.83Z"/><path class="af5eccc2-3934-4d98-9d47-5a0da5963037" d="M24.31,6.53a68,68,0,0,0-7.61,1.3L14,8.45l2.7-.62A68,68,0,0,1,24.31,6.53Z"/><path class="af5eccc2-3934-4d98-9d47-5a0da5963037" d="M33.92,69.43a.53.53,0,0,1-.17.08A.53.53,0,0,0,33.92,69.43Z"/><path class="af5eccc2-3934-4d98-9d47-5a0da5963037" d="M33.4,69.69a1.66,1.66,0,0,0-.21.06A1.66,1.66,0,0,1,33.4,69.69Z"/><path class="af5eccc2-3934-4d98-9d47-5a0da5963037" d="M32.28,69.89h0c-.11,0-.21,0-.32,0Z"/><path class="af5eccc2-3934-4d98-9d47-5a0da5963037" d="M32.85,69.84l-.24,0Z"/><path class="af5eccc2-3934-4d98-9d47-5a0da5963037" d="M31.73,69.84c-.11,0-.21-.06-.32-.09C31.52,69.78,31.62,69.82,31.73,69.84Z"/><path class="af5eccc2-3934-4d98-9d47-5a0da5963037" d="M59.74,38.17A18.26,18.26,0,0,1,54.35,51.1a18.26,18.26,0,0,0,5.39-12.93v-25a3.15,3.15,0,0,0-.68-2,3.15,3.15,0,0,1,.68,2Z"/><path class="b042a416-b43b-4629-b5c4-890879c27e08" d="M57.29,10.12l-2.11-.48L45,21.2l4.84,1.51L28.34,55.09,44.53,23.37l-8.35,2.51S42.5,16.61,48.31,8.06l-1-.23A69.65,69.65,0,0,0,35.74,6.2c-1.25-.07-2.49-.1-3.74-.1s-2.57,0-3.85.11-2.56.18-3.84.32a68,68,0,0,0-7.61,1.3L14,8.45,6.71,10.12A3.18,3.18,0,0,0,4.3,12.66a3.27,3.27,0,0,0,0,.54V38.05a18.59,18.59,0,0,0,.41,3.88,18.29,18.29,0,0,0,5.81,9.87L30.2,69.1a3,3,0,0,0,.47.35l.16.07a2.92,2.92,0,0,0,.36.17,1.41,1.41,0,0,0,.22.06c.11,0,.21.07.32.09l.24,0c.11,0,.21,0,.32,0a3.16,3.16,0,0,0,.32,0l.24,0a3.37,3.37,0,0,0,.34-.09,1.66,1.66,0,0,1,.21-.06,2.31,2.31,0,0,0,.35-.18.53.53,0,0,0,.17-.08,3,3,0,0,0,.47-.35L53.67,51.79c.24-.22.45-.46.68-.69a18.26,18.26,0,0,0,5.39-12.93v-25a3.15,3.15,0,0,0-.68-2A3.19,3.19,0,0,0,57.29,10.12Z"/><path class="bd43576f-992a-4c50-ae25-9d53cd6b26f2" d="M58.21,6.2l-3,3.44,2.11.48a3.19,3.19,0,0,1,1.77,1.12,3.15,3.15,0,0,1,.68,2v25A18.26,18.26,0,0,1,54.35,51.1c-.23.23-.44.47-.68.69L34.39,69.08a3,3,0,0,1-.47.35.53.53,0,0,1-.17.08,2.31,2.31,0,0,1-.35.18,1.66,1.66,0,0,0-.21.06,3.37,3.37,0,0,1-.34.09l-.24,0a3.16,3.16,0,0,1-.32,0h0l-.31,0-.24,0c-.11,0-.21-.06-.32-.09a1.41,1.41,0,0,1-.22-.06,2.92,2.92,0,0,1-.36-.17l-.16-.07a3,3,0,0,1-.47-.35L10.48,51.8a18.29,18.29,0,0,1-5.81-9.87,18.59,18.59,0,0,1-.41-3.88V13.2a3.27,3.27,0,0,1,0-.54,3.18,3.18,0,0,1,2.41-2.54L14,8.45l2.7-.62a68,68,0,0,1,7.61-1.3c1.28-.14,2.56-.25,3.84-.32a66.27,66.27,0,0,1,7.59,0A69.65,69.65,0,0,1,47.3,7.83l1,.23,2.44-3.58L48.21,3.9a72.32,72.32,0,0,0-32.42,0l-10,2.29a7.17,7.17,0,0,0-5.59,7V38.05a22.34,22.34,0,0,0,7.6,16.78L27.54,72.14a7.2,7.2,0,0,0,9.55-.06L56.36,54.79a22.38,22.38,0,0,0,7.42-16.62v-25A7.16,7.16,0,0,0,58.21,6.2Z"/><path class="bd43576f-992a-4c50-ae25-9d53cd6b26f2" d="M31.41,69.75a1.41,1.41,0,0,1-.22-.06A1.41,1.41,0,0,0,31.41,69.75Z"/><path class="bd43576f-992a-4c50-ae25-9d53cd6b26f2" d="M32,69.86l-.24,0Z"/><path class="bd43576f-992a-4c50-ae25-9d53cd6b26f2" d="M34.39,69.08a3,3,0,0,1-.47.35,3,3,0,0,0,.47-.35L53.67,51.79c.24-.22.45-.46.68-.69-.23.23-.44.47-.68.69Z"/><path class="bd43576f-992a-4c50-ae25-9d53cd6b26f2" d="M32.61,69.86a3.16,3.16,0,0,1-.32,0A3.16,3.16,0,0,0,32.61,69.86Z"/><path class="bd43576f-992a-4c50-ae25-9d53cd6b26f2" d="M57.29,10.12a3.19,3.19,0,0,1,1.77,1.12,3.19,3.19,0,0,0-1.77-1.12l-2.11-.48h0Z"/><path class="bd43576f-992a-4c50-ae25-9d53cd6b26f2" d="M33.19,69.75a3.37,3.37,0,0,1-.34.09A3.37,3.37,0,0,0,33.19,69.75Z"/><path class="bd43576f-992a-4c50-ae25-9d53cd6b26f2" d="M35.74,6.2a66.27,66.27,0,0,0-7.59,0c1.28-.08,2.57-.11,3.85-.11S34.49,6.13,35.74,6.2Z"/><path class="bd43576f-992a-4c50-ae25-9d53cd6b26f2" d="M6.71,10.12,14,8.45,6.71,10.12A3.18,3.18,0,0,0,4.3,12.66,3.18,3.18,0,0,1,6.71,10.12Z"/><path class="bd43576f-992a-4c50-ae25-9d53cd6b26f2" d="M33.75,69.51a2.31,2.31,0,0,1-.35.18A2.31,2.31,0,0,0,33.75,69.51Z"/><path class="bd43576f-992a-4c50-ae25-9d53cd6b26f2" d="M6.77,47.31a18.2,18.2,0,0,1-2.1-5.38A18.2,18.2,0,0,0,6.77,47.31Z"/><path class="bd43576f-992a-4c50-ae25-9d53cd6b26f2" d="M30.83,69.52l-.16-.07Z"/><polygon points="51.78 8.86 48.31 8.06 48.31 8.06 51.78 8.86"/><path class="bd43576f-992a-4c50-ae25-9d53cd6b26f2" d="M34.87,34.06l5.3-5.31a1.77,1.77,0,1,0-2.51-2.51l-5.31,5.3-5.3-5.3a1.78,1.78,0,0,0-2.51,0,1.76,1.76,0,0,0,0,2.51l5.3,5.31-5.3,5.3a1.76,1.76,0,0,0,0,2.51,1.74,1.74,0,0,0,1.25.52,1.76,1.76,0,0,0,1.26-.52l5.3-5.3,5.31,5.3a1.74,1.74,0,0,0,1.25.52,1.76,1.76,0,0,0,1.26-.52,1.78,1.78,0,0,0,0-2.51Z"/><path class="eb640078-6ff4-4e52-915a-44dfca700c72" d="M58.21,6.2h0L50.75,4.48,48.31,8.06l3.47.8-3.47-.8C42.5,16.61,36.18,25.88,36.18,25.88l8.35-2.51L28.34,55.09,49.87,22.71,45,21.2,55.18,9.64Z"/></g></g></svg>